STARTFONT 2.1
FONT -Baekmuk-Batang-Medium-R-Normal--14-140-75-75-M-140-ksx1001.1997-0
SIZE 14 75 75
FONTBOUNDINGBOX 14 14 -1 -3
STARTPROPERTIES 18
FOUNDRY "Baekmuk"
FAMILY_NAME "Batang"
WEIGHT_NAME "Medium"
SLANT "R"
SETWIDTH_NAME "Normal"
ADD_STYLE_NAME ""
PIXEL_SIZE 14
POINT_SIZE 140
RESOLUTION_X 75
RESOLUTION_Y 75
SPACING "M"
AVERAGE_WIDTH 140
CHARSET_REGISTRY "ksx1001.1997"
CHARSET_ENCODING "0"
DEFAULT_CHAR 8481
FONT_ASCENT 11
FONT_DESCENT 2
COPYRIGHT "(c)Hwan Design Inc. and Mizi Research Inc."
ENDPROPERTIES
CHARS 8224
STARTCHAR 3000
ENCODING 8481
SWIDTH 1400 0
DWIDTH 14 0
BBX 0 0 0 0
BITMAP
ENDCHAR
STARTCHAR 3001
ENCODING 8482
SWIDTH 1400 0
DWIDTH 14 0
BBX 2 2 10 9
BITMAP
C0
40
ENDCHAR
STARTCHAR 3002
ENCODING 8483
SWIDTH 1400 0
DWIDTH 14 0
BBX 4 3 9 8
BITMAP
60
90
A0
ENDCHAR
STARTCHAR 00B7
ENCODING 8484
SWIDTH 1400 0
DWIDTH 14 0
BBX 2 2 6 3
BITMAP
C0
C0
ENDCHAR
STARTCHAR 2025
ENCODING 8485
SWIDTH 1400 0
DWIDTH 14 0
BBX 8 2 3 3
BITMAP
C1
C1
ENDCHAR
STARTCHAR 2026
ENCODING 8486
SWIDTH 1400 0
DWIDTH 14 0
BBX 10 2 2 3
BITMAP
8840
8840
ENDCHAR
STARTCHAR 00A8
ENCODING 8487
SWIDTH 1400 0
DWIDTH 14 0
BBX 6 2 4 3
BITMAP
84
84
ENDCHAR
STARTCHAR 3003
ENCODING 8488
SWIDTH 1400 0
DWIDTH 14 0
BBX 4 4 5 2
BITMAP
50
A0
A0
80
ENDCHAR
STARTCHAR 00AD
ENCODING 8489
SWIDTH 1400 0
DWIDTH 14 0
BBX 6 1 4 4
BITMAP
FC
ENDCHAR
STARTCHAR 2015
ENCODING 8490
SWIDTH 1400 0
DWIDTH 14 0
BBX 14 1 0 4
BITMAP
FFFC
ENDCHAR
STARTCHAR 2225
ENCODING 8491
SWIDTH 1400 0
DWIDTH 14 0
BBX 4 12 5 -2
BITMAP
90
90
90
90
90
90
90
90
90
90
90
90
ENDCHAR
STARTCHAR FF3C
ENCODING 8492
SWIDTH 1400 0
DWIDTH 14 0
BBX 12 12 1 -2
BITMAP
8000
4000
2000
1000
0800
0400
0200
0100
0080
0040
0020
0010
ENDCHAR
STARTCHAR 223C
ENCODING 8493
SWIDTH 1400 0
DWIDTH 14 0
BBX 8 2 3 3
BITMAP
F1
0E
ENDCHAR
STARTCHAR 2018
ENCODING 8494
SWIDTH 1400 0
DWIDTH 14 0
BBX 2 3 9 8
BITMAP
40
80
40
ENDCHAR
STARTCHAR 2019
ENCODING 8495
SWIDTH 1400 0
DWIDTH 14 0
BBX 1 3 3 8
BITMAP
80
80
80
ENDCHAR
STARTCHAR 201C
ENCODING 8496
SWIDTH 1400 0
DWIDTH 14 0
BBX 5 3 8 8
BITMAP
08
90
D8
ENDCHAR
STARTCHAR 201D
ENCODING 8497
SWIDTH 1400 0
DWIDTH 14 0
BBX 5 3 1 8
BITMAP
18
C8
40
ENDCHAR
STARTCHAR 3014
ENCODING 8498
SWIDTH 1400 0
DWIDTH 14 0
BBX 4 13 9 -2
BITMAP
10
60
80
80
80
80
80
80
80
80
80
80
60
ENDCHAR
STARTCHAR 3015
ENCODING 8499
SWIDTH 1400 0
DWIDTH 14 0
BBX 3 13 1 -2
BITMAP
80
60
20
20
20
20
20
20
20
20
20
20
C0
ENDCHAR
STARTCHAR 3008
ENCODING 8500
SWIDTH 1400 0
DWIDTH 14 0
BBX 5 12 8 -2
BITMAP
08
10
10
20
40
80
80
40
20
10
10
08
ENDCHAR
STARTCHAR 3009
ENCODING 8501
SWIDTH 1400 0
DWIDTH 14 0
BBX 5 12 1 -2
BITMAP
80
80
40
20
10
10
08
10
20
40
80
80
ENDCHAR
STARTCHAR 300A
ENCODING 8502
SWIDTH 1400 0
DWIDTH 14 0
BBX 5 12 8 -2
BITMAP
10
30
30
60
A0
C0
C0
A0
60
30
28
18
ENDCHAR
STARTCHAR 300B
ENCODING 8503
SWIDTH 1400 0
DWIDTH 14 0
BBX 5 12 1 -2
BITMAP
40
C0
A0
50
30
28
28
30
60
60
C0
40
ENDCHAR
STARTCHAR 300C
ENCODING 8504
SWIDTH 1400 0
DWIDTH 14 0
BBX 5 7 8 4
BITMAP
F8
80
80
80
80
80
80
ENDCHAR
STARTCHAR 300D
ENCODING 8505
SWIDTH 1400 0
DWIDTH 14 0
BBX 5 7 1 -3
BITMAP
08
08
08
08
08
08
F8
ENDCHAR
STARTCHAR 300E
ENCODING 8506
SWIDTH 1400 0
DWIDTH 14 0
BBX 5 7 8 4
BITMAP
F8
F8
C0
C0
C0
C0
C0
ENDCHAR
STARTCHAR 300F
ENCODING 8507
SWIDTH 1400 0
DWIDTH 14 0
BBX 5 7 1 -3
BITMAP
18
18
18
18
18
F8
F8
ENDCHAR
STARTCHAR 3010
ENCODING 8508
SWIDTH 1400 0
DWIDTH 14 0
BBX 4 13 9 -2
BITMAP
F0
E0
E0
E0
C0
C0
C0
C0
C0
C0
E0
E0
F0
ENDCHAR
STARTCHAR 3011
ENCODING 8509
SWIDTH 1400 0
DWIDTH 14 0
BBX 4 13 1 -2
BITMAP
F0
70
70
30
30
30
30
30
30
30
70
70
70
ENDCHAR
STARTCHAR 00B1
ENCODING 8510
SWIDTH 1400 0
DWIDTH 14 0
BBX 8 9 3 0
BITMAP
08
08
08
08
7F
08
08
08
FF
ENDCHAR
STARTCHAR 00D7
ENCODING 8511
SWIDTH 1400 0
DWIDTH 14 0
BBX 8 8 3 0
BITMAP
81
42
24
18
18
24
42
81
ENDCHAR
STARTCHAR 00F7
ENCODING 8512
SWIDTH 1400 0
DWIDTH 14 0
BBX 10 8 2 0
BITMAP
0400
0400
0000
FFC0
0000
0000
0400
0400
ENDCHAR
STARTCHAR 2260
ENCODING 8513
SWIDTH 1400 0
DWIDTH 14 0
BBX 10 6 2 1
BITMAP
0800
FFC0
0800
0400
FFC0
0400
ENDCHAR
STARTCHAR 2264
ENCODING 8514
SWIDTH 1400 0
DWIDTH 14 0
BBX 10 8 2 0
BITMAP
0080
0700
1800
E000
3000
0E00
01C0
FFC0
ENDCHAR
STARTCHAR 2265
ENCODING 8515
SWIDTH 1400 0
DWIDTH 14 0
BBX 9 8 2 0
BITMAP
4000
3800
0600
0180
0300
1C00
6000
FF80
ENDCHAR
STARTCHAR 221E
ENCODING 8516
SWIDTH 1400 0
DWIDTH 14 0
BBX 12 6 1 1
BITMAP
30E0
CF10
8410
8610
4920
30C0
ENDCHAR
STARTCHAR 2234
ENCODING 8517
SWIDTH 1400 0
DWIDTH 14 0
BBX 8 7 3 1
BITMAP
18
18
00
00
00
C3
C3
ENDCHAR
STARTCHAR 00B0
ENCODING 8518
SWIDTH 1400 0
DWIDTH 14 0
BBX 4 4 1 7
BITMAP
60
90
A0
40
ENDCHAR
STARTCHAR 2032
ENCODING 8519
SWIDTH 1400 0
DWIDTH 14 0
BBX 3 3 1 8
BITMAP
60
40
80
ENDCHAR
STARTCHAR 2033
ENCODING 8520
SWIDTH 1400 0
DWIDTH 14 0
BBX 5 3 1 8
BITMAP
68
50
90
ENDCHAR
STARTCHAR 2103
ENCODING 8521
SWIDTH 1400 0
DWIDTH 14 0
BBX 9 11 2 0
BITMAP
E000
AE00
F980
3080
2000
2000
2000
2000
2000
1100
0E00
ENDCHAR
STARTCHAR 212B
ENCODING 8522
SWIDTH 1400 0
DWIDTH 14 0
BBX 10 11 2 0
BITMAP
1E00
1200
1E00
0C00
1600
1600
2300
3F00
6180
4080
E3C0
ENDCHAR
STARTCHAR FFE0
ENCODING 8523
SWIDTH 1400 0
DWIDTH 14 0
BBX 13 12 1 -2
BITMAP
07C8
18F0
1060
2080
2100
2200
2400
2820
1840
2F80
4000
8000
ENDCHAR
STARTCHAR FFE1
ENCODING 8524
SWIDTH 1400 0
DWIDTH 14 0
BBX 9 10 2 0
BITMAP
0700
0880
0880
0800
0800
7F00
0800
7800
9800
6780
ENDCHAR
STARTCHAR FFE5
ENCODING 8525
SWIDTH 1400 0
DWIDTH 14 0
BBX 9 10 3 0
BITMAP
0100
6200
2200
FF80
1400
0800
FF80
0800
0800
3E00
ENDCHAR
STARTCHAR 2642
ENCODING 8526
SWIDTH 1400 0
DWIDTH 14 0
BBX 6 12 4 -2
BITMAP
10
38
54
94
10
10
10
68
84
84
84
78
ENDCHAR
STARTCHAR 2640
ENCODING 8527
SWIDTH 1400 0
DWIDTH 14 0
BBX 9 12 3 -2
BITMAP
1C00
2600
4200
4200
3C00
0800
FF80
0800
0800
0800
0800
0800
ENDCHAR
STARTCHAR 2220
ENCODING 8528
SWIDTH 1400 0
DWIDTH 14 0
BBX 9 7 2 0
BITMAP
0200
0400
0800
1000
2000
4000
FF80
ENDCHAR
STARTCHAR 22A5
ENCODING 8529
SWIDTH 1400 0
DWIDTH 14 0
BBX 9 8 3 0
BITMAP
0800
0800
0800
0800
0800
0800
0800
FF80
ENDCHAR
STARTCHAR 2312
ENCODING 8530
SWIDTH 1400 0
DWIDTH 14 0
BBX 8 2 3 9
BITMAP
3C
C3
ENDCHAR
STARTCHAR 2202
ENCODING 8531
SWIDTH 1400 0
DWIDTH 14 0
BBX 6 11 4 -1
BITMAP
10
68
04
04
24
54
88
88
88
50
20
ENDCHAR
STARTCHAR 2207
ENCODING 8532
SWIDTH 1400 0
DWIDTH 14 0
BBX 11 8 1 0
BITMAP
FFE0
4040
2040
2080
1100
0900
0A00
0400
ENDCHAR
STARTCHAR 2261
ENCODING 8533
SWIDTH 1400 0
DWIDTH 14 0
BBX 10 6 2 1
BITMAP
FFC0
0000
FFC0
0000
0000
FFC0
ENDCHAR
STARTCHAR 2252
ENCODING 8534
SWIDTH 1400 0
DWIDTH 14 0
BBX 10 8 2 0
BITMAP
2000
2000
FFC0
0000
0000
FFC0
0100
0100
ENDCHAR
STARTCHAR 00A7
ENCODING 8535
SWIDTH 1400 0
DWIDTH 14 0
BBX 5 12 4 -2
BITMAP
70
98
C0
60
70
88
C8
78
30
18
C8
70
ENDCHAR
STARTCHAR 203B
ENCODING 8536
SWIDTH 1400 0
DWIDTH 14 0
BBX 8 8 3 0
BITMAP
18
5B
24
DB
DB
24
5A
99
ENDCHAR
STARTCHAR 2606
ENCODING 8537
SWIDTH 1400 0
DWIDTH 14 0
BBX 10 10 2 -1
BITMAP
0C00
0C00
1400
F3C0
8080
4100
2100
2100
5F00
6080
ENDCHAR
STARTCHAR 2605
ENCODING 8538
SWIDTH 1400 0
DWIDTH 14 0
BBX 10 10 2 -1
BITMAP
0400
0C00
0C00
FFC0
7F80
3F00
3F00
3F00
2100
4080
ENDCHAR
STARTCHAR 25CB
ENCODING 8539
SWIDTH 1400 0
DWIDTH 14 0
BBX 12 12 1 -2
BITMAP
0F00
30C0
6020
4020
8010
8010
8010
8010
4030
4020
30C0
0F80
ENDCHAR
STARTCHAR 25CF
ENCODING 8540
SWIDTH 1400 0
DWIDTH 14 0
BBX 12 11 1 -1
BITMAP
0F80
3FC0
7FE0
7FF0
FFF0
FFF0
FFF0
7FF0
7FE0
3FC0
0F80
ENDCHAR
STARTCHAR 25CE
ENCODING 8541
SWIDTH 1400 0
DWIDTH 14 0
BBX 12 12 1 -2
BITMAP
0F00
30C0
6F20
50A0
A050
A050
A050
A050
50B0
4F20
30C0
0F80
ENDCHAR
STARTCHAR 25C7
ENCODING 8542
SWIDTH 1400 0
DWIDTH 14 0
BBX 12 12 1 -2
BITMAP
0600
0900
1080
2040
4020
8010
8010
4020
2040
1080
0900
0600
ENDCHAR
STARTCHAR 25C6
ENCODING 8543
SWIDTH 1400 0
DWIDTH 14 0
BBX 12 12 1 -2
BITMAP
0600
0F00
1F80
3FC0
7FE0
FFF0
FFF0
7FE0
3FC0
1F80
0F00
0400
ENDCHAR
STARTCHAR 25A1
ENCODING 8544
SWIDTH 1400 0
DWIDTH 14 0
BBX 12 11 1 -1
BITMAP
FFF0
8010
8010
8010
8010
8010
8010
8010
8010
8010
FFF0
ENDCHAR
STARTCHAR 25A0
ENCODING 8545
SWIDTH 1400 0
DWIDTH 14 0
BBX 11 10 2 -1
BITMAP
FFE0
FFE0
FFE0
FFE0
FFE0
FFE0
FFE0
FFE0
FFE0
FFE0
ENDCHAR
STARTCHAR 25B3
ENCODING 8546
SWIDTH 1400 0
DWIDTH 14 0
BBX 11 8 1 0
BITMAP
0E00
0900
1100
2080
2040
4040
8020
FFE0
ENDCHAR
STARTCHAR 25B2
ENCODING 8547
SWIDTH 1400 0
DWIDTH 14 0
BBX 11 8 2 0
BITMAP
0C00
1E00
1E00
3F00
7F80
7F80
FFC0
FFE0
ENDCHAR
STARTCHAR 25BD
ENCODING 8548
SWIDTH 1400 0
DWIDTH 14 0
BBX 11 9 1 -1
BITMAP
7FE0
8020
4040
2040
2080
1100
0900
0A00
0400
ENDCHAR
STARTCHAR 25BC
ENCODING 8549
SWIDTH 1400 0
DWIDTH 14 0
BBX 10 8 2 0
BITMAP
FFC0
FFC0
7F80
7F80
3F00
1E00
1E00
0C00
ENDCHAR
STARTCHAR 2192
ENCODING 8550
SWIDTH 1400 0
DWIDTH 14 0
BBX 11 5 2 2
BITMAP
0100
0080
0060
FFC0
0080
ENDCHAR
STARTCHAR 2190
ENCODING 8551
SWIDTH 1400 0
DWIDTH 14 0
BBX 11 4 1 2
BITMAP
6000
C000
7FE0
2000
ENDCHAR
STARTCHAR 2191
ENCODING 8552
SWIDTH 1400 0
DWIDTH 14 0
BBX 4 12 6 -2
BITMAP
40
E0
E0
50
40
40
40
40
40
40
40
40
ENDCHAR
STARTCHAR 2193
ENCODING 8553
SWIDTH 1400 0
DWIDTH 14 0
BBX 3 12 5 -2
BITMAP
40
40
40
40
40
40
40
40
40
E0
E0
40
ENDCHAR
STARTCHAR 2194
ENCODING 8554
SWIDTH 1400 0
DWIDTH 14 0
BBX 11 4 2 2
BITMAP
4080
8060
FFC0
4080
ENDCHAR
STARTCHAR 3013
ENCODING 8555
SWIDTH 1400 0
DWIDTH 14 0
BBX 10 4 2 2
BITMAP
FFC0
0000
0000
FFC0
ENDCHAR
STARTCHAR 226A
ENCODING 8556
SWIDTH 1400 0
DWIDTH 14 0
BBX 10 9 2 0
BITMAP
0240
0480
1B00
6400
9800
8800
6400
1B00
04C0
ENDCHAR
STARTCHAR 226B
ENCODING 8557
SWIDTH 1400 0
DWIDTH 14 0
BBX 10 9 2 0
BITMAP
9000
4800
3600
0980
0640
04C0
0900
3600
C800
ENDCHAR
STARTCHAR 221A
ENCODING 8558
SWIDTH 1400 0
DWIDTH 14 0
BBX 13 12 1 -1
BITMAP
01F8
0200
0200
0200
0400
0400
0800
4800
C800
3000
3000
3000
ENDCHAR
STARTCHAR 223D
ENCODING 8559
SWIDTH 1400 0
DWIDTH 14 0
BBX 12 6 1 1
BITMAP
30E0
4330
8210
8410
C820
71C0
ENDCHAR
STARTCHAR 221D
ENCODING 8560
SWIDTH 1400 0
DWIDTH 14 0
BBX 10 6 2 1
BITMAP
71C0
8A00
8400
8400
4A00
3180
ENDCHAR
STARTCHAR 2235
ENCODING 8561
SWIDTH 1400 0
DWIDTH 14 0
BBX 8 7 3 1
BITMAP
81
81
00
00
00
18
18
ENDCHAR
STARTCHAR 222B
ENCODING 8562
SWIDTH 1400 0
DWIDTH 14 0
BBX 3 12 5 -2
BITMAP
60
80
80
80
C0
40
40
60
20
20
20
C0
ENDCHAR
STARTCHAR 222C
ENCODING 8563
SWIDTH 1400 0
DWIDTH 14 0
BBX 6 12 4 -2
BITMAP
6C
90
90
90
D8
48
48
6C
24
24
24
D8
ENDCHAR
STARTCHAR 2208
ENCODING 8564
SWIDTH 1400 0
DWIDTH 14 0
BBX 10 7 2 0
BITMAP
3F80
C000
8000
FFC0
8000
4000
3FC0
ENDCHAR
STARTCHAR 220B
ENCODING 8565
SWIDTH 1400 0
DWIDTH 14 0
BBX 10 7 2 0
BITMAP
7F80
0040
0040
FFC0
0040
0040
FF80
ENDCHAR
STARTCHAR 2286
ENCODING 8566
SWIDTH 1400 0
DWIDTH 14 0
BBX 9 8 2 0
BITMAP
3F80
C000
8000
8000
4000
3F80
0000
7F80
ENDCHAR
STARTCHAR 2287
ENCODING 8567
SWIDTH 1400 0
DWIDTH 14 0
BBX 9 8 3 0
BITMAP
FF00
0080
0080
0080
0100
FE00
0000
FF00
ENDCHAR
STARTCHAR 2282
ENCODING 8568
SWIDTH 1400 0
DWIDTH 14 0
BBX 11 7 2 0
BITMAP
3FC0
4000
8000
8000
8000
4000
3FE0
ENDCHAR
STARTCHAR 2283
ENCODING 8569
SWIDTH 1400 0
DWIDTH 14 0
BBX 11 7 1 0
BITMAP
7FC0
0020
0020
0020
0020
0040
FF80
ENDCHAR
STARTCHAR 222A
ENCODING 8570
SWIDTH 1400 0
DWIDTH 14 0
BBX 8 10 3 -1
BITMAP
81
81
81
81
81
81
81
83
42
3C
ENDCHAR
STARTCHAR 2229
ENCODING 8571
SWIDTH 1400 0
DWIDTH 14 0
BBX 8 10 3 -1
BITMAP
3C
42
81
81
81
81
81
81
81
81
ENDCHAR
STARTCHAR 2227
ENCODING 8572
SWIDTH 1400 0
DWIDTH 14 0
BBX 8 8 3 0
BITMAP
18
28
24
44
42
82
81
01
ENDCHAR
STARTCHAR 2228
ENCODING 8573
SWIDTH 1400 0
DWIDTH 14 0
BBX 10 8 2 0
BITMAP
8040
4080
4080
2100
2200
1200
1400
0C00
ENDCHAR
STARTCHAR FFE2
ENCODING 8574
SWIDTH 1400 0
DWIDTH 14 0
BBX 9 6 3 0
BITMAP
FF80
0080
0080
0080
0080
0080
ENDCHAR
STARTCHAR 21D2
ENCODING 8737
SWIDTH 1400 0
DWIDTH 14 0
BBX 12 6 1 1
BITMAP
0040
FFE0
0010
0010
7FE0
0040
ENDCHAR
STARTCHAR 21D4
ENCODING 8738
SWIDTH 1400 0
DWIDTH 14 0
BBX 12 7 1 1
BITMAP
0080
2040
3FE0
C010
4020
3FC0
1080
ENDCHAR
STARTCHAR 2200
ENCODING 8739
SWIDTH 1400 0
DWIDTH 14 0
BBX 10 10 2 0
BITMAP
8040
8080
4080
3F00
2100
2200
1200
1200
0C00
0C00
ENDCHAR
STARTCHAR 2203
ENCODING 8740
SWIDTH 1400 0
DWIDTH 14 0
BBX 7 9 4 0
BITMAP
7E
02
02
02
FE
02
02
02
FE
ENDCHAR
STARTCHAR 00B4
ENCODING 8741
SWIDTH 1400 0
DWIDTH 14 0
BBX 3 2 5 9
BITMAP
60
80
ENDCHAR
STARTCHAR FF5E
ENCODING 8742
SWIDTH 1400 0
DWIDTH 14 0
BBX 6 2 4 9
BITMAP
E0
3C
ENDCHAR
STARTCHAR 02C7
ENCODING 8743
SWIDTH 1400 0
DWIDTH 14 0
BBX 4 2 5 9
BITMAP
90
60
ENDCHAR
STARTCHAR 02D8
ENCODING 8744
SWIDTH 1400 0
DWIDTH 14 0
BBX 6 2 4 9
BITMAP
84
78
ENDCHAR
STARTCHAR 02DD
ENCODING 8745
SWIDTH 1400 0
DWIDTH 14 0
BBX 3 1 5 10
BITMAP
A0
ENDCHAR
STARTCHAR 02DA
ENCODING 8746
SWIDTH 1400 0
DWIDTH 14 0
BBX 3 3 5 8
BITMAP
60
A0
40
ENDCHAR
STARTCHAR 02D9
ENCODING 8747
SWIDTH 1400 0
DWIDTH 14 0
BBX 2 2 6 3
BITMAP
C0
C0
ENDCHAR
STARTCHAR 00B8
ENCODING 8748
SWIDTH 1400 0
DWIDTH 14 0
BBX 2 3 6 -2
BITMAP
40
40
C0
ENDCHAR
STARTCHAR 02DB
ENCODING 8749
SWIDTH 1400 0
DWIDTH 14 0
BBX 2 2 6 -2
BITMAP
80
C0
ENDCHAR
STARTCHAR 00A1
ENCODING 8750
SWIDTH 1400 0
DWIDTH 14 0
BBX 2 10 5 0
BITMAP
40
40
00
40
40
40
40
40
40
C0
ENDCHAR
STARTCHAR 00BF
ENCODING 8751
SWIDTH 1400 0
DWIDTH 14 0
BBX 4 10 5 0
BITMAP
20
20
00
20
20
60
80
80
80
70
ENDCHAR
STARTCHAR 02D0
ENCODING 8752
SWIDTH 1400 0
DWIDTH 14 0
BBX 2 6 6 1
BITMAP
C0
00
00
00
00
C0
ENDCHAR
STARTCHAR 222E
ENCODING 8753
SWIDTH 1400 0
DWIDTH 14 0
BBX 5 11 5 -1
BITMAP
18
20
20
20
F0
D0
D0
20
40
40
80
ENDCHAR
STARTCHAR 2211
ENCODING 8754
SWIDTH 1400 0
DWIDTH 14 0
BBX 11 11 2 -1
BITMAP
FFE0
4020
2020
1820
0C20
0600
0C00
1000
2020
4020
FFE0
ENDCHAR
STARTCHAR 220F
ENCODING 8755
SWIDTH 1400 0
DWIDTH 14 0
BBX 12 12 1 -2
BITMAP
FFF0
2040
2040
2040
2040
2040
2040
2040
2040
2040
2040
70E0
ENDCHAR
STARTCHAR 00A4
ENCODING 8756
SWIDTH 1400 0
DWIDTH 14 0
BBX 10 10 2 -1
BITMAP
DE80
6100
2180
4080
4080
4080
6180
2100
5E80
8040
ENDCHAR
STARTCHAR 2109
ENCODING 8757
SWIDTH 1400 0
DWIDTH 14 0
BBX 12 10 1 -1
BITMAP
C7E0
A420
C410
0480
0780
0480
0400
0400
0400
0F00
ENDCHAR
STARTCHAR 2030
ENCODING 8758
SWIDTH 1400 0
DWIDTH 14 0
BBX 12 13 1 -2
BITMAP
7000
C880
8900
8900
8A00
8C00
7660
0990
1990
2990
4990
8990
8660
ENDCHAR
STARTCHAR 25C1
ENCODING 8759
SWIDTH 1400 0
DWIDTH 14 0
BBX 9 11 2 -1
BITMAP
0080
0380
0480
1880
2080
C080
4080
3080
0880
0680
0180
ENDCHAR
STARTCHAR 25C0
ENCODING 8760
SWIDTH 1400 0
DWIDTH 14 0
BBX 9 11 2 -1
BITMAP
0080
0380
0780
1F80
3F80
FF80
3F80
1F80
0780
0380
0080
ENDCHAR
STARTCHAR 25B7
ENCODING 8761
SWIDTH 1400 0
DWIDTH 14 0
BBX 9 11 3 -1
BITMAP
8000
C000
B000
8C00
8200
8180
8300
8400
9800
E000
8000
ENDCHAR
STARTCHAR 25B6
ENCODING 8762
SWIDTH 1400 0
DWIDTH 14 0
BBX 9 11 3 -1
BITMAP
8000
E000
F000
FC00
FE00
FF80
FE00
FC00
F000
E000
8000
ENDCHAR
STARTCHAR 2664
ENCODING 8763
SWIDTH 1400 0
DWIDTH 14 0
BBX 10 12 2 -2
BITMAP
0800
1400
2200
2100
4080
8080
8040
8040
8840
7380
1200
1E00
ENDCHAR
STARTCHAR 2660
ENCODING 8764
SWIDTH 1400 0
DWIDTH 14 0
BBX 10 11 2 -2
BITMAP
0C00
1E00
3F00
7F80
7F80
FFC0
FFC0
FBC0
7F80
0C00
1E00
ENDCHAR
STARTCHAR 2661
ENCODING 8765
SWIDTH 1400 0
DWIDTH 14 0
BBX 11 12 1 -2
BITMAP
39C0
4620
4020
8020
4020
4040
4040
2080
1080
1100
0A00
0400
ENDCHAR
STARTCHAR 2665
ENCODING 8766
SWIDTH 1400 0
DWIDTH 14 0
BBX 12 12 1 -2
BITMAP
39C0
7FE0
7FE0
FFF0
7FE0
7FE0
3FC0
3FC0
1F80
0F00
0700
0600
ENDCHAR
STARTCHAR 2667
ENCODING 8767
SWIDTH 1400 0
DWIDTH 14 0
BBX 12 13 1 -2
BITMAP
0F00
0900
1080
1080
1100
7AE0
8110
8010
8010
8510
7AE0
0A00
0F00
ENDCHAR
STARTCHAR 2663
ENCODING 8768
SWIDTH 1400 0
DWIDTH 14 0
BBX 12 11 1 -1
BITMAP
0F00
1F80
1F80
0F00
76C0
FFF0
FFF0
FDF0
76E0
0600
0E00
ENDCHAR
STARTCHAR 2299
ENCODING 8769
SWIDTH 1400 0
DWIDTH 14 0
BBX 12 11 1 -1
BITMAP
1F80
3040
4F20
9F90
BFD0
BFD0
BFD0
9F90
4FA0
30C0
1F80
ENDCHAR
STARTCHAR 25C8
ENCODING 8770
SWIDTH 1400 0
DWIDTH 14 0
BBX 13 13 0 -2
BITMAP
0200
0300
0480
0B40
37A0
4FD0
9FE8
4FD0
27A0
1340
0880
0500
0200
ENDCHAR
STARTCHAR 25A3
ENCODING 8771
SWIDTH 1400 0
DWIDTH 14 0
BBX 12 11 1 -1
BITMAP
FFF0
8010
8010
9F90
9F90
9F90
9F90
9F90
9F90
8010
FFF0
ENDCHAR
STARTCHAR 25D0
ENCODING 8772
SWIDTH 1400 0
DWIDTH 14 0
BBX 12 11 1 -1
BITMAP
0F80
3CC0
7C20
7C30
7C10
FC10
FC10
7C30
7C20
3CC0
0F80
ENDCHAR
STARTCHAR 25D1
ENCODING 8773
SWIDTH 1400 0
DWIDTH 14 0
BBX 12 11 1 -1
BITMAP
1F00
33C0
43E0
C3E0
83E0
83F0
83E0
C3E0
43E0
33C0
1F00
ENDCHAR
STARTCHAR 2592
ENCODING 8774
SWIDTH 1400 0
DWIDTH 14 0
BBX 12 11 1 -1
BITMAP
FFF0
AAB0
D550
AAB0
D550
AAB0
D550
AAB0
D550
AAB0
FFF0
ENDCHAR
STARTCHAR 25A4
ENCODING 8775
SWIDTH 1400 0
DWIDTH 14 0
BBX 12 11 1 -1
BITMAP
FFF0
8010
8010
FFF0
8010
FFF0
8010
8010
FFF0
8010
FFF0
ENDCHAR
STARTCHAR 25A5
ENCODING 8776
SWIDTH 1400 0
DWIDTH 14 0
BBX 12 11 1 -1
BITMAP
FFF0
9290
9290
9290
9290
9290
9290
9290
9290
9290
FFF0
ENDCHAR
STARTCHAR 25A8
ENCODING 8777
SWIDTH 1400 0
DWIDTH 14 0
BBX 12 11 1 -1
BITMAP
FFF0
8450
8890
9110
E210
8430
8850
9090
A110
C210
FFF0
ENDCHAR
STARTCHAR 25A7
ENCODING 8778
SWIDTH 1400 0
DWIDTH 14 0
BBX 12 11 1 -1
BITMAP
FFF0
C210
A110
9090
8850
C430
A210
9110
8890
8450
FFF0
ENDCHAR
STARTCHAR 25A6
ENCODING 8779
SWIDTH 1400 0
DWIDTH 14 0
BBX 12 11 1 -1
BITMAP
FFF0
9290
9290
FFF0
9290
FFF0
9290
9290
FFF0
9290
FFF0
ENDCHAR
STARTCHAR 25A9
ENCODING 8780
SWIDTH 1400 0
DWIDTH 14 0
BBX 12 11 1 -1
BITMAP
FFF0
CA50
B190
B190
CA50
8430
CA70
B190
B190
CA50
FFF0
ENDCHAR
STARTCHAR 2668
ENCODING 8781
SWIDTH 1400 0
DWIDTH 14 0
BBX 12 11 1 -2
BITMAP
0A00
1500
1500
1F80
0A80
0A80
4B20
9510
C560
7FC0
1F00
ENDCHAR
STARTCHAR 260F
ENCODING 8782
SWIDTH 1400 0
DWIDTH 14 0
BBX 13 9 0 0
BITMAP
1FC0
7FB8
9FC8
F7E8
1CD0
2860
4850
4CD0
7FF0
ENDCHAR
STARTCHAR 260E
ENCODING 8783
SWIDTH 1400 0
DWIDTH 14 0
BBX 12 9 1 0
BITMAP
1F80
7FF0
E9F0
FFF0
1180
20C0
60E0
71E0
7FE0
ENDCHAR
STARTCHAR 261C
ENCODING 8784
SWIDTH 1400 0
DWIDTH 14 0
BBX 14 6 0 1
BITMAP
FFEC
779C
1D4C
0B1C
07EC
0200
ENDCHAR
STARTCHAR 261E
ENCODING 8785
SWIDTH 1400 0
DWIDTH 14 0
BBX 13 6 0 1
BITMAP
0FF0
F6F8
C3C0
C340
FF80
0100
ENDCHAR
STARTCHAR 00B6
ENCODING 8786
SWIDTH 1400 0
DWIDTH 14 0
BBX 8 12 2 -2
BITMAP
7D
C5
85
C5
7D
05
05
05
05
05
05
05
ENDCHAR
STARTCHAR 2020
ENCODING 8787
SWIDTH 1400 0
DWIDTH 14 0
BBX 7 13 4 -2
BITMAP
10
10
10
10
FE
10
10
10
10
10
10
10
10
ENDCHAR
STARTCHAR 2021
ENCODING 8788
SWIDTH 1400 0
DWIDTH 14 0
BBX 7 12 3 -2
BITMAP
10
FE
10
10
FE
10
10
10
10
10
10
10
ENDCHAR
STARTCHAR 2195
ENCODING 8789
SWIDTH 1400 0
DWIDTH 14 0
BBX 2 9 6 0
BITMAP
C0
80
80
80
80
80
80
80
C0
ENDCHAR
STARTCHAR 2197
ENCODING 8790
SWIDTH 1400 0
DWIDTH 14 0
BBX 8 7 3 1
BITMAP
07
03
05
08
30
40
80
ENDCHAR
STARTCHAR 2199
ENCODING 8791
SWIDTH 1400 0
DWIDTH 14 0
BBX 8 9 3 0
BITMAP
01
02
04
08
10
10
A0
C0
E0
ENDCHAR
STARTCHAR 2196
ENCODING 8792
SWIDTH 1400 0
DWIDTH 14 0
BBX 9 8 3 0
BITMAP
E000
C000
A000
1000
0800
0400
0200
0180
ENDCHAR
STARTCHAR 2198
ENCODING 8793
SWIDTH 1400 0
DWIDTH 14 0
BBX 8 8 3 0
BITMAP
80
40
20
10
08
05
03
07
ENDCHAR
STARTCHAR 266D
ENCODING 8794
SWIDTH 1400 0
DWIDTH 14 0
BBX 4 9 5 0
BITMAP
80
80
80
F0
90
90
90
A0
C0
ENDCHAR
STARTCHAR 2669
ENCODING 8795
SWIDTH 1400 0
DWIDTH 14 0
BBX 3 11 5 -1
BITMAP
20
20
20
20
20
20
20
20
20
E0
C0
ENDCHAR
STARTCHAR 266A
ENCODING 8796
SWIDTH 1400 0
DWIDTH 14 0
BBX 8 11 2 -1
BITMAP
10
18
1C
16
11
11
12
12
10
70
E0
ENDCHAR
STARTCHAR 266C
ENCODING 8797
SWIDTH 1400 0
DWIDTH 14 0
BBX 10 10 2 -1
BITMAP
1FC0
1040
1FC0
1040
1040
1040
1040
71C0
E180
C100
ENDCHAR
STARTCHAR 327F
ENCODING 8798
SWIDTH 1400 0
DWIDTH 14 0
BBX 12 11 1 -1
BITMAP
1F00
30C0
48A0
C920
8A00
EE70
0910
4920
48A0
30C0
0F80
ENDCHAR
STARTCHAR 321C
ENCODING 8799
SWIDTH 1400 0
DWIDTH 14 0
BBX 13 12 0 -2
BITMAP
2000
5FD0
4090
4108
86E8
B808
BFE8
4208
4210
4210
2220
0200
ENDCHAR
STARTCHAR 2116
ENCODING 8800
SWIDTH 1400 0
DWIDTH 14 0
BBX 13 10 1 -1
BITMAP
8400
C400
C400
A4E0
9510
9510
8D10
8510
84A8
0040
ENDCHAR
STARTCHAR 33C7
ENCODING 8801
SWIDTH 1400 0
DWIDTH 14 0
BBX 12 11 1 -1
BITMAP
3000
4C00
8400
8000
81E0
8120
8120
8120
4520
2950
1080
ENDCHAR
STARTCHAR 2122
ENCODING 8802
SWIDTH 1400 0
DWIDTH 14 0
BBX 12 9 1 0
BITMAP
FA30
2B30
2330
2350
2350
22D0
22D0
2290
2310
ENDCHAR
STARTCHAR 33C2
ENCODING 8803
SWIDTH 1400 0
DWIDTH 14 0
BBX 12 7 0 -1
BITMAP
F3F0
9150
1150
7150
9150
BD50
4000
ENDCHAR
STARTCHAR 33D8
ENCODING 8804
SWIDTH 1400 0
DWIDTH 14 0
BBX 13 8 1 -2
BITMAP
E7E0
92A0
92A0
92A0
92A0
AAA8
C000
8000
ENDCHAR
STARTCHAR 2121
ENCODING 8805
SWIDTH 1400 0
DWIDTH 14 0
BBX 12 10 1 -1
BITMAP
FC10
1210
1090
1350
1250
13D0
1210
1210
1150
0080
ENDCHAR
STARTCHAR FF01
ENCODING 8993
SWIDTH 1400 0
DWIDTH 14 0
BBX 2 9 6 0
BITMAP
80
80
40
40
40
00
00
00
80
ENDCHAR
STARTCHAR FF02
ENCODING 8994
SWIDTH 1400 0
DWIDTH 14 0
BBX 4 2 5 9
BITMAP
50
A0
ENDCHAR
STARTCHAR FF03
ENCODING 8995
SWIDTH 1400 0
DWIDTH 14 0
BBX 6 12 4 -2
BITMAP
20
28
28
FC
48
48
50
FC
50
90
10
10
ENDCHAR
STARTCHAR FF04
ENCODING 8996
SWIDTH 1400 0
DWIDTH 14 0
BBX 7 12 3 -2
BITMAP
18
7C
9A
58
78
3C
1E
1A
1A
5A
3C
18
ENDCHAR
STARTCHAR FF05
ENCODING 8997
SWIDTH 1400 0
DWIDTH 14 0
BBX 11 12 2 -2
BITMAP
7020
8840
8880
8900
8A00
5400
2B80
1440
2440
4440
8240
0380
ENDCHAR
STARTCHAR FF06
ENCODING 8998
SWIDTH 1400 0
DWIDTH 14 0
BBX 10 10 2 -1
BITMAP
3C00
2400
2400
3800
53C0
8900
8900
8500
C200
7F80
ENDCHAR
STARTCHAR FF07
ENCODING 8999
SWIDTH 1400 0
DWIDTH 14 0
BBX 2 3 6 8
BITMAP
C0
80
80
ENDCHAR
STARTCHAR FF08
ENCODING 9000
SWIDTH 1400 0
DWIDTH 14 0
BBX 3 12 10 -2
BITMAP
40
40
80
80
80
80
80
80
80
80
40
20
ENDCHAR
STARTCHAR FF09
ENCODING 9001
SWIDTH 1400 0
DWIDTH 14 0
BBX 3 12 1 -2
BITMAP
80
40
40
20
20
20
20
20
20
40
40
80
ENDCHAR
STARTCHAR FF0A
ENCODING 9002
SWIDTH 1400 0
DWIDTH 14 0
BBX 4 5 5 2
BITMAP
20
D0
60
D0
20
ENDCHAR
STARTCHAR FF0B
ENCODING 9003
SWIDTH 1400 0
DWIDTH 14 0
BBX 9 9 2 0
BITMAP
0800
0800
0800
0800
FF80
0800
0800
0800
0800
ENDCHAR
STARTCHAR FF0C
ENCODING 9004
SWIDTH 1400 0
DWIDTH 14 0
BBX 1 3 1 -2
BITMAP
80
80
80
ENDCHAR
STARTCHAR FF0D
ENCODING 9005
SWIDTH 1400 0
DWIDTH 14 0
BBX 10 1 2 4
BITMAP
FFC0
ENDCHAR
STARTCHAR FF0E
ENCODING 9006
SWIDTH 1400 0
DWIDTH 14 0
BBX 1 1 1 0
BITMAP
80
ENDCHAR
STARTCHAR FF0F
ENCODING 9007
SWIDTH 1400 0
DWIDTH 14 0
BBX 12 11 1 -2
BITMAP
0030
0040
0080
0100
0200
0400
0800
1000
2000
4000
8000
ENDCHAR
STARTCHAR FF10
ENCODING 9008
SWIDTH 1400 0
DWIDTH 14 0
BBX 6 11 4 -1
BITMAP
78
48
84
84
84
84
84
84
88
48
30
ENDCHAR
STARTCHAR FF11
ENCODING 9009
SWIDTH 1400 0
DWIDTH 14 0
BBX 5 10 5 0
BITMAP
E0
20
20
20
20
20
20
20
20
F8
ENDCHAR
STARTCHAR FF12
ENCODING 9010
SWIDTH 1400 0
DWIDTH 14 0
BBX 5 10 5 0
BITMAP
60
90
88
10
10
20
40
80
80
F0
ENDCHAR
STARTCHAR FF13
ENCODING 9011
SWIDTH 1400 0
DWIDTH 14 0
BBX 6 11 4 -1
BITMAP
10
6C
44
04
08
18
04
04
C4
4C
38
ENDCHAR
STARTCHAR FF14
ENCODING 9012
SWIDTH 1400 0
DWIDTH 14 0
BBX 4 10 5 0
BITMAP
10
10
30
50
50
90
90
70
10
10
ENDCHAR
STARTCHAR FF15
ENCODING 9013
SWIDTH 1400 0
DWIDTH 14 0
BBX 5 10 5 0
BITMAP
F0
80
80
80
F0
08
08
88
88
70
ENDCHAR
STARTCHAR FF16
ENCODING 9014
SWIDTH 1400 0
DWIDTH 14 0
BBX 6 10 4 0
BITMAP
38
48
80
80
F8
84
84
84
4C
38
ENDCHAR
STARTCHAR FF17
ENCODING 9015
SWIDTH 1400 0
DWIDTH 14 0
BBX 6 10 4 0
BITMAP
7C
88
88
10
10
20
20
20
20
20
ENDCHAR
STARTCHAR FF18
ENCODING 9016
SWIDTH 1400 0
DWIDTH 14 0
BBX 6 10 4 0
BITMAP
78
48
88
48
30
48
84
84
CC
78
ENDCHAR
STARTCHAR FF19
ENCODING 9017
SWIDTH 1400 0
DWIDTH 14 0
BBX 6 10 4 0
BITMAP
78
C8
84
84
84
9C
64
08
48
70
ENDCHAR
STARTCHAR FF1A
ENCODING 9018
SWIDTH 1400 0
DWIDTH 14 0
BBX 1 6 7 0
BITMAP
80
00
00
00
00
80
ENDCHAR
STARTCHAR FF1B
ENCODING 9019
SWIDTH 1400 0
DWIDTH 14 0
BBX 2 8 6 -2
BITMAP
80
00
00
00
00
C0
40
80
ENDCHAR
STARTCHAR FF1C
ENCODING 9020
SWIDTH 1400 0
DWIDTH 14 0
BBX 8 8 3 0
BITMAP
01
06
18
E0
C0
30
0C
03
ENDCHAR
STARTCHAR FF1D
ENCODING 9021
SWIDTH 1400 0
DWIDTH 14 0
BBX 10 4 2 2
BITMAP
FFC0
0000
0000
FFC0
ENDCHAR
STARTCHAR FF1E
ENCODING 9022
SWIDTH 1400 0
DWIDTH 14 0
BBX 8 8 3 0
BITMAP
80
60
18
07
03
0C
30
C0
ENDCHAR
STARTCHAR FF1F
ENCODING 9023
SWIDTH 1400 0
DWIDTH 14 0
BBX 6 10 4 -1
BITMAP
78
C8
CC
08
10
20
00
00
20
20
ENDCHAR
STARTCHAR FF20
ENCODING 9024
SWIDTH 1400 0
DWIDTH 14 0
BBX 9 10 3 -1
BITMAP
1E00
2100
4080
9C80
A280
A680
AD00
5280
2100
1E00
ENDCHAR
STARTCHAR FF21
ENCODING 9025
SWIDTH 1400 0
DWIDTH 14 0
BBX 8 9 3 0
BITMAP
18
28
28
24
44
7E
82
82
C3
ENDCHAR
STARTCHAR FF22
ENCODING 9026
SWIDTH 1400 0
DWIDTH 14 0
BBX 8 9 4 0
BITMAP
FE
82
82
84
FC
82
83
82
C4
ENDCHAR
STARTCHAR FF23
ENCODING 9027
SWIDTH 1400 0
DWIDTH 14 0
BBX 8 11 3 -1
BITMAP
1C
63
40
80
80
80
80
80
41
36
08
ENDCHAR
STARTCHAR FF24
ENCODING 9028
SWIDTH 1400 0
DWIDTH 14 0
BBX 9 10 3 0
BITMAP
FC00
4300
4180
4080
4080
4080
4080
4100
4300
FC00
ENDCHAR
STARTCHAR FF25
ENCODING 9029
SWIDTH 1400 0
DWIDTH 14 0
BBX 9 10 2 0
BITMAP
FF00
2100
2080
2200
2200
3E00
2200
2280
2180
FF00
ENDCHAR
STARTCHAR FF26
ENCODING 9030
SWIDTH 1400 0
DWIDTH 14 0
BBX 8 9 4 0
BITMAP
FE
41
44
44
7C
44
40
40
E0
ENDCHAR
STARTCHAR FF27
ENCODING 9031
SWIDTH 1400 0
DWIDTH 14 0
BBX 9 11 3 -1
BITMAP
0800
3700
4000
8000
8000
8000
8380
8100
4100
2300
1C00
ENDCHAR
STARTCHAR FF28
ENCODING 9032
SWIDTH 1400 0
DWIDTH 14 0
BBX 10 10 2 0
BITMAP
7FC0
2100
2100
2100
2100
3F00
2100
2100
2100
F980
ENDCHAR
STARTCHAR FF29
ENCODING 9033
SWIDTH 1400 0
DWIDTH 14 0
BBX 3 9 6 0
BITMAP
E0
40
40
40
40
40
40
40
E0
ENDCHAR
STARTCHAR FF2A
ENCODING 9034
SWIDTH 1400 0
DWIDTH 14 0
BBX 6 12 4 -2
BITMAP
7C
10
10
10
10
10
10
10
10
10
A0
C0
ENDCHAR
STARTCHAR FF2B
ENCODING 9035
SWIDTH 1400 0
DWIDTH 14 0
BBX 9 10 2 -1
BITMAP
E300
4400
4800
5000
6800
4400
4200
4200
E180
0200
ENDCHAR
STARTCHAR FF2C
ENCODING 9036
SWIDTH 1400 0
DWIDTH 14 0
BBX 9 10 3 0
BITMAP
F800
2000
2000
2000
2000
2000
2000
2080
2100
7F00
ENDCHAR
STARTCHAR FF2D
ENCODING 9037
SWIDTH 1400 0
DWIDTH 14 0
BBX 12 10 1 0
BITMAP
C070
60C0
6140
5140
5240
5240
4A40
4C40
4440
E5E0
ENDCHAR
STARTCHAR FF2E
ENCODING 9038
SWIDTH 1400 0
DWIDTH 14 0
BBX 11 10 1 0
BITMAP
E0E0
3040
3040
2840
2440
2240
2240
2140
20C0
F040
ENDCHAR
STARTCHAR FF2F
ENCODING 9039
SWIDTH 1400 0
DWIDTH 14 0
BBX 10 10 2 0
BITMAP
3F00
6180
C0C0
8040
8040
8040
8040
C0C0
6180
3F00
ENDCHAR
STARTCHAR FF30
ENCODING 9040
SWIDTH 1400 0
DWIDTH 14 0
BBX 8 10 3 0
BITMAP
7E
23
21
21
23
3E
20
20
20
F8
ENDCHAR
STARTCHAR FF31
ENCODING 9041
SWIDTH 1400 0
DWIDTH 14 0
BBX 10 12 2 -2
BITMAP
1E00
2100
4080
4080
4080
8040
8080
4080
3D00
2200
1F00
0080
ENDCHAR
STARTCHAR FF32
ENCODING 9042
SWIDTH 1400 0
DWIDTH 14 0
BBX 9 10 2 0
BITMAP
FF00
2180
2080
2080
2100
3E00
2600
2200
2100
F880
ENDCHAR
STARTCHAR FF33
ENCODING 9043
SWIDTH 1400 0
DWIDTH 14 0
BBX 7 11 3 -1
BITMAP
38
46
82
40
70
0C
02
02
42
64
18
ENDCHAR
STARTCHAR FF34
ENCODING 9044
SWIDTH 1400 0
DWIDTH 14 0
BBX 9 10 3 -1
BITMAP
FF80
0880
0800
0800
0800
0800
0800
0800
1800
0400
ENDCHAR
STARTCHAR FF35
ENCODING 9045
SWIDTH 1400 0
DWIDTH 14 0
BBX 8 10 3 0
BITMAP
03
81
81
81
81
81
81
81
C3
7C
ENDCHAR
STARTCHAR FF36
ENCODING 9046
SWIDTH 1400 0
DWIDTH 14 0
BBX 8 8 3 1
BITMAP
C3
42
42
44
24
24
18
18
ENDCHAR
STARTCHAR FF37
ENCODING 9047
SWIDTH 1400 0
DWIDTH 14 0
BBX 14 10 0 0
BITMAP
F7BC
4210
2110
2310
2520
14A0
14A0
18C0
0840
0840
ENDCHAR
STARTCHAR FF38
ENCODING 9048
SWIDTH 1400 0
DWIDTH 14 0
BBX 9 10 2 0
BITMAP
7380
2200
1200
1400
0800
1400
1400
2200
2100
F380
ENDCHAR
STARTCHAR FF39
ENCODING 9049
SWIDTH 1400 0
DWIDTH 14 0
BBX 9 10 3 0
BITMAP
E380
4100
4200
2400
1400
1800
0800
0800
0800
3E00
ENDCHAR
STARTCHAR FF3A
ENCODING 9050
SWIDTH 1400 0
DWIDTH 14 0
BBX 7 9 3 0
BITMAP
7E
04
04
08
10
10
20
40
86
ENDCHAR
STARTCHAR FF3B
ENCODING 9051
SWIDTH 1400 0
DWIDTH 14 0
BBX 3 14 10 -3
BITMAP
E0
80
80
80
80
80
80
80
80
80
80
80
80
40
ENDCHAR
STARTCHAR FFE6
ENCODING 9052
SWIDTH 1400 0
DWIDTH 14 0
BBX 13 10 1 -1
BITMAP
8E38
8420
4220
FFF0
4A40
FFF0
2940
3180
3180
1080
ENDCHAR
STARTCHAR FF3D
ENCODING 9053
SWIDTH 1400 0
DWIDTH 14 0
BBX 3 14 1 -3
BITMAP
E0
20
20
20
20
20
20
20
20
20
20
20
20
40
ENDCHAR
STARTCHAR FF3E
ENCODING 9054
SWIDTH 1400 0
DWIDTH 14 0
BBX 4 2 5 9
BITMAP
60
F0
ENDCHAR
STARTCHAR FF3F
ENCODING 9055
SWIDTH 1400 0
DWIDTH 14 0
BBX 13 1 0 -2
BITMAP
FFF8
ENDCHAR
STARTCHAR FF40
ENCODING 9056
SWIDTH 1400 0
DWIDTH 14 0
BBX 3 5 5 6
BITMAP
C0
40
20
20
20
ENDCHAR
STARTCHAR FF41
ENCODING 9057
SWIDTH 1400 0
DWIDTH 14 0
BBX 6 7 4 -1
BITMAP
F8
88
18
E8
88
9C
60
ENDCHAR
STARTCHAR FF42
ENCODING 9058
SWIDTH 1400 0
DWIDTH 14 0
BBX 6 11 4 -1
BITMAP
80
80
80
80
F8
84
84
84
84
C8
30
ENDCHAR
STARTCHAR FF43
ENCODING 9059
SWIDTH 1400 0
DWIDTH 14 0
BBX 6 7 4 -1
BITMAP
78
80
80
80
80
4C
30
ENDCHAR
STARTCHAR FF44
ENCODING 9060
SWIDTH 1400 0
DWIDTH 14 0
BBX 6 11 4 -1
BITMAP
04
04
04
04
7C
84
84
84
84
4C
30
ENDCHAR
STARTCHAR FF45
ENCODING 9061
SWIDTH 1400 0
DWIDTH 14 0
BBX 6 8 4 -1
BITMAP
38
4C
84
FC
80
80
44
38
ENDCHAR
STARTCHAR FF46
ENCODING 9062
SWIDTH 1400 0
DWIDTH 14 0
BBX 5 10 4 0
BITMAP
08
38
20
20
F8
20
20
20
20
70
ENDCHAR
STARTCHAR FF47
ENCODING 9063
SWIDTH 1400 0
DWIDTH 14 0
BBX 7 10 3 -3
BITMAP
3A
44
44
44
28
50
78
46
82
7C
ENDCHAR
STARTCHAR FF48
ENCODING 9064
SWIDTH 1400 0
DWIDTH 14 0
BBX 7 10 3 0
BITMAP
C0
40
40
5C
62
42
42
42
42
E2
ENDCHAR
STARTCHAR FF49
ENCODING 9065
SWIDTH 1400 0
DWIDTH 14 0
BBX 3 10 5 0
BITMAP
40
00
00
C0
40
40
40
40
40
E0
ENDCHAR
STARTCHAR FF4A
ENCODING 9066
SWIDTH 1400 0
DWIDTH 14 0
BBX 3 12 5 -2
BITMAP
20
00
00
00
60
20
20
20
20
20
20
C0
ENDCHAR
STARTCHAR FF4B
ENCODING 9067
SWIDTH 1400 0
DWIDTH 14 0
BBX 6 9 4 0
BITMAP
80
80
80
9C
90
A0
E0
90
88
ENDCHAR
STARTCHAR FF4C
ENCODING 9068
SWIDTH 1400 0
DWIDTH 14 0
BBX 1 10 7 0
BITMAP
80
80
80
80
80
80
80
80
80
80
ENDCHAR
STARTCHAR FF4D
ENCODING 9069
SWIDTH 1400 0
DWIDTH 14 0
BBX 11 7 2 0
BITMAP
DDC0
6640
4440
4440
4440
4440
EEE0
ENDCHAR
STARTCHAR FF4E
ENCODING 9070
SWIDTH 1400 0
DWIDTH 14 0
BBX 7 7 4 0
BITMAP
DC
64
44
44
44
44
EE
ENDCHAR
STARTCHAR FF4F
ENCODING 9071
SWIDTH 1400 0
DWIDTH 14 0
BBX 6 8 4 -1
BITMAP
78
48
84
84
84
84
48
78
ENDCHAR
STARTCHAR FF50
ENCODING 9072
SWIDTH 1400 0
DWIDTH 14 0
BBX 6 9 4 -2
BITMAP
30
C8
84
84
84
84
C8
B0
80
ENDCHAR
STARTCHAR FF51
ENCODING 9073
SWIDTH 1400 0
DWIDTH 14 0
BBX 7 9 4 -3
BITMAP
7C
84
84
84
84
4C
34
04
0E
ENDCHAR
STARTCHAR FF52
ENCODING 9074
SWIDTH 1400 0
DWIDTH 14 0
BBX 5 6 4 0
BITMAP
F8
40
40
40
40
40
ENDCHAR
STARTCHAR FF53
ENCODING 9075
SWIDTH 1400 0
DWIDTH 14 0
BBX 5 7 5 0
BITMAP
40
B0
80
70
18
08
D0
ENDCHAR
STARTCHAR FF54
ENCODING 9076
SWIDTH 1400 0
DWIDTH 14 0
BBX 4 9 5 -1
BITMAP
40
40
F0
40
40
40
40
40
70
ENDCHAR
STARTCHAR FF55
ENCODING 9077
SWIDTH 1400 0
DWIDTH 14 0
BBX 6 7 4 -1
BITMAP
CC
44
44
44
44
6C
10
ENDCHAR
STARTCHAR FF56
ENCODING 9078
SWIDTH 1400 0
DWIDTH 14 0
BBX 6 5 4 1
BITMAP
C4
48
48
30
30
ENDCHAR
STARTCHAR FF57
ENCODING 9079
SWIDTH 1400 0
DWIDTH 14 0
BBX 9 5 3 1
BITMAP
9880
8900
5900
6600
6600
ENDCHAR
STARTCHAR FF58
ENCODING 9080
SWIDTH 1400 0
DWIDTH 14 0
BBX 8 6 3 0
BITMAP
76
24
18
28
44
E7
ENDCHAR
STARTCHAR FF59
ENCODING 9081
SWIDTH 1400 0
DWIDTH 14 0
BBX 7 9 3 -2
BITMAP
C2
24
24
28
18
18
10
10
60
ENDCHAR
STARTCHAR FF5A
ENCODING 9082
SWIDTH 1400 0
DWIDTH 14 0
BBX 6 6 4 0
BITMAP
78
08
10
20
44
88
ENDCHAR
STARTCHAR FF5B
ENCODING 9083
SWIDTH 1400 0
DWIDTH 14 0
BBX 3 13 10 -2
BITMAP
20
40
40
40
40
40
80
40
40
40
40
40
20
ENDCHAR
STARTCHAR FF5C
ENCODING 9084
SWIDTH 1400 0
DWIDTH 14 0
BBX 1 12 6 -2
BITMAP
80
80
80
80
80
80
80
80
80
80
80
80
ENDCHAR
STARTCHAR FF5D
ENCODING 9085
SWIDTH 1400 0
DWIDTH 14 0
BBX 3 14 1 -3
BITMAP
80
40
40
40
40
40
20
40
40
40
40
40
00
80
ENDCHAR
STARTCHAR FFE3
ENCODING 9086
SWIDTH 1400 0
DWIDTH 14 0
BBX 6 1 4 9
BITMAP
FC
ENDCHAR
STARTCHAR 3131
ENCODING 9249
SWIDTH 1400 0
DWIDTH 14 0
BBX 9 7 2 1
BITMAP
FF80
4080
0080
0080
0080
0080
0080
ENDCHAR
STARTCHAR 3132
ENCODING 9250
SWIDTH 1400 0
DWIDTH 14 0
BBX 11 7 1 1
BITMAP
F9E0
0820
0820
0820
0820
0820
0820
ENDCHAR
STARTCHAR 3133
ENCODING 9251
SWIDTH 1400 0
DWIDTH 14 0
BBX 11 7 2 1
BITMAP
F100
1100
1100
1100
1280
1440
1020
ENDCHAR
STARTCHAR 3134
ENCODING 9252
SWIDTH 1400 0
DWIDTH 14 0
BBX 9 6 3 2
BITMAP
8000
8000
8000
8000
8100
7F80
ENDCHAR
STARTCHAR 3135
ENCODING 9253
SWIDTH 1400 0
DWIDTH 14 0
BBX 11 7 2 1
BITMAP
8FC0
8100
8100
8100
8A80
F240
0420
ENDCHAR
STARTCHAR 3136
ENCODING 9254
SWIDTH 1400 0
DWIDTH 14 0
BBX 11 8 2 0
BITMAP
0380
8020
8FC0
8380
8440
9440
E440
0380
ENDCHAR
STARTCHAR 3137
ENCODING 9255
SWIDTH 1400 0
DWIDTH 14 0
BBX 9 6 3 1
BITMAP
FF00
8000
8000
8000
8180
FF80
ENDCHAR
STARTCHAR 3138
ENCODING 9256
SWIDTH 1400 0
DWIDTH 14 0
BBX 12 8 1 0
BITMAP
C1F0
7900
4100
4100
4100
4100
59F0
6000
ENDCHAR
STARTCHAR 3139
ENCODING 9257
SWIDTH 1400 0
DWIDTH 14 0
BBX 10 7 2 1
BITMAP
FF80
0080
0100
7F80
4000
4080
7FC0
ENDCHAR
STARTCHAR 313A
ENCODING 9258
SWIDTH 1400 0
DWIDTH 14 0
BBX 11 6 1 1
BITMAP
79E0
0820
F820
4020
4020
7C20
ENDCHAR
STARTCHAR 313B
ENCODING 9259
SWIDTH 1400 0
DWIDTH 14 0
BBX 11 8 1 0
BITMAP
79E0
0920
0920
F920
4120
4120
4DE0
3000
ENDCHAR
STARTCHAR 313C
ENCODING 9260
SWIDTH 1400 0
DWIDTH 14 0
BBX 11 9 1 0
BITMAP
0020
F920
0920
09E0
F920
4120
4120
4DE0
3020
ENDCHAR
STARTCHAR 313D
ENCODING 9261
SWIDTH 1400 0
DWIDTH 14 0
BBX 11 8 1 0
BITMAP
F880
0880
0880
F880
4140
4120
4E20
3000
ENDCHAR
STARTCHAR 313E
ENCODING 9262
SWIDTH 1400 0
DWIDTH 14 0
BBX 11 8 1 0
BITMAP
FBE0
0A00
0A00
FBC0
4200
4200
4FE0
3000
ENDCHAR
STARTCHAR 313F
ENCODING 9263
SWIDTH 1400 0
DWIDTH 14 0
BBX 12 8 1 0
BITMAP
7830
0BC0
0820
F820
4140
4140
5880
67F0
ENDCHAR
STARTCHAR 3140
ENCODING 9264
SWIDTH 1400 0
DWIDTH 14 0
BBX 12 8 1 0
BITMAP
F9C0
0800
17F0
D9C0
6220
4220
4A20
71C0
ENDCHAR
STARTCHAR 3141
ENCODING 9265
SWIDTH 1400 0
DWIDTH 14 0
BBX 9 7 2 1
BITMAP
FF80
4080
4080
4080
4100
4100
7F80
ENDCHAR
STARTCHAR 3142
ENCODING 9266
SWIDTH 1400 0
DWIDTH 14 0
BBX 8 8 3 0
BITMAP
01
81
81
FF
81
81
FF
81
ENDCHAR
STARTCHAR 3143
ENCODING 9267
SWIDTH 1400 0
DWIDTH 14 0
BBX 11 8 1 0
BITMAP
8A20
4920
4920
79E0
4920
4920
79E0
4120
ENDCHAR
STARTCHAR 3144
ENCODING 9268
SWIDTH 1400 0
DWIDTH 14 0
BBX 10 8 2 0
BITMAP
0900
8900
8900
F900
8A80
8C40
FC40
8000
ENDCHAR
STARTCHAR 3145
ENCODING 9269
SWIDTH 1400 0
DWIDTH 14 0
BBX 9 7 3 1
BITMAP
1800
0800
1000
1C00
2200
4180
8080
ENDCHAR
STARTCHAR 3146
ENCODING 9270
SWIDTH 1400 0
DWIDTH 14 0
BBX 11 7 2 1
BITMAP
1100
1180
2100
3300
4A80
8440
0820
ENDCHAR
STARTCHAR 3147
ENCODING 9271
SWIDTH 1400 0
DWIDTH 14 0
BBX 8 8 3 1
BITMAP
08
7C
C3
81
81
81
42
3C
ENDCHAR
STARTCHAR 3148
ENCODING 9272
SWIDTH 1400 0
DWIDTH 14 0
BBX 10 7 2 1
BITMAP
7F80
0400
0C00
0A00
1100
20C0
C040
ENDCHAR
STARTCHAR 3149
ENCODING 9273
SWIDTH 1400 0
DWIDTH 14 0
BBX 11 7 2 1
BITMAP
FBE0
2180
2100
5100
4AC0
8C20
0800
ENDCHAR
STARTCHAR 314A
ENCODING 9274
SWIDTH 1400 0
DWIDTH 14 0
BBX 10 8 2 0
BITMAP
1E00
0000
FF80
4400
0800
1E00
2180
4040
ENDCHAR
STARTCHAR 314B
ENCODING 9275
SWIDTH 1400 0
DWIDTH 14 0
BBX 8 9 3 0
BITMAP
01
FF
41
01
0F
F1
02
02
02
ENDCHAR
STARTCHAR 314C
ENCODING 9276
SWIDTH 1400 0
DWIDTH 14 0
BBX 9 7 3 1
BITMAP
FF00
8000
8000
FF00
8000
8180
FF80
ENDCHAR
STARTCHAR 314D
ENCODING 9277
SWIDTH 1400 0
DWIDTH 14 0
BBX 10 7 2 1
BITMAP
0080
FF80
0100
2100
1200
1200
FFC0
ENDCHAR
STARTCHAR 314E
ENCODING 9278
SWIDTH 1400 0
DWIDTH 14 0
BBX 10 8 2 0
BITMAP
1E00
03C0
FC00
0600
3900
2100
2100
1E00
ENDCHAR
STARTCHAR 314F
ENCODING 9279
SWIDTH 1400 0
DWIDTH 14 0
BBX 5 12 5 -2
BITMAP
C0
40
40
40
40
78
40
40
40
40
40
40
ENDCHAR
STARTCHAR 3150
ENCODING 9280
SWIDTH 1400 0
DWIDTH 14 0
BBX 6 12 4 -2
BITMAP
CC
44
44
44
44
7C
44
44
44
44
44
04
ENDCHAR
STARTCHAR 3151
ENCODING 9281
SWIDTH 1400 0
DWIDTH 14 0
BBX 5 12 5 -2
BITMAP
C0
40
40
40
78
40
40
78
40
40
40
40
ENDCHAR
STARTCHAR 3152
ENCODING 9282
SWIDTH 1400 0
DWIDTH 14 0
BBX 6 12 4 -2
BITMAP
CC
44
44
7C
44
44
7C
44
44
44
44
04
ENDCHAR
STARTCHAR 3153
ENCODING 9283
SWIDTH 1400 0
DWIDTH 14 0
BBX 5 12 4 -2
BITMAP
18
08
08
08
08
F8
08
08
08
08
08
08
ENDCHAR
STARTCHAR 3154
ENCODING 9284
SWIDTH 1400 0
DWIDTH 14 0
BBX 8 12 2 -2
BITMAP
03
09
09
09
09
F9
09
09
09
09
09
01
ENDCHAR
STARTCHAR 3155
ENCODING 9285
SWIDTH 1400 0
DWIDTH 14 0
BBX 5 12 4 -2
BITMAP
18
08
08
F8
08
08
08
F8
08
08
08
08
ENDCHAR
STARTCHAR 3156
ENCODING 9286
SWIDTH 1400 0
DWIDTH 14 0
BBX 8 12 2 -2
BITMAP
1B
09
09
F9
09
09
09
79
09
09
09
01
ENDCHAR
STARTCHAR 3157
ENCODING 9287
SWIDTH 1400 0
DWIDTH 14 0
BBX 12 7 2 1
BITMAP
0C00
0400
0400
0400
0400
0400
FFF0
ENDCHAR
STARTCHAR 3158
ENCODING 9288
SWIDTH 1400 0
DWIDTH 14 0
BBX 12 12 1 -2
BITMAP
0180
0080
0080
0880
0880
0890
08E0
0B80
F480
0080
0080
0080
ENDCHAR
STARTCHAR 3159
ENCODING 9289
SWIDTH 1400 0
DWIDTH 14 0
BBX 11 13 1 -2
BITMAP
0060
0320
0120
1120
1120
1120
11E0
1320
BD20
4120
0120
0120
0020
ENDCHAR
STARTCHAR 315A
ENCODING 9290
SWIDTH 1400 0
DWIDTH 14 0
BBX 10 12 1 -2
BITMAP
00C0
0040
1040
0840
0840
0840
0840
0BC0
F440
0040
0040
0040
ENDCHAR
STARTCHAR 315B
ENCODING 9291
SWIDTH 1400 0
DWIDTH 14 0
BBX 13 7 0 1
BITMAP
00C0
1840
0880
0880
0880
0880
FFF8
ENDCHAR
STARTCHAR 315C
ENCODING 9292
SWIDTH 1400 0
DWIDTH 14 0
BBX 13 9 1 -2
BITMAP
FFF8
4200
0200
0200
0200
0200
0200
0200
0200
ENDCHAR
STARTCHAR 315D
ENCODING 9293
SWIDTH 1400 0
DWIDTH 14 0
BBX 9 12 2 -2
BITMAP
0180
0080
0080
0C80
F080
1080
1780
1080
1080
1080
0080
0080
ENDCHAR
STARTCHAR 315E
ENCODING 9294
SWIDTH 1400 0
DWIDTH 14 0
BBX 11 12 1 -2
BITMAP
0060
00A0
00A0
00A0
FCA0
10A0
13A0
10A0
10A0
00A0
0020
0020
ENDCHAR
STARTCHAR 315F
ENCODING 9295
SWIDTH 1400 0
DWIDTH 14 0
BBX 9 12 2 -2
BITMAP
0180
0080
0080
0080
0F80
F080
1080
1080
1080
1080
0080
0080
ENDCHAR
STARTCHAR 3160
ENCODING 9296
SWIDTH 1400 0
DWIDTH 14 0
BBX 13 10 1 -2
BITMAP
0010
FFF8
5080
1080
1080
1080
1080
1080
1080
1080
ENDCHAR
STARTCHAR 3161
ENCODING 9297
SWIDTH 1400 0
DWIDTH 14 0
BBX 12 2 1 4
BITMAP
0030
FFF0
ENDCHAR
STARTCHAR 3162
ENCODING 9298
SWIDTH 1400 0
DWIDTH 14 0
BBX 10 12 1 -2
BITMAP
00C0
0040
0040
0040
0040
0040
03C0
FC40
0040
0040
0040
0040
ENDCHAR
STARTCHAR 3163
ENCODING 9299
SWIDTH 1400 0
DWIDTH 14 0
BBX 2 12 6 -2
BITMAP
C0
40
40
40
40
40
40
40
40
40
40
40
ENDCHAR
STARTCHAR 3164
ENCODING 9300
SWIDTH 1400 0
DWIDTH 14 0
BBX 0 0 0 0
BITMAP
ENDCHAR
STARTCHAR 3165
ENCODING 9301
SWIDTH 1400 0
DWIDTH 14 0
BBX 11 7 2 1
BITMAP
0600
8200
8200
8200
8200
9200
E3E0
ENDCHAR
STARTCHAR 3166
ENCODING 9302
SWIDTH 1400 0
DWIDTH 14 0
BBX 10 7 2 1
BITMAP
07C0
8400
8400
8400
8400
9440
E7C0
ENDCHAR
STARTCHAR 3167
ENCODING 9303
SWIDTH 1400 0
DWIDTH 14 0
BBX 11 7 1 1
BITMAP
C080
4080
4100
4180
4240
5420
6020
ENDCHAR
STARTCHAR 3168
ENCODING 9304
SWIDTH 1400 0
DWIDTH 14 0
BBX 12 7 1 1
BITMAP
8080
4180
4140
4240
4220
4A20
77F0
ENDCHAR
STARTCHAR 3169
ENCODING 9305
SWIDTH 1400 0
DWIDTH 14 0
BBX 12 7 1 1
BITMAP
F640
1240
1240
7240
42A0
4310
7310
ENDCHAR
STARTCHAR 316A
ENCODING 9306
SWIDTH 1400 0
DWIDTH 14 0
BBX 12 8 1 0
BITMAP
7FE0
0A00
0A00
FA00
4200
4200
4BF0
3000
ENDCHAR
STARTCHAR 316B
ENCODING 9307
SWIDTH 1400 0
DWIDTH 14 0
BBX 11 8 2 0
BITMAP
2280
6A40
2A40
CE80
8AC0
8B20
EF20
0A00
ENDCHAR
STARTCHAR 316C
ENCODING 9308
SWIDTH 1400 0
DWIDTH 14 0
BBX 12 7 1 1
BITMAP
FC00
08C0
0940
7940
4120
4620
7BF0
ENDCHAR
STARTCHAR 316D
ENCODING 9309
SWIDTH 1400 0
DWIDTH 14 0
BBX 12 8 1 0
BITMAP
F800
0BF0
0880
F9C0
4220
4220
49C0
7000
ENDCHAR
STARTCHAR 316E
ENCODING 9310
SWIDTH 1400 0
DWIDTH 14 0
BBX 11 8 2 0
BITMAP
0420
F220
9220
93E0
9220
9220
F3E0
0220
ENDCHAR
STARTCHAR 316F
ENCODING 9311
SWIDTH 1400 0
DWIDTH 14 0
BBX 10 8 2 0
BITMAP
0200
F100
9100
9100
9300
94C0
F440
8800
ENDCHAR
STARTCHAR 3170
ENCODING 9312
SWIDTH 1400 0
DWIDTH 14 0
BBX 10 7 2 1
BITMAP
0100
F100
9280
9280
9240
9440
F7C0
ENDCHAR
STARTCHAR 3171
ENCODING 9313
SWIDTH 1400 0
DWIDTH 14 0
BBX 6 10 4 -1
BITMAP
FC
84
84
84
FC
78
84
84
84
78
ENDCHAR
STARTCHAR 3172
ENCODING 9314
SWIDTH 1400 0
DWIDTH 14 0
BBX 10 8 2 0
BITMAP
0800
8BC0
8840
F840
8840
8840
F840
8000
ENDCHAR
STARTCHAR 3173
ENCODING 9315
SWIDTH 1400 0
DWIDTH 14 0
BBX 11 8 2 0
BITMAP
8800
8BC0
FA00
8A00
8A00
8A00
FA00
8BE0
ENDCHAR
STARTCHAR 3174
ENCODING 9316
SWIDTH 1400 0
DWIDTH 14 0
BBX 12 7 1 1
BITMAP
9210
5270
5210
7210
5510
5490
7890
ENDCHAR
STARTCHAR 3175
ENCODING 9317
SWIDTH 1400 0
DWIDTH 14 0
BBX 12 8 1 0
BITMAP
9220
52C0
5280
7680
5680
5980
78B0
0040
ENDCHAR
STARTCHAR 3176
ENCODING 9318
SWIDTH 1400 0
DWIDTH 14 0
BBX 10 8 2 0
BITMAP
17C0
9100
9100
F100
9280
9240
F440
8800
ENDCHAR
STARTCHAR 3177
ENCODING 9319
SWIDTH 1400 0
DWIDTH 14 0
BBX 11 9 1 0
BITMAP
0020
8BE0
4A00
4A00
7BC0
4A00
4A00
7BE0
4000
ENDCHAR
STARTCHAR 3178
ENCODING 9320
SWIDTH 1400 0
DWIDTH 14 0
BBX 8 12 3 -2
BITMAP
C1
41
7F
41
41
7F
7C
42
42
42
62
3C
ENDCHAR
STARTCHAR 3179
ENCODING 9321
SWIDTH 1400 0
DWIDTH 14 0
BBX 8 12 3 -2
BITMAP
65
A5
E7
A5
A7
E0
3C
46
42
42
46
3C
ENDCHAR
STARTCHAR 317A
ENCODING 9322
SWIDTH 1400 0
DWIDTH 14 0
BBX 10 7 2 1
BITMAP
2040
13C0
1040
3040
5040
8840
0440
ENDCHAR
STARTCHAR 317B
ENCODING 9323
SWIDTH 1400 0
DWIDTH 14 0
BBX 12 7 1 1
BITMAP
1100
1100
1100
1100
2900
4500
81F0
ENDCHAR
STARTCHAR 317C
ENCODING 9324
SWIDTH 1400 0
DWIDTH 14 0
BBX 12 7 1 1
BITMAP
11F0
1100
1100
3100
2900
4500
85F0
ENDCHAR
STARTCHAR 317D
ENCODING 9325
SWIDTH 1400 0
DWIDTH 14 0
BBX 11 7 1 1
BITMAP
1820
1120
1120
31E0
2920
4520
81E0
ENDCHAR
STARTCHAR 317E
ENCODING 9326
SWIDTH 1400 0
DWIDTH 14 0
BBX 11 7 1 1
BITMAP
13E0
1080
1080
3080
2940
4520
8200
ENDCHAR
STARTCHAR 317F
ENCODING 9327
SWIDTH 1400 0
DWIDTH 14 0
BBX 8 8 3 1
BITMAP
10
08
18
24
24
42
81
FF
ENDCHAR
STARTCHAR 3180
ENCODING 9328
SWIDTH 1400 0
DWIDTH 14 0
BBX 11 6 1 1
BITMAP
71C0
4920
8A20
8620
4920
79E0
ENDCHAR
STARTCHAR 3181
ENCODING 9329
SWIDTH 1400 0
DWIDTH 14 0
BBX 6 8 4 0
BITMAP
10
78
CC
84
84
84
CC
78
ENDCHAR
STARTCHAR 3182
ENCODING 9330
SWIDTH 1400 0
DWIDTH 14 0
BBX 12 8 1 1
BITMAP
3000
1080
7880
C480
8580
8540
C620
7810
ENDCHAR
STARTCHAR 3183
ENCODING 9331
SWIDTH 1400 0
DWIDTH 14 0
BBX 12 9 1 0
BITMAP
3000
1080
7940
CD40
8540
8620
8620
CFF0
7800
ENDCHAR
STARTCHAR 3184
ENCODING 9332
SWIDTH 1400 0
DWIDTH 14 0
BBX 9 11 3 -1
BITMAP
0300
FF00
2200
2400
0400
FF80
3C00
4200
4200
4200
3C00
ENDCHAR
STARTCHAR 3185
ENCODING 9333
SWIDTH 1400 0
DWIDTH 14 0
BBX 12 8 1 0
BITMAP
38C0
0000
FFF0
1040
69A0
4920
4920
30C0
ENDCHAR
STARTCHAR 3186
ENCODING 9334
SWIDTH 1400 0
DWIDTH 14 0
BBX 10 8 2 0
BITMAP
FFC0
0000
0000
1E00
2100
2100
2100
1E00
ENDCHAR
STARTCHAR 3187
ENCODING 9335
SWIDTH 1400 0
DWIDTH 14 0
BBX 13 12 1 -2
BITMAP
00C0
0040
0640
6240
2278
2240
2240
23D0
FC60
0040
0040
0040
ENDCHAR
STARTCHAR 3188
ENCODING 9336
SWIDTH 1400 0
DWIDTH 14 0
BBX 9 12 2 -2
BITMAP
0780
0280
0A80
4B80
4A80
4A80
4F80
3280
C280
0280
0280
0080
ENDCHAR
STARTCHAR 3189
ENCODING 9337
SWIDTH 1400 0
DWIDTH 14 0
BBX 9 12 2 -2
BITMAP
0180
0080
0C80
6480
2480
2480
2480
2F80
D080
0080
0080
0080
ENDCHAR
STARTCHAR 318A
ENCODING 9338
SWIDTH 1400 0
DWIDTH 14 0
BBX 9 12 2 -2
BITMAP
0180
0080
0080
0C80
F880
2F80
2880
2880
2B80
2880
0080
0080
ENDCHAR
STARTCHAR 318B
ENCODING 9339
SWIDTH 1400 0
DWIDTH 14 0
BBX 11 12 1 -2
BITMAP
0060
00A0
00A0
00A0
FCA0
2BA0
28A0
2BA0
28A0
08A0
0020
0020
ENDCHAR
STARTCHAR 318C
ENCODING 9340
SWIDTH 1400 0
DWIDTH 14 0
BBX 10 12 1 -2
BITMAP
00C0
0040
0040
0040
FF40
1240
1240
1240
1240
1240
0040
0040
ENDCHAR
STARTCHAR 318D
ENCODING 9341
SWIDTH 1400 0
DWIDTH 14 0
BBX 2 2 6 3
BITMAP
C0
C0
ENDCHAR
STARTCHAR 318E
ENCODING 9342
SWIDTH 1400 0
DWIDTH 14 0
BBX 7 12 4 -2
BITMAP
06
02
02
02
C2
C2
02
02
02
02
02
02
ENDCHAR
STARTCHAR 2170
ENCODING 9505
SWIDTH 1400 0
DWIDTH 14 0
BBX 2 10 6 0
BITMAP
40
00
00
00
C0
40
40
40
40
40
ENDCHAR
STARTCHAR 2171
ENCODING 9506
SWIDTH 1400 0
DWIDTH 14 0
BBX 7 10 3 0
BITMAP
42
42
00
00
C6
42
42
42
42
42
ENDCHAR
STARTCHAR 2172
ENCODING 9507
SWIDTH 1400 0
DWIDTH 14 0
BBX 9 10 2 0
BITMAP
4480
4480
0000
0000
CD80
4480
4480
4480
4480
4480
ENDCHAR
STARTCHAR 2173
ENCODING 9508
SWIDTH 1400 0
DWIDTH 14 0
BBX 8 10 3 0
BITMAP
40
00
00
00
D1
51
4A
4A
44
44
ENDCHAR
STARTCHAR 2174
ENCODING 9509
SWIDTH 1400 0
DWIDTH 14 0
BBX 5 6 5 0
BITMAP
88
90
50
60
20
20
ENDCHAR
STARTCHAR 2175
ENCODING 9510
SWIDTH 1400 0
DWIDTH 14 0
BBX 8 10 3 0
BITMAP
01
00
00
00
89
51
51
51
21
21
ENDCHAR
STARTCHAR 2176
ENCODING 9511
SWIDTH 1400 0
DWIDTH 14 0
BBX 10 10 2 0
BITMAP
0240
0000
0000
0000
8A40
5240
5240
6240
2240
2240
ENDCHAR
STARTCHAR 2177
ENCODING 9512
SWIDTH 1400 0
DWIDTH 14 0
BBX 11 10 2 0
BITMAP
04A0
0000
0000
0000
9520
9520
A520
6520
4520
4520
ENDCHAR
STARTCHAR 2178
ENCODING 9513
SWIDTH 1400 0
DWIDTH 14 0
BBX 9 10 2 0
BITMAP
4000
0000
0000
C000
5D80
4900
4600
4A00
5100
FB80
ENDCHAR
STARTCHAR 2179
ENCODING 9514
SWIDTH 1400 0
DWIDTH 14 0
BBX 6 6 4 0
BITMAP
40
58
20
70
48
8C
ENDCHAR
STARTCHAR 2160
ENCODING 9520
SWIDTH 1400 0
DWIDTH 14 0
BBX 5 10 4 0
BITMAP
F8
20
20
20
20
20
20
20
20
70
ENDCHAR
STARTCHAR 2161
ENCODING 9521
SWIDTH 1400 0
DWIDTH 14 0
BBX 8 10 3 0
BITMAP
FF
42
42
42
42
42
42
42
42
FF
ENDCHAR
STARTCHAR 2162
ENCODING 9522
SWIDTH 1400 0
DWIDTH 14 0
BBX 10 9 2 0
BITMAP
7F80
4480
4480
4480
4480
4480
4480
4480
ECC0
ENDCHAR
STARTCHAR 2163
ENCODING 9523
SWIDTH 1400 0
DWIDTH 14 0
BBX 10 9 2 0
BITMAP
7840
4840
4880
4480
4480
4500
4300
4300
E200
ENDCHAR
STARTCHAR 2164
ENCODING 9524
SWIDTH 1400 0
DWIDTH 14 0
BBX 10 10 2 0
BITMAP
F1C0
6080
2100
2100
1200
1200
1400
0C00
0C00
0800
ENDCHAR
STARTCHAR 2165
ENCODING 9525
SWIDTH 1400 0
DWIDTH 14 0
BBX 10 9 2 0
BITMAP
87C0
8480
4880
4880
4880
5080
3080
3080
21C0
ENDCHAR
STARTCHAR 2166
ENCODING 9526
SWIDTH 1400 0
DWIDTH 14 0
BBX 13 10 0 0
BITMAP
F7F8
4290
2490
2490
2490
2490
1890
1890
1890
01F8
ENDCHAR
STARTCHAR 2167
ENCODING 9527
SWIDTH 1400 0
DWIDTH 14 0
BBX 12 10 1 -1
BITMAP
8FF0
8A90
9290
5290
5290
6290
6290
2290
2690
0160
ENDCHAR
STARTCHAR 2168
ENCODING 9528
SWIDTH 1400 0
DWIDTH 14 0
BBX 10 9 2 0
BITMAP
7840
4480
4500
4200
4200
4500
4880
4880
F8C0
ENDCHAR
STARTCHAR 2169
ENCODING 9529
SWIDTH 1400 0
DWIDTH 14 0
BBX 10 10 2 0
BITMAP
7380
2100
1200
1400
0800
1400
1200
2200
4100
F3C0
ENDCHAR
STARTCHAR 0391
ENCODING 9537
SWIDTH 1400 0
DWIDTH 14 0
BBX 10 9 2 0
BITMAP
0100
0700
0500
0900
1080
1F80
2080
4080
C0C0
ENDCHAR
STARTCHAR 0392
ENCODING 9538
SWIDTH 1400 0
DWIDTH 14 0
BBX 9 10 3 -1
BITMAP
3F80
2080
2080
2300
5E00
4100
4100
8100
C600
3800
ENDCHAR
STARTCHAR 0393
ENCODING 9539
SWIDTH 1400 0
DWIDTH 14 0
BBX 9 9 3 0
BITMAP
1F80
2080
2000
2000
2000
4000
4000
4000
C000
ENDCHAR
STARTCHAR 0394
ENCODING 9540
SWIDTH 1400 0
DWIDTH 14 0
BBX 9 9 2 0
BITMAP
0180
0280
0480
0480
0880
1080
2080
4100
FF00
ENDCHAR
STARTCHAR 0395
ENCODING 9541
SWIDTH 1400 0
DWIDTH 14 0
BBX 10 9 2 0
BITMAP
1FC0
1000
1000
1200
2E00
2200
2000
4080
E300
ENDCHAR
STARTCHAR 0396
ENCODING 9542
SWIDTH 1400 0
DWIDTH 14 0
BBX 9 10 3 0
BITMAP
3F80
2100
4200
0400
0800
1000
2000
4000
8600
FC00
ENDCHAR
STARTCHAR 0397
ENCODING 9543
SWIDTH 1400 0
DWIDTH 14 0
BBX 10 9 2 0
BITMAP
30C0
2080
2080
2080
5F00
4100
4100
8200
C700
ENDCHAR
STARTCHAR 0398
ENCODING 9544
SWIDTH 1400 0
DWIDTH 14 0
BBX 9 11 2 -1
BITMAP
0F00
1080
2080
4080
5E80
5E80
8080
4100
4100
2600
1800
ENDCHAR
STARTCHAR 0399
ENCODING 9545
SWIDTH 1400 0
DWIDTH 14 0
BBX 4 9 5 0
BITMAP
30
20
20
20
40
40
40
80
C0
ENDCHAR
STARTCHAR 039A
ENCODING 9546
SWIDTH 1400 0
DWIDTH 14 0
BBX 12 10 1 0
BITMAP
1EF0
0840
0880
1300
1E00
1200
2100
2100
2080
F3C0
ENDCHAR
STARTCHAR 039B
ENCODING 9547
SWIDTH 1400 0
DWIDTH 14 0
BBX 10 10 2 -1
BITMAP
0700
0500
0900
1100
1100
2100
4100
4100
C380
0040
ENDCHAR
STARTCHAR 039C
ENCODING 9548
SWIDTH 1400 0
DWIDTH 14 0
BBX 12 9 1 0
BITMAP
1870
2860
28A0
2920
4940
4A40
4C40
8C80
C9C0
ENDCHAR
STARTCHAR 039D
ENCODING 9549
SWIDTH 1400 0
DWIDTH 14 0
BBX 12 9 1 0
BITMAP
1830
1840
1440
2440
2280
2280
2280
4100
E100
ENDCHAR
STARTCHAR 039E
ENCODING 9550
SWIDTH 1400 0
DWIDTH 14 0
BBX 10 9 2 0
BITMAP
3FC0
2000
0000
1100
1E00
2000
0000
8100
FF00
ENDCHAR
STARTCHAR 039F
ENCODING 9551
SWIDTH 1400 0
DWIDTH 14 0
BBX 8 11 3 -1
BITMAP
0E
31
41
41
81
81
81
82
84
48
30
ENDCHAR
STARTCHAR 03A0
ENCODING 9552
SWIDTH 1400 0
DWIDTH 14 0
BBX 10 9 2 0
BITMAP
1FC0
1080
2080
2100
2100
4100
4200
4200
C600
ENDCHAR
STARTCHAR 03A1
ENCODING 9553
SWIDTH 1400 0
DWIDTH 14 0
BBX 10 10 2 0
BITMAP
0F80
0840
0840
1040
1080
1F00
2000
2000
2000
F000
ENDCHAR
STARTCHAR 03A3
ENCODING 9554
SWIDTH 1400 0
DWIDTH 14 0
BBX 10 9 2 0
BITMAP
1FC0
0800
0800
0400
0400
0800
1000
6100
FF00
ENDCHAR
STARTCHAR 03A4
ENCODING 9555
SWIDTH 1400 0
DWIDTH 14 0
BBX 9 10 3 0
BITMAP
FF80
8880
1080
1000
1000
2000
2000
2000
4000
F000
ENDCHAR
STARTCHAR 03A5
ENCODING 9556
SWIDTH 1400 0
DWIDTH 14 0
BBX 10 10 2 0
BITMAP
71C0
0E00
0800
0800
1000
1000
1000
2000
2000
F000
ENDCHAR
STARTCHAR 03A6
ENCODING 9557
SWIDTH 1400 0
DWIDTH 14 0
BBX 8 10 3 0
BITMAP
0E
1C
6A
49
89
91
91
92
66
38
ENDCHAR
STARTCHAR 03A7
ENCODING 9558
SWIDTH 1400 0
DWIDTH 14 0
BBX 11 10 1 0
BITMAP
1C60
0840
0880
0500
0600
0A00
1100
2100
4080
E3C0
ENDCHAR
STARTCHAR 03A8
ENCODING 9559
SWIDTH 1400 0
DWIDTH 14 0
BBX 10 10 2 0
BITMAP
6AC0
2540
2900
4900
4900
9300
5200
3C00
2000
7800
ENDCHAR
STARTCHAR 03A9
ENCODING 9560
SWIDTH 1400 0
DWIDTH 14 0
BBX 10 10 2 0
BITMAP
0700
18C0
2040
2040
4040
4080
2080
1700
9880
F780
ENDCHAR
STARTCHAR 03B1
ENCODING 9569
SWIDTH 1400 0
DWIDTH 14 0
BBX 7 6 3 0
BITMAP
3E
46
4C
84
88
74
ENDCHAR
STARTCHAR 03B2
ENCODING 9570
SWIDTH 1400 0
DWIDTH 14 0
BBX 8 12 3 -2
BITMAP
06
19
11
21
22
24
42
42
42
7C
80
80
ENDCHAR
STARTCHAR 03B3
ENCODING 9571
SWIDTH 1400 0
DWIDTH 14 0
BBX 6 8 4 -2
BITMAP
E4
28
30
20
40
40
80
80
ENDCHAR
STARTCHAR 03B4
ENCODING 9572
SWIDTH 1400 0
DWIDTH 14 0
BBX 6 10 4 0
BITMAP
10
28
24
10
70
88
88
88
98
70
ENDCHAR
STARTCHAR 03B5
ENCODING 9573
SWIDTH 1400 0
DWIDTH 14 0
BBX 6 6 4 0
BITMAP
7C
40
70
80
80
78
ENDCHAR
STARTCHAR 03B6
ENCODING 9574
SWIDTH 1400 0
DWIDTH 14 0
BBX 6 12 4 -2
BITMAP
60
4C
58
60
80
80
80
80
70
10
50
60
ENDCHAR
STARTCHAR 03B7
ENCODING 9575
SWIDTH 1400 0
DWIDTH 14 0
BBX 6 8 4 -2
BITMAP
FC
24
48
48
88
10
10
20
ENDCHAR
STARTCHAR 03B8
ENCODING 9576
SWIDTH 1400 0
DWIDTH 14 0
BBX 6 11 4 -1
BITMAP
18
24
44
44
84
FC
88
88
90
A0
40
ENDCHAR
STARTCHAR 03B9
ENCODING 9577
SWIDTH 1400 0
DWIDTH 14 0
BBX 4 6 5 0
BITMAP
20
60
40
80
90
60
ENDCHAR
STARTCHAR 03BA
ENCODING 9578
SWIDTH 1400 0
DWIDTH 14 0
BBX 6 6 4 0
BITMAP
2C
50
60
50
90
98
ENDCHAR
STARTCHAR 03BB
ENCODING 9579
SWIDTH 1400 0
DWIDTH 14 0
BBX 6 9 4 0
BITMAP
0C
04
04
08
38
28
48
88
8C
ENDCHAR
STARTCHAR 03BC
ENCODING 9580
SWIDTH 1400 0
DWIDTH 14 0
BBX 7 8 4 -2
BITMAP
22
26
44
44
88
D4
A0
80
ENDCHAR
STARTCHAR 03BD
ENCODING 9581
SWIDTH 1400 0
DWIDTH 14 0
BBX 6 6 4 0
BITMAP
44
44
48
88
B0
C0
ENDCHAR
STARTCHAR 03BE
ENCODING 9582
SWIDTH 1400 0
DWIDTH 14 0
BBX 7 12 3 -2
BITMAP
0C
10
1E
20
40
3E
60
80
80
78
08
18
ENDCHAR
STARTCHAR 03BF
ENCODING 9583
SWIDTH 1400 0
DWIDTH 14 0
BBX 6 7 4 -1
BITMAP
78
44
84
88
88
90
60
ENDCHAR
STARTCHAR 03C0
ENCODING 9584
SWIDTH 1400 0
DWIDTH 14 0
BBX 8 6 3 0
BITMAP
7F
28
28
48
48
CC
ENDCHAR
STARTCHAR 03C1
ENCODING 9585
SWIDTH 1400 0
DWIDTH 14 0
BBX 6 8 4 -2
BITMAP
18
24
44
44
C4
C8
B0
80
ENDCHAR
STARTCHAR 03C3
ENCODING 9586
SWIDTH 1400 0
DWIDTH 14 0
BBX 7 8 3 -1
BITMAP
0E
38
44
44
84
44
48
30
ENDCHAR
STARTCHAR 03C4
ENCODING 9587
SWIDTH 1400 0
DWIDTH 14 0
BBX 5 6 5 0
BITMAP
F8
40
80
80
80
C0
ENDCHAR
STARTCHAR 03C5
ENCODING 9588
SWIDTH 1400 0
DWIDTH 14 0
BBX 6 7 4 -1
BITMAP
64
44
48
88
90
A0
40
ENDCHAR
STARTCHAR 03C6
ENCODING 9589
SWIDTH 1400 0
DWIDTH 14 0
BBX 8 8 3 -2
BITMAP
16
6A
91
92
92
7C
20
20
ENDCHAR
STARTCHAR 03C7
ENCODING 9590
SWIDTH 1400 0
DWIDTH 14 0
BBX 8 8 3 -2
BITMAP
31
0A
0C
08
18
28
48
C6
ENDCHAR
STARTCHAR 03C8
ENCODING 9591
SWIDTH 1400 0
DWIDTH 14 0
BBX 7 12 3 -2
BITMAP
04
04
04
08
2A
52
92
92
64
38
20
60
ENDCHAR
STARTCHAR 03C9
ENCODING 9592
SWIDTH 1400 0
DWIDTH 14 0
BBX 9 7 2 -1
BITMAP
2080
4480
4C80
8880
5100
7A00
0400
ENDCHAR
STARTCHAR 2500
ENCODING 9761
SWIDTH 1400 0
DWIDTH 14 0
BBX 14 1 0 4
BITMAP
FFFC
ENDCHAR
STARTCHAR 2502
ENCODING 9762
SWIDTH 1400 0
DWIDTH 14 0
BBX 1 14 6 -3
BITMAP
80
80
80
80
80
80
80
80
80
80
80
80
80
80
ENDCHAR
STARTCHAR 250C
ENCODING 9763
SWIDTH 1400 0
DWIDTH 14 0
BBX 8 8 6 -3
BITMAP
FF
80
80
80
80
80
80
80
ENDCHAR
STARTCHAR 2510
ENCODING 9764
SWIDTH 1400 0
DWIDTH 14 0
BBX 8 8 -1 -3
BITMAP
FF
01
01
01
01
01
01
01
ENDCHAR
STARTCHAR 2518
ENCODING 9765
SWIDTH 1400 0
DWIDTH 14 0
BBX 8 7 -1 4
BITMAP
01
01
01
01
01
01
FF
ENDCHAR
STARTCHAR 2514
ENCODING 9766
SWIDTH 1400 0
DWIDTH 14 0
BBX 8 7 6 4
BITMAP
80
80
80
80
80
80
FF
ENDCHAR
STARTCHAR 251C
ENCODING 9767
SWIDTH 1400 0
DWIDTH 14 0
BBX 8 14 6 -3
BITMAP
80
80
80
80
80
80
FF
80
80
80
80
80
80
80
ENDCHAR
STARTCHAR 252C
ENCODING 9768
SWIDTH 1400 0
DWIDTH 14 0
BBX 15 8 -1 -3
BITMAP
FFFE
0100
0100
0100
0100
0100
0100
0100
ENDCHAR
STARTCHAR 2524
ENCODING 9769
SWIDTH 1400 0
DWIDTH 14 0
BBX 8 14 -1 -3
BITMAP
01
01
01
01
01
01
FF
01
01
01
01
01
01
01
ENDCHAR
STARTCHAR 2534
ENCODING 9770
SWIDTH 1400 0
DWIDTH 14 0
BBX 15 7 -1 4
BITMAP
0100
0100
0100
0100
0100
0100
FFFE
ENDCHAR
STARTCHAR 253C
ENCODING 9771
SWIDTH 1400 0
DWIDTH 14 0
BBX 15 14 -1 -3
BITMAP
0100
0100
0100
0100
0100
0100
FFFE
0100
0100
0100
0100
0100
0100
0100
ENDCHAR
STARTCHAR 2501
ENCODING 9772
SWIDTH 1400 0
DWIDTH 14 0
BBX 14 1 0 4
BITMAP
FFFC
ENDCHAR
STARTCHAR 2503
ENCODING 9773
SWIDTH 1400 0
DWIDTH 14 0
BBX 1 14 6 -3
BITMAP
80
80
80
80
80
80
80
80
80
80
80
80
80
80
ENDCHAR
STARTCHAR 250F
ENCODING 9774
SWIDTH 1400 0
DWIDTH 14 0
BBX 7 8 6 -3
BITMAP
FE
80
80
80
80
80
80
80
ENDCHAR
STARTCHAR 2513
ENCODING 9775
SWIDTH 1400 0
DWIDTH 14 0
BBX 7 8 0 -3
BITMAP
FE
02
02
02
02
02
02
02
ENDCHAR
STARTCHAR 251B
ENCODING 9776
SWIDTH 1400 0
DWIDTH 14 0
BBX 7 7 0 4
BITMAP
02
02
02
02
02
02
FE
ENDCHAR
STARTCHAR 2517
ENCODING 9777
SWIDTH 1400 0
DWIDTH 14 0
BBX 7 7 6 4
BITMAP
80
80
80
80
80
80
FE
ENDCHAR
STARTCHAR 2523
ENCODING 9778
SWIDTH 1400 0
DWIDTH 14 0
BBX 7 14 6 -3
BITMAP
80
80
80
80
80
80
FE
80
80
80
80
80
80
80
ENDCHAR
STARTCHAR 2533
ENCODING 9779
SWIDTH 1400 0
DWIDTH 14 0
BBX 13 8 0 -3
BITMAP
FFF8
0200
0200
0200
0200
0200
0200
0200
ENDCHAR
STARTCHAR 252B
ENCODING 9780
SWIDTH 1400 0
DWIDTH 14 0
BBX 7 14 0 -3
BITMAP
02
02
02
02
02
02
FE
02
02
02
02
02
02
02
ENDCHAR
STARTCHAR 253B
ENCODING 9781
SWIDTH 1400 0
DWIDTH 14 0
BBX 13 7 1 4
BITMAP
0200
0200
0200
0200
0200
0200
FFF8
ENDCHAR
STARTCHAR 254B
ENCODING 9782
SWIDTH 1400 0
DWIDTH 14 0
BBX 13 14 1 -3
BITMAP
0200
0200
0200
0200
0200
0200
FFF8
0200
0200
0200
0200
0200
0200
0200
ENDCHAR
STARTCHAR 2520
ENCODING 9783
SWIDTH 1400 0
DWIDTH 14 0
BBX 7 14 7 -3
BITMAP
80
80
80
80
80
80
FE
80
80
80
80
80
80
80
ENDCHAR
STARTCHAR 252F
ENCODING 9784
SWIDTH 1400 0
DWIDTH 14 0
BBX 15 8 -1 -3
BITMAP
FFFE
0100
0100
0100
0100
0100
0100
0100
ENDCHAR
STARTCHAR 2528
ENCODING 9785
SWIDTH 1400 0
DWIDTH 14 0
BBX 7 14 1 -3
BITMAP
02
02
02
02
02
02
FE
02
02
02
02
02
02
02
ENDCHAR
STARTCHAR 2537
ENCODING 9786
SWIDTH 1400 0
DWIDTH 14 0
BBX 15 7 -1 4
BITMAP
0100
0100
0100
0100
0100
0100
FFFE
ENDCHAR
STARTCHAR 253F
ENCODING 9787
SWIDTH 1400 0
DWIDTH 14 0
BBX 15 14 -1 -3
BITMAP
0100
0100
0100
0100
0100
0100
FFFE
0100
0100
0100
0100
0100
0100
0100
ENDCHAR
STARTCHAR 251D
ENCODING 9788
SWIDTH 1400 0
DWIDTH 14 0
BBX 8 14 6 -3
BITMAP
80
80
80
80
80
80
FF
80
80
80
80
80
80
80
ENDCHAR
STARTCHAR 2530
ENCODING 9789
SWIDTH 1400 0
DWIDTH 14 0
BBX 13 8 0 -3
BITMAP
FFF8
0200
0200
0200
0200
0200
0200
0200
ENDCHAR
STARTCHAR 2525
ENCODING 9790
SWIDTH 1400 0
DWIDTH 14 0
BBX 8 14 -1 -3
BITMAP
01
01
01
01
01
01
FF
01
01
01
01
01
01
01
ENDCHAR
STARTCHAR 2538
ENCODING 9791
SWIDTH 1400 0
DWIDTH 14 0
BBX 13 7 0 4
BITMAP
0200
0200
0200
0200
0200
0200
FFF8
ENDCHAR
STARTCHAR 2542
ENCODING 9792
SWIDTH 1400 0
DWIDTH 14 0
BBX 13 14 0 -3
BITMAP
0200
0200
0200
0200
0200
0200
FFF8
0200
0200
0200
0200
0200
0200
0200
ENDCHAR
STARTCHAR 2512
ENCODING 9793
SWIDTH 1400 0
DWIDTH 14 0
BBX 7 8 0 -3
BITMAP
FE
02
02
02
02
02
02
02
ENDCHAR
STARTCHAR 2511
ENCODING 9794
SWIDTH 1400 0
DWIDTH 14 0
BBX 8 8 -1 -3
BITMAP
FF
01
01
01
01
01
01
01
ENDCHAR
STARTCHAR 251A
ENCODING 9795
SWIDTH 1400 0
DWIDTH 14 0
BBX 7 7 1 4
BITMAP
02
02
02
02
02
02
FE
ENDCHAR
STARTCHAR 2519
ENCODING 9796
SWIDTH 1400 0
DWIDTH 14 0
BBX 8 7 0 4
BITMAP
01
01
01
01
01
01
FF
ENDCHAR
STARTCHAR 2516
ENCODING 9797
SWIDTH 1400 0
DWIDTH 14 0
BBX 7 7 6 4
BITMAP
80
80
80
80
80
80
FE
ENDCHAR
STARTCHAR 2515
ENCODING 9798
SWIDTH 1400 0
DWIDTH 14 0
BBX 8 7 6 4
BITMAP
80
80
80
80
80
80
FF
ENDCHAR
STARTCHAR 250E
ENCODING 9799
SWIDTH 1400 0
DWIDTH 14 0
BBX 7 8 7 -3
BITMAP
FE
80
80
80
80
80
80
80
ENDCHAR
STARTCHAR 250D
ENCODING 9800
SWIDTH 1400 0
DWIDTH 14 0
BBX 8 8 6 -3
BITMAP
FF
80
80
80
80
80
80
80
ENDCHAR
STARTCHAR 251E
ENCODING 9801
SWIDTH 1400 0
DWIDTH 14 0
BBX 8 14 6 -3
BITMAP
40
40
40
40
40
40
7F
80
80
80
80
80
80
80
ENDCHAR
STARTCHAR 251F
ENCODING 9802
SWIDTH 1400 0
DWIDTH 14 0
BBX 7 14 7 -3
BITMAP
80
80
80
80
80
80
FE
80
80
80
80
80
80
80
ENDCHAR
STARTCHAR 2521
ENCODING 9803
SWIDTH 1400 0
DWIDTH 14 0
BBX 8 14 6 -3
BITMAP
40
40
40
40
40
40
7F
80
80
80
80
80
80
80
ENDCHAR
STARTCHAR 2522
ENCODING 9804
SWIDTH 1400 0
DWIDTH 14 0
BBX 7 14 7 -3
BITMAP
80
80
80
80
80
80
FE
80
80
80
80
80
80
80
ENDCHAR
STARTCHAR 2526
ENCODING 9805
SWIDTH 1400 0
DWIDTH 14 0
BBX 7 14 0 -3
BITMAP
02
02
02
02
02
02
FE
02
02
02
02
02
02
02
ENDCHAR
STARTCHAR 2527
ENCODING 9806
SWIDTH 1400 0
DWIDTH 14 0
BBX 7 14 1 -3
BITMAP
02
02
02
02
02
02
FE
02
02
02
02
02
02
02
ENDCHAR
STARTCHAR 2529
ENCODING 9807
SWIDTH 1400 0
DWIDTH 14 0
BBX 7 14 1 -3
BITMAP
02
02
02
02
02
02
FE
02
02
02
02
02
02
02
ENDCHAR
STARTCHAR 252A
ENCODING 9808
SWIDTH 1400 0
DWIDTH 14 0
BBX 7 14 1 -3
BITMAP
04
04
04
04
04
04
FC
02
02
02
02
02
02
02
ENDCHAR
STARTCHAR 252D
ENCODING 9809
SWIDTH 1400 0
DWIDTH 14 0
BBX 15 8 -1 -3
BITMAP
FFFE
0100
0100
0100
0100
0100
0100
0100
ENDCHAR
STARTCHAR 252E
ENCODING 9810
SWIDTH 1400 0
DWIDTH 14 0
BBX 15 8 -1 -3
BITMAP
FFFE
0100
0100
0100
0100
0100
0100
0100
ENDCHAR
STARTCHAR 2531
ENCODING 9811
SWIDTH 1400 0
DWIDTH 14 0
BBX 13 8 0 -3
BITMAP
FFF8
0200
0200
0200
0200
0200
0200
0200
ENDCHAR
STARTCHAR 2532
ENCODING 9812
SWIDTH 1400 0
DWIDTH 14 0
BBX 13 8 0 -3
BITMAP
FFF8
0200
0200
0200
0200
0200
0200
0200
ENDCHAR
STARTCHAR 2535
ENCODING 9813
SWIDTH 1400 0
DWIDTH 14 0
BBX 15 7 -1 4
BITMAP
0100
0100
0100
0100
0100
0100
FFFE
ENDCHAR
STARTCHAR 2536
ENCODING 9814
SWIDTH 1400 0
DWIDTH 14 0
BBX 15 7 -1 4
BITMAP
0100
0100
0100
0100
0100
0100
FFFE
ENDCHAR
STARTCHAR 2539
ENCODING 9815
SWIDTH 1400 0
DWIDTH 14 0
BBX 13 7 0 4
BITMAP
0200
0200
0200
0200
0200
0200
FFF8
ENDCHAR
STARTCHAR 253A
ENCODING 9816
SWIDTH 1400 0
DWIDTH 14 0
BBX 13 7 0 4
BITMAP
0200
0200
0200
0200
0200
0200
FFF8
ENDCHAR
STARTCHAR 253D
ENCODING 9817
SWIDTH 1400 0
DWIDTH 14 0
BBX 15 14 -1 -3
BITMAP
0100
0100
0100
0100
0100
0100
FFFE
0100
0100
0100
0100
0100
0100
0100
ENDCHAR
STARTCHAR 253E
ENCODING 9818
SWIDTH 1400 0
DWIDTH 14 0
BBX 15 14 -1 -3
BITMAP
0100
0100
0100
0100
0100
0100
FFFE
0100
0100
0100
0100
0100
0100
0100
ENDCHAR
STARTCHAR 2540
ENCODING 9819
SWIDTH 1400 0
DWIDTH 14 0
BBX 13 14 0 -3
BITMAP
0200
0200
0200
0200
0200
0200
FFF8
0200
0200
0200
0200
0200
0200
0200
ENDCHAR
STARTCHAR 2541
ENCODING 9820
SWIDTH 1400 0
DWIDTH 14 0
BBX 13 14 0 -3
BITMAP
0200
0200
0200
0200
0200
0200
FFF8
0200
0200
0200
0200
0200
0200
0200
ENDCHAR
STARTCHAR 2543
ENCODING 9821
SWIDTH 1400 0
DWIDTH 14 0
BBX 13 14 1 -3
BITMAP
0200
0200
0200
0200
0200
0200
FFF8
0200
0200
0200
0200
0200
0200
0200
ENDCHAR
STARTCHAR 2544
ENCODING 9822
SWIDTH 1400 0
DWIDTH 14 0
BBX 13 14 0 -3
BITMAP
0200
0200
0200
0200
0200
0200
FFF8
0200
0200
0200
0200
0200
0200
0200
ENDCHAR
STARTCHAR 2545
ENCODING 9823
SWIDTH 1400 0
DWIDTH 14 0
BBX 13 14 0 -3
BITMAP
0200
0200
0200
0200
0200
0200
FFF8
0200
0200
0200
0200
0200
0200
0200
ENDCHAR
STARTCHAR 2546
ENCODING 9824
SWIDTH 1400 0
DWIDTH 14 0
BBX 13 14 0 -3
BITMAP
0200
0200
0200
0200
0200
0200
FFF8
0200
0200
0200
0200
0200
0200
0200
ENDCHAR
STARTCHAR 2547
ENCODING 9825
SWIDTH 1400 0
DWIDTH 14 0
BBX 13 14 1 -3
BITMAP
0200
0200
0200
0200
0200
0200
FFF8
0400
0400
0400
0400
0400
0400
0400
ENDCHAR
STARTCHAR 2548
ENCODING 9826
SWIDTH 1400 0
DWIDTH 14 0
BBX 13 14 1 -3
BITMAP
0200
0200
0200
0200
0200
0200
FFF8
0200
0200
0200
0200
0200
0200
0200
ENDCHAR
STARTCHAR 2549
ENCODING 9827
SWIDTH 1400 0
DWIDTH 14 0
BBX 13 14 0 -3
BITMAP
0200
0200
0200
0200
0200
0200
FFF8
0200
0200
0200
0200
0200
0200
0200
ENDCHAR
STARTCHAR 254A
ENCODING 9828
SWIDTH 1400 0
DWIDTH 14 0
BBX 13 14 0 -3
BITMAP
0200
0200
0200
0200
0200
0200
FFF8
0200
0200
0200
0200
0200
0200
0200
ENDCHAR
STARTCHAR 3395
ENCODING 10017
SWIDTH 1400 0
DWIDTH 14 0
BBX 13 12 1 -2
BITMAP
0030
0030
0050
0050
2250
2260
4440
44C0
8848
4E30
B000
8000
ENDCHAR
STARTCHAR 3396
ENCODING 10018
SWIDTH 1400 0
DWIDTH 14 0
BBX 12 11 1 -1
BITMAP
0020
0060
00A0
00A0
FCA0
94C0
9480
9480
9790
94A0
0040
ENDCHAR
STARTCHAR 3397
ENCODING 10019
SWIDTH 1400 0
DWIDTH 14 0
BBX 12 11 1 -1
BITMAP
0C60
0460
04A0
04A0
74A0
8CC0
8480
8480
8790
4C60
3000
ENDCHAR
STARTCHAR 2113
ENCODING 10020
SWIDTH 1400 0
DWIDTH 14 0
BBX 5 10 5 0
BITMAP
30
30
50
50
50
60
40
C0
48
30
ENDCHAR
STARTCHAR 3398
ENCODING 10021
SWIDTH 1400 0
DWIDTH 14 0
BBX 11 11 2 -1
BITMAP
0040
80C0
8140
8140
9940
9180
A100
D100
8F20
8940
0080
ENDCHAR
STARTCHAR 33C4
ENCODING 10022
SWIDTH 1400 0
DWIDTH 14 0
BBX 13 7 1 -1
BITMAP
38F0
CD18
8100
8100
8100
4090
3060
ENDCHAR
STARTCHAR 33A3
ENCODING 10023
SWIDTH 1400 0
DWIDTH 14 0
BBX 12 10 1 0
BITMAP
0010
0010
0010
0000
FFF0
A650
A650
A650
A650
A650
ENDCHAR
STARTCHAR 33A4
ENCODING 10024
SWIDTH 1400 0
DWIDTH 14 0
BBX 12 12 1 -1
BITMAP
0020
0010
0020
0050
0020
73E0
82A0
82A0
82A0
82A0
52A0
2000
ENDCHAR
STARTCHAR 33A5
ENCODING 10025
SWIDTH 1400 0
DWIDTH 14 0
BBX 9 10 3 0
BITMAP
0080
0180
0080
0180
F700
8900
8900
8900
8900
8900
ENDCHAR
STARTCHAR 33A6
ENCODING 10026
SWIDTH 1400 0
DWIDTH 14 0
BBX 12 11 1 0
BITMAP
0010
4020
4010
4010
4820
53F0
5290
7290
5A90
4A90
CE90
ENDCHAR
STARTCHAR 3399
ENCODING 10027
SWIDTH 1400 0
DWIDTH 14 0
BBX 11 10 1 0
BITMAP
7000
4000
4000
F000
47E0
4520
4520
4520
4520
4520
ENDCHAR
STARTCHAR 339A
ENCODING 10028
SWIDTH 1400 0
DWIDTH 14 0
BBX 12 6 1 0
BITMAP
BBF0
CA50
8A50
8A50
8A50
8A50
ENDCHAR
STARTCHAR 339B
ENCODING 10029
SWIDTH 1400 0
DWIDTH 14 0
BBX 14 9 0 -3
BITMAP
12FC
26A4
24A4
44A4
48A4
4EA4
7000
8000
8000
ENDCHAR
STARTCHAR 339C
ENCODING 10030
SWIDTH 1400 0
DWIDTH 14 0
BBX 12 6 1 0
BITMAP
F9F0
A950
A950
A950
A950
A970
ENDCHAR
STARTCHAR 339D
ENCODING 10031
SWIDTH 1400 0
DWIDTH 14 0
BBX 13 7 0 -1
BITMAP
79F8
4948
8148
8148
8148
4948
3000
ENDCHAR
STARTCHAR 339E
ENCODING 10032
SWIDTH 1400 0
DWIDTH 14 0
BBX 12 9 1 0
BITMAP
8000
8000
8000
93F0
A290
A290
E290
9290
9290
ENDCHAR
STARTCHAR 339F
ENCODING 10033
SWIDTH 1400 0
DWIDTH 14 0
BBX 12 11 1 0
BITMAP
0030
0010
0020
0030
0000
FBF0
AA50
AA50
AA50
AA50
AA50
ENDCHAR
STARTCHAR 33A0
ENCODING 10034
SWIDTH 1400 0
DWIDTH 14 0
BBX 12 12 1 -1
BITMAP
0020
0010
0020
0050
0020
7BE0
82A0
82A0
82A0
82A0
52A0
2000
ENDCHAR
STARTCHAR 33A1
ENCODING 10035
SWIDTH 1400 0
DWIDTH 14 0
BBX 9 11 3 0
BITMAP
0100
0080
0100
0200
0100
F700
8900
8900
8900
8900
8900
ENDCHAR
STARTCHAR 33A2
ENCODING 10036
SWIDTH 1400 0
DWIDTH 14 0
BBX 12 11 1 0
BITMAP
0060
0010
8060
8070
8000
93E0
A2A0
E2A0
A2A0
92A0
92A0
ENDCHAR
STARTCHAR 33CA
ENCODING 10037
SWIDTH 1400 0
DWIDTH 14 0
BBX 13 9 0 0
BITMAP
4000
4000
40E0
5910
6590
44F0
4510
4510
ECF8
ENDCHAR
STARTCHAR 338D
ENCODING 10038
SWIDTH 1400 0
DWIDTH 14 0
BBX 14 10 0 -3
BITMAP
002C
11D0
2290
2290
22E0
4480
4578
7A88
8088
8070
ENDCHAR
STARTCHAR 338E
ENCODING 10039
SWIDTH 1400 0
DWIDTH 14 0
BBX 13 9 1 -3
BITMAP
FDF8
A520
A520
A5C0
A500
A4E0
0110
0210
01E0
ENDCHAR
STARTCHAR 338F
ENCODING 10040
SWIDTH 1400 0
DWIDTH 14 0
BBX 13 12 1 -3
BITMAP
8000
8000
8058
81A8
8120
B120
A1C0
D200
89F0
0318
0210
01E0
ENDCHAR
STARTCHAR 33CF
ENCODING 10041
SWIDTH 1400 0
DWIDTH 14 0
BBX 12 10 1 0
BITMAP
C000
4000
4000
4080
4CE0
4880
5080
6880
4890
4460
ENDCHAR
STARTCHAR 3388
ENCODING 10042
SWIDTH 1400 0
DWIDTH 14 0
BBX 13 10 0 -1
BITMAP
0008
0008
0008
7BC8
8A48
81C8
8648
8448
4AC8
3100
ENDCHAR
STARTCHAR 3389
ENCODING 10043
SWIDTH 1400 0
DWIDTH 14 0
BBX 13 10 1 -1
BITMAP
8000
8010
8010
8FD0
E830
D070
B1B0
A930
9B68
0480
ENDCHAR
STARTCHAR 33C8
ENCODING 10044
SWIDTH 1400 0
DWIDTH 14 0
BBX 14 10 0 -1
BITMAP
04F8
0484
0488
7488
8CF8
8484
8484
8484
4C88
3070
ENDCHAR
STARTCHAR 33A7
ENCODING 10045
SWIDTH 1400 0
DWIDTH 14 0
BBX 13 13 0 -3
BITMAP
F600
5A00
5218
5220
5240
5280
01F0
0280
04C0
0830
1008
20D0
4020
ENDCHAR
STARTCHAR 33A8
ENCODING 10046
SWIDTH 1400 0
DWIDTH 14 0
BBX 13 13 1 -3
BITMAP
F800
A830
A840
A880
A918
AA10
05E0
0A50
1180
2040
4020
0140
0080
ENDCHAR
STARTCHAR 33B0
ENCODING 10047
SWIDTH 1400 0
DWIDTH 14 0
BBX 12 10 1 -3
BITMAP
D800
6DE0
4500
44C0
4420
4410
69A0
5040
4000
4000
ENDCHAR
STARTCHAR 33B1
ENCODING 10048
SWIDTH 1400 0
DWIDTH 14 0
BBX 10 7 2 -1
BITMAP
FBC0
8A00
8B00
88C0
8840
8A40
0180
ENDCHAR
STARTCHAR 33B2
ENCODING 10049
SWIDTH 1400 0
DWIDTH 14 0
BBX 12 8 1 -2
BITMAP
32F0
2280
26C0
4430
4410
4E90
B060
8000
ENDCHAR
STARTCHAR 33B3
ENCODING 10050
SWIDTH 1400 0
DWIDTH 14 0
BBX 11 8 2 -1
BITMAP
0080
FD60
A500
A480
A460
A420
A520
00C0
ENDCHAR
STARTCHAR 33B4
ENCODING 10051
SWIDTH 1400 0
DWIDTH 14 0
BBX 13 13 0 -3
BITMAP
0318
0208
0110
DD10
6710
42A0
42A0
42A0
4240
6440
5800
4000
C000
ENDCHAR
STARTCHAR 33B5
ENCODING 10052
SWIDTH 1400 0
DWIDTH 14 0
BBX 12 9 1 0
BITMAP
0010
0220
0220
BA20
C940
8940
8940
8880
8880
ENDCHAR
STARTCHAR 33B6
ENCODING 10053
SWIDTH 1400 0
DWIDTH 14 0
BBX 13 11 0 -2
BITMAP
0108
0108
0090
1090
2290
2260
4460
4420
6E20
5000
8000
ENDCHAR
STARTCHAR 33B7
ENCODING 10054
SWIDTH 1400 0
DWIDTH 14 0
BBX 12 9 1 0
BITMAP
0210
0210
0220
FD20
A520
A4C0
A4C0
A4C0
A400
ENDCHAR
STARTCHAR 33B8
ENCODING 10055
SWIDTH 1400 0
DWIDTH 14 0
BBX 12 9 1 0
BITMAP
8210
8220
8120
9920
9140
A0C0
D0C0
90C0
8800
ENDCHAR
STARTCHAR 33B9
ENCODING 10056
SWIDTH 1400 0
DWIDTH 14 0
BBX 12 9 1 0
BITMAP
8400
8C90
CC90
D4A0
D4A0
B460
B460
A440
8400
ENDCHAR
STARTCHAR 3380
ENCODING 10057
SWIDTH 1400 0
DWIDTH 14 0
BBX 12 12 0 -3
BITMAP
0040
00C0
D8A0
64A0
4520
44F0
4510
4510
7D10
4000
4000
4000
ENDCHAR
STARTCHAR 3381
ENCODING 10058
SWIDTH 1400 0
DWIDTH 14 0
BBX 12 9 1 0
BITMAP
0040
0040
00C0
F920
8920
88E0
8920
8A10
8B10
ENDCHAR
STARTCHAR 3382
ENCODING 10059
SWIDTH 1400 0
DWIDTH 14 0
BBX 13 12 0 -3
BITMAP
0020
0060
0060
1050
2290
2270
2488
4488
4E08
7000
8000
8000
ENDCHAR
STARTCHAR 3383
ENCODING 10060
SWIDTH 1400 0
DWIDTH 14 0
BBX 12 9 1 0
BITMAP
0040
0040
00C0
F940
A920
A9E0
A920
AA10
AA10
ENDCHAR
STARTCHAR 3384
ENCODING 10061
SWIDTH 1400 0
DWIDTH 14 0
BBX 12 9 1 0
BITMAP
8040
8040
80C0
88A0
9120
A0E0
E120
9210
8810
ENDCHAR
STARTCHAR 33BA
ENCODING 10062
SWIDTH 1400 0
DWIDTH 14 0
BBX 14 13 0 -3
BITMAP
0ECC
0448
0448
0248
FAA8
46A8
46B0
4510
4510
6D10
5000
4000
4000
ENDCHAR
STARTCHAR 33BB
ENCODING 10063
SWIDTH 1400 0
DWIDTH 14 0
BBX 12 9 1 0
BITMAP
0880
0890
0590
F550
9560
9360
9220
9220
9220
ENDCHAR
STARTCHAR 33BC
ENCODING 10064
SWIDTH 1400 0
DWIDTH 14 0
BBX 13 11 0 -2
BITMAP
0248
0128
0168
1368
25A8
25B0
4590
4890
4E90
B000
8000
ENDCHAR
STARTCHAR 33BD
ENCODING 10065
SWIDTH 1400 0
DWIDTH 14 0
BBX 12 9 1 0
BITMAP
0480
0490
02D0
FB60
AB60
AB60
AB20
A920
A920
ENDCHAR
STARTCHAR 33BE
ENCODING 10066
SWIDTH 1400 0
DWIDTH 14 0
BBX 12 9 1 0
BITMAP
8480
8490
82D0
8B60
B360
A360
E120
9120
8920
ENDCHAR
STARTCHAR 33BF
ENCODING 10067
SWIDTH 1400 0
DWIDTH 14 0
BBX 13 9 1 0
BITMAP
8948
8950
8970
D9B0
E9B0
E9B0
E8A0
A8A0
A800
ENDCHAR
STARTCHAR 3390
ENCODING 10068
SWIDTH 1400 0
DWIDTH 14 0
BBX 13 9 1 0
BITMAP
8400
8400
8400
84F0
FD30
8420
8440
8488
8530
ENDCHAR
STARTCHAR 3391
ENCODING 10069
SWIDTH 1400 0
DWIDTH 14 0
BBX 14 10 0 0
BITMAP
47C0
4280
4280
4280
4ABC
53A8
6290
5290
52A4
CAB8
ENDCHAR
STARTCHAR 3392
ENCODING 10070
SWIDTH 1400 0
DWIDTH 14 0
BBX 14 9 0 0
BITMAP
4A40
4A40
4A40
5A5C
DBC8
AA48
AA50
AA50
2A6C
ENDCHAR
STARTCHAR 3393
ENCODING 10071
SWIDTH 1400 0
DWIDTH 14 0
BBX 14 11 0 -1
BITMAP
0480
F480
8480
8480
87BC
84A8
9488
9490
9490
94E4
6038
ENDCHAR
STARTCHAR 3394
ENCODING 10072
SWIDTH 1400 0
DWIDTH 14 0
BBX 14 10 0 0
BITMAP
FE80
2480
2480
2480
24BC
27A8
2490
2490
24A4
26B8
ENDCHAR
STARTCHAR 2126
ENCODING 10073
SWIDTH 1400 0
DWIDTH 14 0
BBX 10 10 2 0
BITMAP
1E00
2380
4080
40C0
4080
4080
2100
9E40
8C40
FFC0
ENDCHAR
STARTCHAR 33C0
ENCODING 10074
SWIDTH 1400 0
DWIDTH 14 0
BBX 14 10 0 0
BITMAP
0070
0188
8104
8204
9D04
9104
9088
7074
8A64
05DC
ENDCHAR
STARTCHAR 33C1
ENCODING 10075
SWIDTH 1400 0
DWIDTH 14 0
BBX 13 10 1 0
BITMAP
00E0
8910
8A08
8A08
DA08
EA08
E910
EAA8
AAA8
ABB8
ENDCHAR
STARTCHAR 338A
ENCODING 10076
SWIDTH 1400 0
DWIDTH 14 0
BBX 12 13 1 -3
BITMAP
03F0
0110
0100
0120
F9E0
4520
4500
4500
4500
6F80
5000
4000
4000
ENDCHAR
STARTCHAR 338B
ENCODING 10077
SWIDTH 1400 0
DWIDTH 14 0
BBX 12 9 1 0
BITMAP
01F0
0100
0100
B920
C9E0
8900
8900
8900
8900
ENDCHAR
STARTCHAR 338C
ENCODING 10078
SWIDTH 1400 0
DWIDTH 14 0
BBX 12 11 1 -2
BITMAP
01F0
0100
0100
2320
25E0
4500
4500
8900
4D00
B000
8000
ENDCHAR
STARTCHAR 33D6
ENCODING 10079
SWIDTH 1400 0
DWIDTH 14 0
BBX 12 10 1 -1
BITMAP
0010
0010
F9D0
AA50
AC30
AC30
AC30
AC30
0250
01C0
ENDCHAR
STARTCHAR 33C5
ENCODING 10080
SWIDTH 1400 0
DWIDTH 14 0
BBX 13 10 0 -1
BITMAP
0008
0008
0008
7868
4098
8108
8108
4508
4898
3060
ENDCHAR
STARTCHAR 33AD
ENCODING 10081
SWIDTH 1400 0
DWIDTH 14 0
BBX 12 8 1 0
BITMAP
0010
0010
FE70
8290
8E90
9290
9290
8E70
ENDCHAR
STARTCHAR 33AE
ENCODING 10082
SWIDTH 1400 0
DWIDTH 14 0
BBX 12 12 1 -2
BITMAP
0080
0080
FF80
9C80
EC80
FD80
0220
00C0
0370
0C20
3010
4030
ENDCHAR
STARTCHAR 33AF
ENCODING 10083
SWIDTH 1400 0
DWIDTH 14 0
BBX 12 13 1 -3
BITMAP
0080
0080
FF80
9C80
EC80
FD80
0220
00D0
03F0
0C80
3060
C020
0040
ENDCHAR
STARTCHAR 33DB
ENCODING 10084
SWIDTH 1400 0
DWIDTH 14 0
BBX 10 7 2 0
BITMAP
4000
B3C0
8200
C200
3200
1200
9200
ENDCHAR
STARTCHAR 33A9
ENCODING 10085
SWIDTH 1400 0
DWIDTH 14 0
BBX 11 10 1 -1
BITMAP
F800
8400
8400
87E0
8B20
F0E0
8320
8220
8260
0180
ENDCHAR
STARTCHAR 33AA
ENCODING 10086
SWIDTH 1400 0
DWIDTH 14 0
BBX 12 10 1 -1
BITMAP
8700
8480
8480
B4F0
C550
C630
C450
A490
A490
0060
ENDCHAR
STARTCHAR 33AB
ENCODING 10087
SWIDTH 1400 0
DWIDTH 14 0
BBX 13 11 0 -1
BITMAP
CB80
4A40
5A40
5A40
5A78
EA68
AB98
AA28
AA48
2A38
0300
ENDCHAR
STARTCHAR 33AC
ENCODING 10088
SWIDTH 1400 0
DWIDTH 14 0
BBX 13 11 0 -1
BITMAP
6780
94C0
9440
8440
84F8
8488
9718
9468
9048
5058
2020
ENDCHAR
STARTCHAR 33DD
ENCODING 10089
SWIDTH 1400 0
DWIDTH 14 0
BBX 13 10 1 -1
BITMAP
9080
9480
9480
94B0
78C8
7888
5888
4888
48D0
0020
ENDCHAR
STARTCHAR 33D0
ENCODING 10090
SWIDTH 1400 0
DWIDTH 14 0
BBX 11 9 1 0
BITMAP
C000
4000
4040
47A0
4520
4520
4520
4520
45E0
ENDCHAR
STARTCHAR 33D3
ENCODING 10091
SWIDTH 1400 0
DWIDTH 14 0
BBX 10 9 1 0
BITMAP
C000
4000
4000
4440
4280
4100
4180
4680
4440
ENDCHAR
STARTCHAR 33C3
ENCODING 10092
SWIDTH 1400 0
DWIDTH 14 0
BBX 13 12 1 -3
BITMAP
F800
8400
8400
89F0
F910
8610
8610
8510
99B0
6050
0010
0038
ENDCHAR
STARTCHAR 33C9
ENCODING 10093
SWIDTH 1400 0
DWIDTH 14 0
BBX 12 13 1 -3
BITMAP
3800
4800
8800
8000
8330
8120
8920
88C0
88C0
58C0
2080
0080
0300
ENDCHAR
STARTCHAR 33DC
ENCODING 10094
SWIDTH 1400 0
DWIDTH 14 0
BBX 13 11 0 -1
BITMAP
7800
8400
8000
8000
7108
0C90
0290
0260
8260
6C00
1000
ENDCHAR
STARTCHAR 33C6
ENCODING 10095
SWIDTH 1400 0
DWIDTH 14 0
BBX 14 12 0 -2
BITMAP
3000
4900
8100
8200
8400
4800
3A00
12BC
2328
42B8
4038
0028
ENDCHAR
STARTCHAR 00C6
ENCODING 10273
SWIDTH 1400 0
DWIDTH 14 0
BBX 14 10 0 0
BITMAP
03F8
0308
0504
0900
0920
11E0
1F20
2104
4108
C1F8
ENDCHAR
STARTCHAR 00D0
ENCODING 10274
SWIDTH 1400 0
DWIDTH 14 0
BBX 10 10 2 0
BITMAP
7E00
2180
2080
2040
2040
F840
2040
2080
2180
3E00
ENDCHAR
STARTCHAR 00AA
ENCODING 10275
SWIDTH 1400 0
DWIDTH 14 0
BBX 6 9 4 0
BITMAP
F8
08
38
C8
88
88
FC
00
FC
ENDCHAR
STARTCHAR 0126
ENCODING 10276
SWIDTH 1400 0
DWIDTH 14 0
BBX 10 10 2 0
BITMAP
FFC0
2100
FFC0
2100
2100
3F00
2100
2100
2100
FFC0
ENDCHAR
STARTCHAR 0132
ENCODING 10278
SWIDTH 1400 0
DWIDTH 14 0
BBX 10 10 2 0
BITMAP
7FC0
2100
2100
2100
2100
2100
2100
2100
2100
FE00
ENDCHAR
STARTCHAR 013F
ENCODING 10280
SWIDTH 1400 0
DWIDTH 14 0
BBX 7 9 4 0
BITMAP
60
40
40
50
50
40
40
40
C6
ENDCHAR
STARTCHAR 0141
ENCODING 10281
SWIDTH 1400 0
DWIDTH 14 0
BBX 8 9 3 0
BITMAP
70
28
30
20
60
A0
20
20
63
ENDCHAR
STARTCHAR 00D8
ENCODING 10282
SWIDTH 1400 0
DWIDTH 14 0
BBX 10 11 2 -1
BITMAP
1E40
61C0
8080
8340
8440
8840
9040
A040
4080
6100
9E00
ENDCHAR
STARTCHAR 0152
ENCODING 10283
SWIDTH 1400 0
DWIDTH 14 0
BBX 14 11 0 -1
BITMAP
1FF8
2108
4104
8100
8120
81E0
8100
8100
4104
3398
0C60
ENDCHAR
STARTCHAR 00BA
ENCODING 10284
SWIDTH 1400 0
DWIDTH 14 0
BBX 6 10 4 0
BITMAP
78
CC
84
84
84
84
CC
78
00
FC
ENDCHAR
STARTCHAR 00DE
ENCODING 10285
SWIDTH 1400 0
DWIDTH 14 0
BBX 8 10 3 0
BITMAP
F0
20
3E
23
21
21
21
3E
20
E0
ENDCHAR
STARTCHAR 0166
ENCODING 10286
SWIDTH 1400 0
DWIDTH 14 0
BBX 9 10 2 0
BITMAP
FF80
8880
0880
0800
0800
3E00
0800
0800
0800
3E00
ENDCHAR
STARTCHAR 014A
ENCODING 10287
SWIDTH 1400 0
DWIDTH 14 0
BBX 8 11 3 -1
BITMAP
4E
F1
41
41
41
41
41
41
49
6A
04
ENDCHAR
STARTCHAR 3260
ENCODING 10289
SWIDTH 1400 0
DWIDTH 14 0
BBX 14 13 0 -2
BITMAP
0FC0
1020
6018
4008
9FE4
8024
8024
8024
8024
4028
2030
1060
0FC0
ENDCHAR
STARTCHAR 3261
ENCODING 10290
SWIDTH 1400 0
DWIDTH 14 0
BBX 14 12 0 -2
BITMAP
0FC0
3030
6018
5808
8804
8804
8804
8804
4FE8
6018
3030
0FC0
ENDCHAR
STARTCHAR 3262
ENCODING 10291
SWIDTH 1400 0
DWIDTH 14 0
BBX 14 12 0 -2
BITMAP
0FC0
3030
6018
4FE8
8804
8804
8804
8804
4FE8
6018
3030
0FC0
ENDCHAR
STARTCHAR 3263
ENCODING 10292
SWIDTH 1400 0
DWIDTH 14 0
BBX 14 12 0 -2
BITMAP
0FC0
3030
6018
4FC8
8044
8FC4
8804
8804
4FE8
6018
3030
0FC0
ENDCHAR
STARTCHAR 3264
ENCODING 10293
SWIDTH 1400 0
DWIDTH 14 0
BBX 14 12 0 -2
BITMAP
0FC0
3030
6018
5FC8
8844
8844
8884
8FC4
4008
6018
3030
0FC0
ENDCHAR
STARTCHAR 3265
ENCODING 10294
SWIDTH 1400 0
DWIDTH 14 0
BBX 14 12 0 -2
BITMAP
0FC0
3030
6018
5848
8844
8FC4
8844
8844
4FC8
6858
3030
0FC0
ENDCHAR
STARTCHAR 3266
ENCODING 10295
SWIDTH 1400 0
DWIDTH 14 0
BBX 14 12 0 -2
BITMAP
0FC0
3030
6218
4108
8104
8304
84C4
8824
5008
6018
3030
0FC0
ENDCHAR
STARTCHAR 3267
ENCODING 10296
SWIDTH 1400 0
DWIDTH 14 0
BBX 14 12 0 -2
BITMAP
0FC0
3030
6118
47C8
8864
8824
8824
8864
47C8
6018
3030
0FC0
ENDCHAR
STARTCHAR 3268
ENCODING 10297
SWIDTH 1400 0
DWIDTH 14 0
BBX 14 12 0 -2
BITMAP
0FC0
3030
6018
4FE8
8044
8084
8104
8284
4C68
6018
3030
0FC0
ENDCHAR
STARTCHAR 3269
ENCODING 10298
SWIDTH 1400 0
DWIDTH 14 0
BBX 14 12 0 -2
BITMAP
0FC0
3430
6398
4048
8FC4
8044
8184
8284
4468
6818
3030
0FC0
ENDCHAR
STARTCHAR 326A
ENCODING 10299
SWIDTH 1400 0
DWIDTH 14 0
BBX 14 12 0 -2
BITMAP
0FC0
3030
6018
4FE8
8024
8044
9FC4
8044
4088
6098
3130
0FC0
ENDCHAR
STARTCHAR 326B
ENCODING 10300
SWIDTH 1400 0
DWIDTH 14 0
BBX 14 12 0 -2
BITMAP
0FC0
3030
6018
4FC8
8804
8FC4
8804
8804
4FE8
6018
3030
0FC0
ENDCHAR
STARTCHAR 326C
ENCODING 10301
SWIDTH 1400 0
DWIDTH 14 0
BBX 14 12 0 -2
BITMAP
0FC0
3030
6018
5FE8
8084
8484
8484
8104
5FF8
6018
3030
0FC0
ENDCHAR
STARTCHAR 326D
ENCODING 10302
SWIDTH 1400 0
DWIDTH 14 0
BBX 14 12 0 -2
BITMAP
0FC0
3030
6398
4008
9FF4
8784
8844
8844
4848
6798
3030
0FC0
ENDCHAR
STARTCHAR 326E
ENCODING 10303
SWIDTH 1400 0
DWIDTH 14 0
BBX 14 12 0 -2
BITMAP
0FC0
30B0
6058
5F48
8244
8244
8464
8844
5048
6058
3070
0FC0
ENDCHAR
STARTCHAR 326F
ENCODING 10304
SWIDTH 1400 0
DWIDTH 14 0
BBX 14 12 0 -2
BITMAP
0FC0
30B0
6058
7048
9044
9044
90E4
9F44
4048
6058
3030
0FC0
ENDCHAR
STARTCHAR 3270
ENCODING 10305
SWIDTH 1400 0
DWIDTH 14 0
BBX 14 12 0 -2
BITMAP
0FC0
30B0
6058
7E48
9044
9044
9064
9F44
4048
6058
3030
0FC0
ENDCHAR
STARTCHAR 3271
ENCODING 10306
SWIDTH 1400 0
DWIDTH 14 0
BBX 14 12 0 -2
BITMAP
0FC0
30B0
6058
5E48
8244
9E44
9064
90C4
5F48
6058
3030
0FC0
ENDCHAR
STARTCHAR 3272
ENCODING 10307
SWIDTH 1400 0
DWIDTH 14 0
BBX 14 12 0 -2
BITMAP
0FC0
30B0
6058
5E48
9244
9244
9264
9E44
4048
6058
3030
0FC0
ENDCHAR
STARTCHAR 3273
ENCODING 10308
SWIDTH 1400 0
DWIDTH 14 0
BBX 14 12 0 -2
BITMAP
0FC0
30B0
6058
7248
9244
9E44
9264
9E44
5048
6058
3030
0FC0
ENDCHAR
STARTCHAR 3274
ENCODING 10309
SWIDTH 1400 0
DWIDTH 14 0
BBX 14 12 0 -2
BITMAP
0FC0
30B0
6058
4248
8444
8444
8A64
9144
4048
6058
3030
0FC0
ENDCHAR
STARTCHAR 3275
ENCODING 10310
SWIDTH 1400 0
DWIDTH 14 0
BBX 14 12 0 -2
BITMAP
0FC0
30B0
6858
5C48
A244
A244
A264
9C44
4048
6058
3030
0FC0
ENDCHAR
STARTCHAR 3276
ENCODING 10311
SWIDTH 1400 0
DWIDTH 14 0
BBX 14 12 0 -2
BITMAP
0FC0
3030
6058
4248
8E44
8444
8A64
9144
4048
6058
3030
0FC0
ENDCHAR
STARTCHAR 3277
ENCODING 10312
SWIDTH 1400 0
DWIDTH 14 0
BBX 14 12 0 -2
BITMAP
0FC0
30B0
6858
4448
9F44
8244
8464
8B44
5048
6058
3030
0FC0
ENDCHAR
STARTCHAR 3278
ENCODING 10313
SWIDTH 1400 0
DWIDTH 14 0
BBX 14 12 0 -2
BITMAP
0FC0
30B0
6058
5F48
8244
9E44
8464
8844
5048
6058
3030
0FC0
ENDCHAR
STARTCHAR 3279
ENCODING 10314
SWIDTH 1400 0
DWIDTH 14 0
BBX 14 12 0 -2
BITMAP
0FC0
30B0
6058
7648
9844
9E44
9064
9344
5C48
6058
3070
0FC0
ENDCHAR
STARTCHAR 327A
ENCODING 10315
SWIDTH 1400 0
DWIDTH 14 0
BBX 14 12 0 -2
BITMAP
0FC0
30B0
6058
7F48
8244
8A54
8A64
BFC4
4048
6058
3030
0FC0
ENDCHAR
STARTCHAR 327B
ENCODING 10316
SWIDTH 1400 0
DWIDTH 14 0
BBX 14 12 0 -2
BITMAP
0FC0
30B0
6058
4448
BF44
8E54
9164
9144
4E48
6058
3030
0FC0
ENDCHAR
STARTCHAR 24D0
ENCODING 10317
SWIDTH 1400 0
DWIDTH 14 0
BBX 14 12 0 -2
BITMAP
0FC0
3030
6018
4788
8484
8184
8684
8884
47C8
6018
3030
0FC0
ENDCHAR
STARTCHAR 24D1
ENCODING 10318
SWIDTH 1400 0
DWIDTH 14 0
BBX 14 12 0 -2
BITMAP
0FC0
3430
6418
4408
8584
8644
8444
8444
4448
6698
3130
0FC0
ENDCHAR
STARTCHAR 24D2
ENCODING 10319
SWIDTH 1400 0
DWIDTH 14 0
BBX 14 12 0 -2
BITMAP
0FC0
3030
6018
4788
8804
8804
8804
8444
4388
6018
3030
0FC0
ENDCHAR
STARTCHAR 24D3
ENCODING 10320
SWIDTH 1400 0
DWIDTH 14 0
BBX 14 12 0 -2
BITMAP
0FC0
30B0
6098
4088
8284
8D84
8884
8884
4888
6598
3270
0FC0
ENDCHAR
STARTCHAR 24D4
ENCODING 10321
SWIDTH 1400 0
DWIDTH 14 0
BBX 14 12 0 -2
BITMAP
0FC0
3030
6018
4788
8444
8FC4
8804
8804
4488
6318
3030
0FC0
ENDCHAR
STARTCHAR 24D5
ENCODING 10322
SWIDTH 1400 0
DWIDTH 14 0
BBX 14 12 0 -2
BITMAP
0FC0
31B0
6218
4208
8784
8204
8204
8204
4208
6218
3030
0FC0
ENDCHAR
STARTCHAR 24D6
ENCODING 10323
SWIDTH 1400 0
DWIDTH 14 0
BBX 14 12 0 -2
BITMAP
0FC0
3030
67F8
4488
8484
8484
8704
8784
4848
6F98
3030
0FC0
ENDCHAR
STARTCHAR 24D7
ENCODING 10324
SWIDTH 1400 0
DWIDTH 14 0
BBX 14 12 0 -2
BITMAP
0FC0
3030
6418
4408
8404
87C4
8444
8444
4448
6458
3030
0FC0
ENDCHAR
STARTCHAR 24D8
ENCODING 10325
SWIDTH 1400 0
DWIDTH 14 0
BBX 14 12 0 -2
BITMAP
0FC0
3330
6018
4008
8104
8104
8104
8104
4108
6398
3030
0FC0
ENDCHAR
STARTCHAR 24D9
ENCODING 10326
SWIDTH 1400 0
DWIDTH 14 0
BBX 14 12 0 -2
BITMAP
0FC0
3130
6018
4008
8104
8104
8104
8104
4108
6118
3630
0FC0
ENDCHAR
STARTCHAR 24DA
ENCODING 10327
SWIDTH 1400 0
DWIDTH 14 0
BBX 14 12 0 -2
BITMAP
0FC0
3430
6418
4408
84C4
8484
8504
8684
4488
6ED8
3030
0FC0
ENDCHAR
STARTCHAR 24DB
ENCODING 10328
SWIDTH 1400 0
DWIDTH 14 0
BBX 14 12 0 -2
BITMAP
0FC0
3030
6118
4108
8104
8104
8104
8104
4108
6118
3030
0FC0
ENDCHAR
STARTCHAR 24DC
ENCODING 10329
SWIDTH 1400 0
DWIDTH 14 0
BBX 14 12 0 -2
BITMAP
0FC0
3030
6018
76E8
9924
9124
9124
9124
7BF8
6018
3030
0FC0
ENDCHAR
STARTCHAR 24DD
ENCODING 10330
SWIDTH 1400 0
DWIDTH 14 0
BBX 14 12 0 -2
BITMAP
0FC0
3030
6018
4D88
8684
8484
8484
8484
4FC8
6018
3030
0FC0
ENDCHAR
STARTCHAR 24DE
ENCODING 10331
SWIDTH 1400 0
DWIDTH 14 0
BBX 14 12 0 -2
BITMAP
0FC0
3030
6018
4788
8CC4
8844
8844
8CC4
4788
6018
3030
0FC0
ENDCHAR
STARTCHAR 24DF
ENCODING 10332
SWIDTH 1400 0
DWIDTH 14 0
BBX 14 12 0 -2
BITMAP
0FC0
3030
6518
46C8
8444
8444
8444
8684
4508
6418
3030
0FC0
ENDCHAR
STARTCHAR 24E0
ENCODING 10333
SWIDTH 1400 0
DWIDTH 14 0
BBX 14 12 0 -2
BITMAP
0FC0
3030
6718
4888
8884
8884
8884
8584
4288
61D8
3030
0FC0
ENDCHAR
STARTCHAR 24E1
ENCODING 10334
SWIDTH 1400 0
DWIDTH 14 0
BBX 14 12 0 -2
BITMAP
0FC0
3030
6018
42C8
8304
8204
8204
8204
4208
6018
3030
0FC0
ENDCHAR
STARTCHAR 24E2
ENCODING 10335
SWIDTH 1400 0
DWIDTH 14 0
BBX 14 12 0 -2
BITMAP
0FC0
3030
6018
4788
8404
8204
8184
8084
4688
6118
3030
0FC0
ENDCHAR
STARTCHAR 24E3
ENCODING 10336
SWIDTH 1400 0
DWIDTH 14 0
BBX 14 12 0 -2
BITMAP
0FC0
3030
6218
4208
8784
8204
8204
8204
4208
6218
3130
0FC0
ENDCHAR
STARTCHAR 24E4
ENCODING 10337
SWIDTH 1400 0
DWIDTH 14 0
BBX 14 12 0 -2
BITMAP
0FC0
3030
6018
4488
8484
8484
8484
8484
4788
6018
3030
0FC0
ENDCHAR
STARTCHAR 24E5
ENCODING 10338
SWIDTH 1400 0
DWIDTH 14 0
BBX 14 12 0 -2
BITMAP
0FC0
3030
6018
4CC8
8484
8484
8304
8304
4008
6018
3030
0FC0
ENDCHAR
STARTCHAR 24E6
ENCODING 10339
SWIDTH 1400 0
DWIDTH 14 0
BBX 14 12 0 -2
BITMAP
0FC0
3030
6018
4008
9124
8944
8B44
8CC4
4488
6018
3030
0FC0
ENDCHAR
STARTCHAR 24E7
ENCODING 10340
SWIDTH 1400 0
DWIDTH 14 0
BBX 14 12 0 -2
BITMAP
0FC0
3030
6018
4CC8
8504
8304
8304
8484
4CC8
6018
3030
0FC0
ENDCHAR
STARTCHAR 24E8
ENCODING 10341
SWIDTH 1400 0
DWIDTH 14 0
BBX 14 12 0 -2
BITMAP
0FC0
3030
6ED8
4488
8284
8284
8304
8104
4208
6618
3030
0FC0
ENDCHAR
STARTCHAR 24E9
ENCODING 10342
SWIDTH 1400 0
DWIDTH 14 0
BBX 14 12 0 -2
BITMAP
0FC0
3030
6018
4788
8104
8204
8204
8484
4788
6018
3030
0FC0
ENDCHAR
STARTCHAR 2460
ENCODING 10343
SWIDTH 1400 0
DWIDTH 14 0
BBX 14 12 0 -2
BITMAP
0FC0
3030
6618
4208
8204
8204
8204
8204
4208
6F98
3030
0FC0
ENDCHAR
STARTCHAR 2461
ENCODING 10344
SWIDTH 1400 0
DWIDTH 14 0
BBX 14 12 0 -2
BITMAP
0FC0
3030
6798
4448
8084
8104
8204
8444
4848
6798
3030
0FC0
ENDCHAR
STARTCHAR 2462
ENCODING 10345
SWIDTH 1400 0
DWIDTH 14 0
BBX 14 12 0 -2
BITMAP
0FC0
3730
6898
4888
8084
8704
8184
8044
4448
6498
3330
0FC0
ENDCHAR
STARTCHAR 2463
ENCODING 10346
SWIDTH 1400 0
DWIDTH 14 0
BBX 14 12 0 -2
BITMAP
0FC0
3130
6318
4508
8504
8904
8904
8FC4
4108
6118
3030
0FC0
ENDCHAR
STARTCHAR 2464
ENCODING 10347
SWIDTH 1400 0
DWIDTH 14 0
BBX 14 12 0 -2
BITMAP
0FC0
3030
6798
4408
8404
8784
8044
8044
4448
6498
3330
0FC0
ENDCHAR
STARTCHAR 2465
ENCODING 10348
SWIDTH 1400 0
DWIDTH 14 0
BBX 14 12 0 -2
BITMAP
0FC0
3030
6398
4488
8804
8B04
8C84
8844
4848
64D8
37B0
0FC0
ENDCHAR
STARTCHAR 2466
ENCODING 10349
SWIDTH 1400 0
DWIDTH 14 0
BBX 14 12 0 -2
BITMAP
0FC0
3030
67D8
4888
8884
8104
8104
8204
4208
6218
3230
0FC0
ENDCHAR
STARTCHAR 2467
ENCODING 10350
SWIDTH 1400 0
DWIDTH 14 0
BBX 14 12 0 -2
BITMAP
0FC0
37B0
4488
4888
8484
8304
8484
8844
4848
6CD8
37B0
0FC0
ENDCHAR
STARTCHAR 2468
ENCODING 10351
SWIDTH 1400 0
DWIDTH 14 0
BBX 14 12 0 -2
BITMAP
0FC0
33B0
6498
4448
8444
8444
83C4
8044
4488
6318
3030
0FC0
ENDCHAR
STARTCHAR 2469
ENCODING 10352
SWIDTH 1400 0
DWIDTH 14 0
BBX 14 12 0 -2
BITMAP
0FC0
3030
68F8
58A8
8914
8914
8914
8914
48A8
7CF8
3030
0FC0
ENDCHAR
STARTCHAR 246A
ENCODING 10353
SWIDTH 1400 0
DWIDTH 14 0
BBX 14 12 0 -2
BITMAP
0FC0
3030
6058
58C8
8844
8844
8844
8844
4848
7CF8
3030
0FC0
ENDCHAR
STARTCHAR 246B
ENCODING 10354
SWIDTH 1400 0
DWIDTH 14 0
BBX 14 12 0 -2
BITMAP
0FC0
3030
6818
59E8
8814
8824
8844
8884
4918
7CF8
3030
0FC0
ENDCHAR
STARTCHAR 246C
ENCODING 10355
SWIDTH 1400 0
DWIDTH 14 0
BBX 13 12 0 -2
BITMAP
0F80
3060
6070
5890
8828
8848
8828
8818
4910
7CF0
3060
0F80
ENDCHAR
STARTCHAR 246D
ENCODING 10356
SWIDTH 1400 0
DWIDTH 14 0
BBX 14 12 0 -2
BITMAP
0FC0
3030
6038
5828
88E4
88A4
8924
89F4
4828
7C38
3030
0FC0
ENDCHAR
STARTCHAR 246E
ENCODING 10357
SWIDTH 1400 0
DWIDTH 14 0
BBX 14 12 0 -2
BITMAP
0FC0
3030
69F8
5908
8904
89E4
8824
8824
4828
61D8
3030
0FC0
ENDCHAR
STARTCHAR 00BD
ENCODING 10358
SWIDTH 1400 0
DWIDTH 14 0
BBX 10 12 2 -2
BITMAP
C040
4080
4100
4200
4400
E800
0FC0
1240
2080
4300
8400
03C0
ENDCHAR
STARTCHAR 2153
ENCODING 10359
SWIDTH 1400 0
DWIDTH 14 0
BBX 10 13 2 -3
BITMAP
C040
4080
4100
4200
4400
E800
0BC0
1240
2080
4040
8240
0280
0100
ENDCHAR
STARTCHAR 2154
ENCODING 10360
SWIDTH 1400 0
DWIDTH 14 0
BBX 11 13 1 -3
BITMAP
F800
4840
1080
6080
8100
7A00
05E0
0920
1020
2020
4120
0120
00C0
ENDCHAR
STARTCHAR 00BC
ENCODING 10361
SWIDTH 1400 0
DWIDTH 14 0
BBX 10 12 2 -2
BITMAP
C040
4080
4100
4200
4400
E400
0900
1700
2900
5100
8F80
0100
ENDCHAR
STARTCHAR 00BE
ENCODING 10362
SWIDTH 1400 0
DWIDTH 14 0
BBX 10 12 2 -2
BITMAP
F000
9040
2080
1100
9200
9400
6880
0B80
1480
2480
47C0
8080
ENDCHAR
STARTCHAR 215B
ENCODING 10363
SWIDTH 1400 0
DWIDTH 14 0
BBX 11 13 2 -3
BITMAP
C040
4080
4100
4200
4400
C400
0BC0
1440
2340
42C0
8420
0240
0180
ENDCHAR
STARTCHAR 215C
ENCODING 10364
SWIDTH 1400 0
DWIDTH 14 0
BBX 11 13 2 -3
BITMAP
F000
9080
2080
1100
9200
9400
6BC0
1440
2340
42C0
8420
8240
0180
ENDCHAR
STARTCHAR 215D
ENCODING 10365
SWIDTH 1400 0
DWIDTH 14 0
BBX 12 13 1 -3
BITMAP
7C10
4020
4040
3880
8900
8A00
75E0
0520
0A20
13E0
2210
0120
00C0
ENDCHAR
STARTCHAR 215E
ENCODING 10366
SWIDTH 1400 0
DWIDTH 14 0
BBX 10 13 2 -3
BITMAP
F840
9080
2100
2200
2400
2800
0BC0
1440
2340
42C0
8440
0240
0180
ENDCHAR
STARTCHAR 00E6
ENCODING 10529
SWIDTH 1400 0
DWIDTH 14 0
BBX 10 8 2 -1
BITMAP
7380
CC80
8840
3FC0
C800
8C00
D780
2000
ENDCHAR
STARTCHAR 0111
ENCODING 10530
SWIDTH 1400 0
DWIDTH 14 0
BBX 7 11 4 -1
BITMAP
0C
04
3E
04
7C
84
84
84
84
4C
30
ENDCHAR
STARTCHAR 00F0
ENCODING 10531
SWIDTH 1400 0
DWIDTH 14 0
BBX 6 9 4 -1
BITMAP
38
30
08
F4
84
84
84
CC
78
ENDCHAR
STARTCHAR 0127
ENCODING 10532
SWIDTH 1400 0
DWIDTH 14 0
BBX 7 9 3 0
BITMAP
40
F8
40
7E
42
42
42
42
42
ENDCHAR
STARTCHAR 0131
ENCODING 10533
SWIDTH 1400 0
DWIDTH 14 0
BBX 2 6 6 0
BITMAP
C0
40
40
40
40
40
ENDCHAR
STARTCHAR 0133
ENCODING 10534
SWIDTH 1400 0
DWIDTH 14 0
BBX 6 11 4 -2
BITMAP
48
00
00
CC
44
44
44
44
44
34
18
ENDCHAR
STARTCHAR 0138
ENCODING 10535
SWIDTH 1400 0
DWIDTH 14 0
BBX 5 6 4 0
BITMAP
88
90
A0
D0
90
88
ENDCHAR
STARTCHAR 0140
ENCODING 10536
SWIDTH 1400 0
DWIDTH 14 0
BBX 3 9 6 0
BITMAP
80
80
80
A0
A0
80
80
80
80
ENDCHAR
STARTCHAR 0142
ENCODING 10537
SWIDTH 1400 0
DWIDTH 14 0
BBX 4 10 5 0
BITMAP
60
20
30
30
20
60
A0
20
20
70
ENDCHAR
STARTCHAR 00F8
ENCODING 10538
SWIDTH 1400 0
DWIDTH 14 0
BBX 7 8 3 -1
BITMAP
18
66
46
DA
62
42
24
18
ENDCHAR
STARTCHAR 0153
ENCODING 10539
SWIDTH 1400 0
DWIDTH 14 0
BBX 10 7 2 -1
BITMAP
7F80
8440
8780
8400
8400
4B40
3080
ENDCHAR
STARTCHAR 00DF
ENCODING 10540
SWIDTH 1400 0
DWIDTH 14 0
BBX 7 11 4 -1
BITMAP
78
CC
84
84
84
8C
86
82
82
94
18
ENDCHAR
STARTCHAR 00FE
ENCODING 10541
SWIDTH 1400 0
DWIDTH 14 0
BBX 7 11 3 -2
BITMAP
C0
40
40
7C
42
42
42
42
64
58
40
ENDCHAR
STARTCHAR 0167
ENCODING 10542
SWIDTH 1400 0
DWIDTH 14 0
BBX 4 10 5 0
BITMAP
40
40
40
60
E0
40
40
40
40
70
ENDCHAR
STARTCHAR 014B
ENCODING 10543
SWIDTH 1400 0
DWIDTH 14 0
BBX 6 9 4 -3
BITMAP
FC
44
44
44
44
44
24
24
18
ENDCHAR
STARTCHAR 0149
ENCODING 10544
SWIDTH 1400 0
DWIDTH 14 0
BBX 8 8 2 0
BITMAP
40
80
BF
11
11
11
11
11
ENDCHAR
STARTCHAR 3200
ENCODING 10545
SWIDTH 1400 0
DWIDTH 14 0
BBX 14 10 0 -1
BITMAP
4010
4008
BFC8
8044
8044
8044
8044
8048
4048
2000
ENDCHAR
STARTCHAR 3201
ENCODING 10546
SWIDTH 1400 0
DWIDTH 14 0
BBX 14 10 0 -1
BITMAP
2010
4008
5808
8804
8804
8804
8804
8FE8
4008
4000
ENDCHAR
STARTCHAR 3202
ENCODING 10547
SWIDTH 1400 0
DWIDTH 14 0
BBX 14 10 0 -1
BITMAP
4010
4008
8FE8
8804
8804
8804
8804
8FE8
4008
2000
ENDCHAR
STARTCHAR 3203
ENCODING 10548
SWIDTH 1400 0
DWIDTH 14 0
BBX 14 10 0 -1
BITMAP
4010
4008
9FC8
8044
8FC4
8804
8804
8FE8
4008
2000
ENDCHAR
STARTCHAR 3204
ENCODING 10549
SWIDTH 1400 0
DWIDTH 14 0
BBX 14 10 0 -1
BITMAP
4010
4008
8FE8
8844
8844
8844
8844
8FC8
4808
2000
ENDCHAR
STARTCHAR 3205
ENCODING 10550
SWIDTH 1400 0
DWIDTH 14 0
BBX 14 10 0 -1
BITMAP
4010
4008
9848
8844
8FC4
8844
8844
8FC8
4848
2000
ENDCHAR
STARTCHAR 3206
ENCODING 10551
SWIDTH 1400 0
DWIDTH 14 0
BBX 14 10 0 -1
BITMAP
4010
4208
8108
8104
8304
8484
8864
8028
4008
2000
ENDCHAR
STARTCHAR 3207
ENCODING 10552
SWIDTH 1400 0
DWIDTH 14 0
BBX 14 10 0 -1
BITMAP
4010
4108
87C8
8C64
8824
8824
8C64
87C8
4008
2010
ENDCHAR
STARTCHAR 3208
ENCODING 10553
SWIDTH 1400 0
DWIDTH 14 0
BBX 14 10 0 -1
BITMAP
4010
4008
9FC8
8044
8084
8104
8284
8C68
4008
2000
ENDCHAR
STARTCHAR 3209
ENCODING 10554
SWIDTH 1400 0
DWIDTH 14 0
BBX 14 10 0 -1
BITMAP
4010
4388
8008
8FC4
8084
8304
84C4
8828
4008
2000
ENDCHAR
STARTCHAR 320A
ENCODING 10555
SWIDTH 1400 0
DWIDTH 14 0
BBX 14 10 0 -1
BITMAP
4010
4008
8FE8
8024
8044
9FC4
8044
8088
4088
2100
ENDCHAR
STARTCHAR 320B
ENCODING 10556
SWIDTH 1400 0
DWIDTH 14 0
BBX 14 10 0 -1
BITMAP
4010
4008
8FC8
8804
8FC4
8804
8804
8FE8
4008
2000
ENDCHAR
STARTCHAR 320C
ENCODING 10557
SWIDTH 1400 0
DWIDTH 14 0
BBX 14 10 0 -1
BITMAP
2010
4008
5FE8
8084
8484
8484
8104
9FF8
4008
4000
ENDCHAR
STARTCHAR 320D
ENCODING 10558
SWIDTH 1400 0
DWIDTH 14 0
BBX 14 10 0 -1
BITMAP
4010
4388
8008
9FF4
8104
8784
8844
8848
4788
2000
ENDCHAR
STARTCHAR 320E
ENCODING 10559
SWIDTH 1400 0
DWIDTH 14 0
BBX 14 10 0 -1
BITMAP
4050
4048
9F48
8144
8244
8474
8844
9048
4048
2040
ENDCHAR
STARTCHAR 320F
ENCODING 10560
SWIDTH 1400 0
DWIDTH 14 0
BBX 14 10 0 -1
BITMAP
4050
4048
9048
9044
9044
9064
9744
8848
4048
2040
ENDCHAR
STARTCHAR 3210
ENCODING 10561
SWIDTH 1400 0
DWIDTH 14 0
BBX 14 10 0 -1
BITMAP
40D0
4048
9F48
9044
9044
90E4
9F44
8048
4048
2040
ENDCHAR
STARTCHAR 3211
ENCODING 10562
SWIDTH 1400 0
DWIDTH 14 0
BBX 14 10 0 -1
BITMAP
4050
4048
BE48
8244
9E44
9064
90C4
9F48
4048
2040
ENDCHAR
STARTCHAR 3212
ENCODING 10563
SWIDTH 1400 0
DWIDTH 14 0
BBX 14 10 0 -1
BITMAP
4050
4048
BE48
9244
9244
9264
9E44
8048
4048
2040
ENDCHAR
STARTCHAR 3213
ENCODING 10564
SWIDTH 1400 0
DWIDTH 14 0
BBX 14 10 0 -1
BITMAP
4050
4048
B248
9244
9E44
9264
9E44
9048
4048
2040
ENDCHAR
STARTCHAR 3214
ENCODING 10565
SWIDTH 1400 0
DWIDTH 14 0
BBX 14 10 0 -1
BITMAP
4050
4048
8248
8444
8444
8A64
9144
8048
4048
2040
ENDCHAR
STARTCHAR 3215
ENCODING 10566
SWIDTH 1400 0
DWIDTH 14 0
BBX 14 10 0 -1
BITMAP
4050
4848
9E48
A144
A154
A164
9E44
8048
4048
2040
ENDCHAR
STARTCHAR 3216
ENCODING 10567
SWIDTH 1400 0
DWIDTH 14 0
BBX 14 10 0 -1
BITMAP
4050
4048
9F48
8244
8444
8A64
9144
8048
4048
2040
ENDCHAR
STARTCHAR 3217
ENCODING 10568
SWIDTH 1400 0
DWIDTH 14 0
BBX 14 10 0 -1
BITMAP
4050
4E48
8048
8E44
8244
8664
9944
A048
4048
2040
ENDCHAR
STARTCHAR 3218
ENCODING 10569
SWIDTH 1400 0
DWIDTH 14 0
BBX 14 10 0 -1
BITMAP
4050
4048
9F48
8244
BE44
8464
8844
9048
4048
2040
ENDCHAR
STARTCHAR 3219
ENCODING 10570
SWIDTH 1400 0
DWIDTH 14 0
BBX 14 10 0 -1
BITMAP
40D0
4048
BE48
9044
9E44
9064
9144
9E48
4048
2040
ENDCHAR
STARTCHAR 321A
ENCODING 10571
SWIDTH 1400 0
DWIDTH 14 0
BBX 14 10 0 -1
BITMAP
4050
4048
9F48
8244
8A44
8A64
A744
9848
4048
2040
ENDCHAR
STARTCHAR 321B
ENCODING 10572
SWIDTH 1400 0
DWIDTH 14 0
BBX 14 10 0 -1
BITMAP
4050
4648
8048
9FC4
8E44
9164
9144
8E48
4048
2050
ENDCHAR
STARTCHAR 249C
ENCODING 10573
SWIDTH 1400 0
DWIDTH 14 0
BBX 14 10 0 -1
BITMAP
4010
4008
8788
8484
8184
8684
8884
87C8
4008
2000
ENDCHAR
STARTCHAR 249D
ENCODING 10574
SWIDTH 1400 0
DWIDTH 14 0
BBX 14 10 0 -1
BITMAP
4010
4408
8408
8504
86C4
8444
8444
8448
4488
2300
ENDCHAR
STARTCHAR 249E
ENCODING 10575
SWIDTH 1400 0
DWIDTH 14 0
BBX 14 10 0 -1
BITMAP
4010
4008
8388
8404
8804
8804
8404
8388
4008
2000
ENDCHAR
STARTCHAR 249F
ENCODING 10576
SWIDTH 1400 0
DWIDTH 14 0
BBX 14 10 0 -1
BITMAP
4090
4088
8088
8684
8984
8884
8884
8888
4588
2240
ENDCHAR
STARTCHAR 24A0
ENCODING 10577
SWIDTH 1400 0
DWIDTH 14 0
BBX 14 10 0 -1
BITMAP
4010
4388
8448
8C44
8FC4
8804
8804
8488
4308
2000
ENDCHAR
STARTCHAR 24A1
ENCODING 10578
SWIDTH 1400 0
DWIDTH 14 0
BBX 14 10 0 -1
BITMAP
4190
4208
8208
8784
8204
8204
8204
8208
4208
2000
ENDCHAR
STARTCHAR 24A2
ENCODING 10579
SWIDTH 1400 0
DWIDTH 14 0
BBX 14 10 0 -1
BITMAP
4010
4748
8884
8884
8504
8A04
8784
8848
4D88
2200
ENDCHAR
STARTCHAR 24A3
ENCODING 10580
SWIDTH 1400 0
DWIDTH 14 0
BBX 14 10 0 -1
BITMAP
4410
4408
8408
8584
8644
8444
8444
8448
4448
2000
ENDCHAR
STARTCHAR 24A4
ENCODING 10581
SWIDTH 1400 0
DWIDTH 14 0
BBX 14 10 0 -1
BITMAP
4010
4308
8008
8104
8104
8104
8104
8108
4108
2000
ENDCHAR
STARTCHAR 24A5
ENCODING 10582
SWIDTH 1400 0
DWIDTH 14 0
BBX 14 10 0 -1
BITMAP
2110
4008
4008
8104
8104
8104
8104
8108
4108
4600
ENDCHAR
STARTCHAR 24A6
ENCODING 10583
SWIDTH 1400 0
DWIDTH 14 0
BBX 14 10 0 -1
BITMAP
4410
4408
8408
84C4
8484
8504
8704
8488
44C8
2000
ENDCHAR
STARTCHAR 24A7
ENCODING 10584
SWIDTH 1400 0
DWIDTH 14 0
BBX 14 10 0 -1
BITMAP
4010
4108
8108
8104
8104
8104
8104
8108
4108
2000
ENDCHAR
STARTCHAR 24A8
ENCODING 10585
SWIDTH 1400 0
DWIDTH 14 0
BBX 14 10 0 -1
BITMAP
4010
4008
BEE8
9124
9124
9124
9124
BBF8
4008
2000
ENDCHAR
STARTCHAR 24A9
ENCODING 10586
SWIDTH 1400 0
DWIDTH 14 0
BBX 14 10 0 -1
BITMAP
4010
4008
8D88
8684
8484
8484
8484
8FC8
4008
2000
ENDCHAR
STARTCHAR 24AA
ENCODING 10587
SWIDTH 1400 0
DWIDTH 14 0
BBX 14 10 0 -1
BITMAP
4010
4008
8788
8CC4
8844
8844
8CC4
8788
4008
2000
ENDCHAR
STARTCHAR 24AB
ENCODING 10588
SWIDTH 1400 0
DWIDTH 14 0
BBX 14 10 0 -1
BITMAP
4010
4588
8648
8444
8444
8444
8684
8508
4408
2000
ENDCHAR
STARTCHAR 24AC
ENCODING 10589
SWIDTH 1400 0
DWIDTH 14 0
BBX 14 10 0 -1
BITMAP
4010
4208
8D88
8884
8884
8884
8484
8388
4088
2040
ENDCHAR
STARTCHAR 24AD
ENCODING 10590
SWIDTH 1400 0
DWIDTH 14 0
BBX 14 10 0 -1
BITMAP
4010
4008
86C8
8304
8204
8204
8204
8708
4008
2000
ENDCHAR
STARTCHAR 24AE
ENCODING 10591
SWIDTH 1400 0
DWIDTH 14 0
BBX 14 10 0 -1
BITMAP
4010
4008
8788
8404
8304
8084
8484
8788
4008
2000
ENDCHAR
STARTCHAR 24AF
ENCODING 10592
SWIDTH 1400 0
DWIDTH 14 0
BBX 14 10 0 -1
BITMAP
4010
4208
8208
8784
8204
8204
8204
8208
4208
2100
ENDCHAR
STARTCHAR 24B0
ENCODING 10593
SWIDTH 1400 0
DWIDTH 14 0
BBX 14 10 0 -1
BITMAP
4010
4008
8D88
8484
8484
8484
8484
83C8
4008
2000
ENDCHAR
STARTCHAR 24B1
ENCODING 10594
SWIDTH 1400 0
DWIDTH 14 0
BBX 14 10 0 -1
BITMAP
4010
4008
8CC8
8484
8484
8304
8304
8208
4008
2000
ENDCHAR
STARTCHAR 24B2
ENCODING 10595
SWIDTH 1400 0
DWIDTH 14 0
BBX 14 10 0 -1
BITMAP
4010
4008
9B28
9124
8B44
8B44
8C84
8488
4008
2000
ENDCHAR
STARTCHAR 24B3
ENCODING 10596
SWIDTH 1400 0
DWIDTH 14 0
BBX 14 10 0 -1
BITMAP
4010
4008
8CC8
8504
8204
8304
8484
8CC8
4008
2000
ENDCHAR
STARTCHAR 24B4
ENCODING 10597
SWIDTH 1400 0
DWIDTH 14 0
BBX 14 10 0 -1
BITMAP
4010
4008
8448
8484
8284
8304
8104
8208
4608
2000
ENDCHAR
STARTCHAR 24B5
ENCODING 10598
SWIDTH 1400 0
DWIDTH 14 0
BBX 14 10 0 -1
BITMAP
4010
4008
8788
8504
8104
8204
8484
8788
4008
2010
ENDCHAR
STARTCHAR 2474
ENCODING 10599
SWIDTH 1400 0
DWIDTH 14 0
BBX 14 10 0 -1
BITMAP
4310
4108
8108
8104
8104
8104
8104
8108
4108
27C0
ENDCHAR
STARTCHAR 2475
ENCODING 10600
SWIDTH 1400 0
DWIDTH 14 0
BBX 14 10 0 -1
BITMAP
4390
44C8
8848
8084
8104
8204
8404
8848
4FC8
2000
ENDCHAR
STARTCHAR 2476
ENCODING 10601
SWIDTH 1400 0
DWIDTH 14 0
BBX 14 10 0 -1
BITMAP
4390
4448
8048
8044
8384
80C4
8044
8848
4848
2780
ENDCHAR
STARTCHAR 2477
ENCODING 10602
SWIDTH 1400 0
DWIDTH 14 0
BBX 14 11 0 -1
BITMAP
0100
4110
4308
8508
8504
8904
8904
9184
8F08
4108
2100
ENDCHAR
STARTCHAR 2478
ENCODING 10603
SWIDTH 1400 0
DWIDTH 14 0
BBX 14 10 0 -1
BITMAP
4F90
4808
8808
8804
8F84
8044
8044
8888
4888
2700
ENDCHAR
STARTCHAR 2479
ENCODING 10604
SWIDTH 1400 0
DWIDTH 14 0
BBX 14 10 0 -1
BITMAP
4390
44C8
8808
8804
8F84
8844
8844
8848
4488
2300
ENDCHAR
STARTCHAR 247A
ENCODING 10605
SWIDTH 1400 0
DWIDTH 14 0
BBX 14 10 0 -1
BITMAP
4010
47C8
8888
8884
8104
8104
8204
8208
4208
2200
ENDCHAR
STARTCHAR 247B
ENCODING 10606
SWIDTH 1400 0
DWIDTH 14 0
BBX 14 10 0 -1
BITMAP
4790
4488
8884
8484
8384
8CC4
8844
8848
4588
2200
ENDCHAR
STARTCHAR 247C
ENCODING 10607
SWIDTH 1400 0
DWIDTH 14 0
BBX 14 10 0 -1
BITMAP
4010
4788
8848
8844
8844
85C4
8244
8088
4488
2300
ENDCHAR
STARTCHAR 247D
ENCODING 10608
SWIDTH 1400 0
DWIDTH 14 0
BBX 14 10 0 -1
BITMAP
48D0
5928
8928
8924
8924
8924
8924
8928
4948
2080
ENDCHAR
STARTCHAR 247E
ENCODING 10609
SWIDTH 1400 0
DWIDTH 14 0
BBX 14 10 0 -1
BITMAP
4010
4008
98C8
8844
8844
8844
8844
8848
5CE8
2000
ENDCHAR
STARTCHAR 247F
ENCODING 10610
SWIDTH 1400 0
DWIDTH 14 0
BBX 14 10 0 0
BITMAP
2000
4010
49E8
9818
8824
8844
8884
8914
48E8
5C08
ENDCHAR
STARTCHAR 2480
ENCODING 10611
SWIDTH 1400 0
DWIDTH 14 0
BBX 14 10 0 -1
BITMAP
4050
58A8
8828
8844
8824
8814
8914
9CE8
4008
2000
ENDCHAR
STARTCHAR 2481
ENCODING 10612
SWIDTH 1400 0
DWIDTH 14 0
BBX 14 10 0 -1
BITMAP
4010
4028
9828
88E4
88A4
8924
89F4
8828
5C38
2000
ENDCHAR
STARTCHAR 2482
ENCODING 10613
SWIDTH 1400 0
DWIDTH 14 0
BBX 14 10 0 -1
BITMAP
4010
49E8
9908
8904
89E4
8824
8824
8828
41C8
2000
ENDCHAR
STARTCHAR 00B9
ENCODING 10614
SWIDTH 1400 0
DWIDTH 14 0
BBX 3 6 6 4
BITMAP
40
40
40
40
40
E0
ENDCHAR
STARTCHAR 00B2
ENCODING 10615
SWIDTH 1400 0
DWIDTH 14 0
BBX 4 6 5 5
BITMAP
60
90
10
60
80
F0
ENDCHAR
STARTCHAR 00B3
ENCODING 10616
SWIDTH 1400 0
DWIDTH 14 0
BBX 4 7 5 4
BITMAP
60
90
10
60
10
90
60
ENDCHAR
STARTCHAR 2074
ENCODING 10617
SWIDTH 1400 0
DWIDTH 14 0
BBX 4 6 5 5
BITMAP
20
60
A0
A0
F0
20
ENDCHAR
STARTCHAR 207F
ENCODING 10618
SWIDTH 1400 0
DWIDTH 14 0
BBX 5 6 5 4
BITMAP
30
D0
90
90
90
18
ENDCHAR
STARTCHAR 2081
ENCODING 10619
SWIDTH 1400 0
DWIDTH 14 0
BBX 3 6 5 -2
BITMAP
40
40
40
40
40
E0
ENDCHAR
STARTCHAR 2082
ENCODING 10620
SWIDTH 1400 0
DWIDTH 14 0
BBX 4 6 5 -2
BITMAP
60
90
10
60
80
F0
ENDCHAR
STARTCHAR 2083
ENCODING 10621
SWIDTH 1400 0
DWIDTH 14 0
BBX 4 7 5 -3
BITMAP
60
90
10
60
10
90
60
ENDCHAR
STARTCHAR 2084
ENCODING 10622
SWIDTH 1400 0
DWIDTH 14 0
BBX 5 6 4 -2
BITMAP
10
30
50
90
78
10
ENDCHAR
STARTCHAR 3041
ENCODING 10785
SWIDTH 1400 0
DWIDTH 14 0
BBX 8 10 3 -2
BITMAP
10
10
78
20
1C
2A
D1
A1
D2
04
ENDCHAR
STARTCHAR 3042
ENCODING 10786
SWIDTH 1400 0
DWIDTH 14 0
BBX 10 12 2 -2
BITMAP
0800
0800
4E00
3000
1200
1F80
3440
5840
9040
A880
4100
0200
ENDCHAR
STARTCHAR 3043
ENCODING 10787
SWIDTH 1400 0
DWIDTH 14 0
BBX 8 5 3 -1
BITMAP
80
82
81
A3
40
ENDCHAR
STARTCHAR 3044
ENCODING 10788
SWIDTH 1400 0
DWIDTH 14 0
BBX 10 7 2 1
BITMAP
8000
8000
8180
8040
9040
6040
6000
ENDCHAR
STARTCHAR 3045
ENCODING 10789
SWIDTH 1400 0
DWIDTH 14 0
BBX 4 8 5 -1
BITMAP
30
00
70
90
10
10
10
20
ENDCHAR
STARTCHAR 3046
ENCODING 10790
SWIDTH 1400 0
DWIDTH 14 0
BBX 6 12 4 -2
BITMAP
20
18
00
00
FC
04
04
04
04
08
10
20
ENDCHAR
STARTCHAR 3047
ENCODING 10791
SWIDTH 1400 0
DWIDTH 14 0
BBX 7 9 3 -2
BITMAP
10
08
08
38
10
20
50
8A
04
ENDCHAR
STARTCHAR 3048
ENCODING 10792
SWIDTH 1400 0
DWIDTH 14 0
BBX 10 10 2 -1
BITMAP
0400
0000
0000
3E00
0400
0800
1000
3000
4800
87C0
ENDCHAR
STARTCHAR 3049
ENCODING 10793
SWIDTH 1400 0
DWIDTH 14 0
BBX 8 8 3 -1
BITMAP
20
20
39
60
2E
31
E1
66
ENDCHAR
STARTCHAR 304A
ENCODING 10794
SWIDTH 1400 0
DWIDTH 14 0
BBX 10 10 2 -1
BITMAP
1800
1180
5C40
3000
1100
1EC0
1040
F040
7380
1000
ENDCHAR
STARTCHAR 304B
ENCODING 10795
SWIDTH 1400 0
DWIDTH 14 0
BBX 10 10 2 0
BITMAP
1000
1000
1000
1C80
E240
2240
4440
4400
8400
B800
ENDCHAR
STARTCHAR 304C
ENCODING 10796
SWIDTH 1400 0
DWIDTH 14 0
BBX 12 10 1 -1
BITMAP
0810
0820
0840
B720
5120
2220
2200
4200
4C00
0800
ENDCHAR
STARTCHAR 304D
ENCODING 10797
SWIDTH 1400 0
DWIDTH 14 0
BBX 8 11 3 -1
BITMAP
60
14
B8
4A
1C
64
02
7F
80
40
3C
ENDCHAR
STARTCHAR 304E
ENCODING 10798
SWIDTH 1400 0
DWIDTH 14 0
BBX 10 11 3 -1
BITMAP
6000
1540
B800
4A00
0C00
7400
0200
7F00
8000
4000
3C00
ENDCHAR
STARTCHAR 304F
ENCODING 10799
SWIDTH 1400 0
DWIDTH 14 0
BBX 5 11 4 -1
BITMAP
08
08
10
20
40
80
40
20
10
08
08
ENDCHAR
STARTCHAR 3050
ENCODING 10800
SWIDTH 1400 0
DWIDTH 14 0
BBX 8 11 4 -1
BITMAP
08
08
10
21
42
80
40
20
10
08
08
ENDCHAR
STARTCHAR 3051
ENCODING 10801
SWIDTH 1400 0
DWIDTH 14 0
BBX 10 11 2 -1
BITMAP
8200
4100
4100
83C0
8D00
8100
8100
C100
C200
4200
0400
ENDCHAR
STARTCHAR 3052
ENCODING 10802
SWIDTH 1400 0
DWIDTH 14 0
BBX 11 11 2 -1
BITMAP
8220
4160
8100
83C0
8D00
8100
8100
C100
8200
0200
0400
ENDCHAR
STARTCHAR 3053
ENCODING 10803
SWIDTH 1400 0
DWIDTH 14 0
BBX 9 8 2 0
BITMAP
1E00
0700
0000
0000
0000
8000
4000
3F80
ENDCHAR
STARTCHAR 3054
ENCODING 10804
SWIDTH 1400 0
DWIDTH 14 0
BBX 11 10 2 0
BITMAP
0040
0020
1E40
0700
0000
0000
0000
8000
4000
3F80
ENDCHAR
STARTCHAR 3055
ENCODING 10805
SWIDTH 1400 0
DWIDTH 14 0
BBX 8 11 3 -1
BITMAP
38
26
14
FC
04
02
7F
81
80
40
3C
ENDCHAR
STARTCHAR 3056
ENCODING 10806
SWIDTH 1400 0
DWIDTH 14 0
BBX 10 11 3 -1
BITMAP
3800
26C0
1480
FC00
0400
0200
7F00
8100
8000
4000
3C00
ENDCHAR
STARTCHAR 3057
ENCODING 10807
SWIDTH 1400 0
DWIDTH 14 0
BBX 7 10 4 -1
BITMAP
80
80
80
80
80
80
80
80
86
78
ENDCHAR
STARTCHAR 3058
ENCODING 10808
SWIDTH 1400 0
DWIDTH 14 0
BBX 8 10 3 -1
BITMAP
40
44
4A
40
40
80
80
80
43
3C
ENDCHAR
STARTCHAR 3059
ENCODING 10809
SWIDTH 1400 0
DWIDTH 14 0
BBX 11 12 2 -1
BITMAP
0800
0400
0400
1FE0
E400
0C00
3400
2400
1400
0C00
0800
0800
ENDCHAR
STARTCHAR 305A
ENCODING 10810
SWIDTH 1400 0
DWIDTH 14 0
BBX 11 12 2 -1
BITMAP
0800
0440
0480
1FE0
E400
0C00
3400
2400
1400
0C00
0400
0800
ENDCHAR
STARTCHAR 305B
ENCODING 10811
SWIDTH 1400 0
DWIDTH 14 0
BBX 12 10 1 -1
BITMAP
0080
1880
0880
0BF0
FC80
0880
0980
0800
0660
0180
ENDCHAR
STARTCHAR 305C
ENCODING 10812
SWIDTH 1400 0
DWIDTH 14 0
BBX 12 9 2 0
BITMAP
0130
3140
1100
1FE0
F100
1100
1200
1000
0FC0
ENDCHAR
STARTCHAR 305D
ENCODING 10813
SWIDTH 1400 0
DWIDTH 14 0
BBX 10 11 2 -1
BITMAP
0200
1E00
0400
0800
13C0
3C00
C800
1000
1000
0800
0600
ENDCHAR
STARTCHAR 305E
ENCODING 10814
SWIDTH 1400 0
DWIDTH 14 0
BBX 11 11 2 -1
BITMAP
0200
1E20
0440
0800
13C0
3C00
C800
1000
1000
0800
0700
ENDCHAR
STARTCHAR 305F
ENCODING 10815
SWIDTH 1400 0
DWIDTH 14 0
BBX 10 11 2 -1
BITMAP
2000
1000
1C00
3300
60C0
4040
4000
4000
8800
8800
07C0
ENDCHAR
STARTCHAR 3060
ENCODING 10816
SWIDTH 1400 0
DWIDTH 14 0
BBX 12 10 2 -1
BITMAP
1020
1C50
3380
60C0
2040
4000
4000
8800
8800
07C0
ENDCHAR
STARTCHAR 3061
ENCODING 10817
SWIDTH 1400 0
DWIDTH 14 0
BBX 9 10 3 -1
BITMAP
2000
2C00
F000
4000
4000
5F00
6080
4080
0100
0600
ENDCHAR
STARTCHAR 3062
ENCODING 10818
SWIDTH 1400 0
DWIDTH 14 0
BBX 11 11 2 -1
BITMAP
1000
1000
BCA0
6040
2000
2780
3840
2040
0080
0380
0E00
ENDCHAR
STARTCHAR 3063
ENCODING 10819
SWIDTH 1400 0
DWIDTH 14 0
BBX 8 6 3 -1
BITMAP
06
79
81
01
01
06
ENDCHAR
STARTCHAR 3064
ENCODING 10820
SWIDTH 1400 0
DWIDTH 14 0
BBX 11 7 1 0
BITMAP
0FC0
B020
6020
0020
0020
0040
0180
ENDCHAR
STARTCHAR 3065
ENCODING 10821
SWIDTH 1400 0
DWIDTH 14 0
BBX 12 9 2 0
BITMAP
0020
0050
1FA0
E080
8040
0040
0080
0180
0600
ENDCHAR
STARTCHAR 3066
ENCODING 10822
SWIDTH 1400 0
DWIDTH 14 0
BBX 10 9 2 0
BITMAP
03C0
FE00
0400
0800
1000
1000
1000
0800
0700
ENDCHAR
STARTCHAR 3067
ENCODING 10823
SWIDTH 1400 0
DWIDTH 14 0
BBX 11 9 2 0
BITMAP
03C0
FE00
04A0
0840
1000
1000
1000
0800
0700
ENDCHAR
STARTCHAR 3068
ENCODING 10824
SWIDTH 1400 0
DWIDTH 14 0
BBX 8 10 3 -1
BITMAP
20
20
20
26
18
60
80
80
80
7F
ENDCHAR
STARTCHAR 3069
ENCODING 10825
SWIDTH 1400 0
DWIDTH 14 0
BBX 9 11 3 -1
BITMAP
0080
2200
2100
2000
2600
1800
6000
8000
8000
8000
7F00
ENDCHAR
STARTCHAR 306A
ENCODING 10826
SWIDTH 1400 0
DWIDTH 14 0
BBX 10 12 2 -2
BITMAP
0800
0800
9C00
6000
20C0
4300
C200
8200
0200
3F00
1480
0800
ENDCHAR
STARTCHAR 306B
ENCODING 10827
SWIDTH 1400 0
DWIDTH 14 0
BBX 10 9 2 0
BITMAP
4000
4380
4580
8000
8000
C000
D000
CCC0
4380
ENDCHAR
STARTCHAR 306C
ENCODING 10828
SWIDTH 1400 0
DWIDTH 14 0
BBX 12 9 1 -1
BITMAP
0400
0400
5FC0
2420
2820
D820
9020
6BE0
43B0
ENDCHAR
STARTCHAR 306D
ENCODING 10829
SWIDTH 1400 0
DWIDTH 14 0
BBX 11 10 2 -1
BITMAP
1000
1000
2000
3380
6C40
3040
2040
E040
E7C0
A3A0
ENDCHAR
STARTCHAR 306E
ENCODING 10830
SWIDTH 1400 0
DWIDTH 14 0
BBX 11 8 1 0
BITMAP
1FC0
2220
4420
8820
8820
5020
6040
0080
ENDCHAR
STARTCHAR 306F
ENCODING 10831
SWIDTH 1400 0
DWIDTH 14 0
BBX 10 10 2 -1
BITMAP
4100
4100
41C0
8700
8100
8100
C100
CF80
5140
4E00
ENDCHAR
STARTCHAR 3070
ENCODING 10832
SWIDTH 1400 0
DWIDTH 14 0
BBX 12 11 2 -1
BITMAP
0020
4130
4100
41C0
8700
8100
8100
C100
CF80
5940
4600
ENDCHAR
STARTCHAR 3071
ENCODING 10833
SWIDTH 1400 0
DWIDTH 14 0
BBX 12 11 2 -1
BITMAP
0270
4150
4130
81C0
8700
8100
8100
C100
CF80
D140
4E00
ENDCHAR
STARTCHAR 3072
ENCODING 10834
SWIDTH 1400 0
DWIDTH 14 0
BBX 10 10 2 -1
BITMAP
3100
E100
2100
4180
8240
8240
8200
8400
4800
3000
ENDCHAR
STARTCHAR 3073
ENCODING 10835
SWIDTH 1400 0
DWIDTH 14 0
BBX 11 10 2 -1
BITMAP
3120
E140
2100
4180
8240
8240
8200
8400
4800
3000
ENDCHAR
STARTCHAR 3074
ENCODING 10836
SWIDTH 1400 0
DWIDTH 14 0
BBX 12 11 2 -1
BITMAP
0060
3150
E160
4100
4180
8240
8240
8200
8400
4800
3000
ENDCHAR
STARTCHAR 3075
ENCODING 10837
SWIDTH 1400 0
DWIDTH 14 0
BBX 10 9 2 0
BITMAP
0800
0400
0400
0800
0800
0800
17C0
6440
DC00
ENDCHAR
STARTCHAR 3076
ENCODING 10838
SWIDTH 1400 0
DWIDTH 14 0
BBX 11 9 2 0
BITMAP
0800
0400
04A0
1840
0800
0800
17C0
6440
DC00
ENDCHAR
STARTCHAR 3077
ENCODING 10839
SWIDTH 1400 0
DWIDTH 14 0
BBX 11 9 2 0
BITMAP
0800
06E0
04A0
08E0
0800
0400
1FC0
E240
CC00
ENDCHAR
STARTCHAR 3078
ENCODING 10840
SWIDTH 1400 0
DWIDTH 14 0
BBX 11 6 2 1
BITMAP
1000
6800
8600
0100
00C0
0020
ENDCHAR
STARTCHAR 3079
ENCODING 10841
SWIDTH 1400 0
DWIDTH 14 0
BBX 11 8 2 1
BITMAP
0040
0080
1000
6800
8600
0100
00C0
0020
ENDCHAR
STARTCHAR 307A
ENCODING 10842
SWIDTH 1400 0
DWIDTH 14 0
BBX 11 8 2 1
BITMAP
01C0
0140
11C0
6C00
8200
0100
00C0
0020
ENDCHAR
STARTCHAR 307B
ENCODING 10843
SWIDTH 1400 0
DWIDTH 14 0
BBX 10 10 2 -1
BITMAP
4F80
4100
41C0
8F00
8100
C100
C100
CFC0
4900
4600
ENDCHAR
STARTCHAR 307C
ENCODING 10844
SWIDTH 1400 0
DWIDTH 14 0
BBX 13 10 1 -1
BITMAP
27C0
40A8
40F0
4780
4080
A080
A080
47E0
4880
0700
ENDCHAR
STARTCHAR 307D
ENCODING 10845
SWIDTH 1400 0
DWIDTH 14 0
BBX 13 11 1 -1
BITMAP
0018
47E8
40A8
4150
8780
8100
C100
C100
C7C0
4920
4600
ENDCHAR
STARTCHAR 307E
ENCODING 10846
SWIDTH 1400 0
DWIDTH 14 0
BBX 8 11 3 -1
BITMAP
10
08
08
FE
0A
7E
08
08
FC
8B
70
ENDCHAR
STARTCHAR 307F
ENCODING 10847
SWIDTH 1400 0
DWIDTH 14 0
BBX 11 9 1 0
BITMAP
0600
0A00
0400
0400
0840
37C0
50E0
A080
4100
ENDCHAR
STARTCHAR 3080
ENCODING 10848
SWIDTH 1400 0
DWIDTH 14 0
BBX 11 10 2 -1
BITMAP
2000
2800
F080
2140
E160
A100
A100
4100
4180
3F00
ENDCHAR
STARTCHAR 3081
ENCODING 10849
SWIDTH 1400 0
DWIDTH 14 0
BBX 11 10 1 -1
BITMAP
0200
0200
2780
3C60
2420
5820
9820
9820
6040
0180
ENDCHAR
STARTCHAR 3082
ENCODING 10850
SWIDTH 1400 0
DWIDTH 14 0
BBX 7 11 3 -1
BITMAP
10
10
10
70
20
E0
62
3A
42
22
3E
ENDCHAR
STARTCHAR 3083
ENCODING 10851
SWIDTH 1400 0
DWIDTH 14 0
BBX 9 8 3 -1
BITMAP
0800
7800
4F00
3080
D700
1000
0800
0400
ENDCHAR
STARTCHAR 3084
ENCODING 10852
SWIDTH 1400 0
DWIDTH 14 0
BBX 12 10 1 -1
BITMAP
0200
3C00
17F0
1810
E830
04C0
0200
0200
0100
0100
ENDCHAR
STARTCHAR 3085
ENCODING 10853
SWIDTH 1400 0
DWIDTH 14 0
BBX 9 8 3 -1
BITMAP
1800
6E00
B900
E980
6900
6B00
1600
0800
ENDCHAR
STARTCHAR 3086
ENCODING 10854
SWIDTH 1400 0
DWIDTH 14 0
BBX 11 10 1 -1
BITMAP
0C00
1380
9D40
9140
F120
D140
C940
4780
0400
0800
ENDCHAR
STARTCHAR 3087
ENCODING 10855
SWIDTH 1400 0
DWIDTH 14 0
BBX 7 9 4 -2
BITMAP
10
10
1E
10
10
10
FC
92
60
ENDCHAR
STARTCHAR 3088
ENCODING 10856
SWIDTH 1400 0
DWIDTH 14 0
BBX 8 11 2 -1
BITMAP
18
08
08
0B
0C
08
08
08
7E
CB
78
ENDCHAR
STARTCHAR 3089
ENCODING 10857
SWIDTH 1400 0
DWIDTH 14 0
BBX 9 10 3 -1
BITMAP
1000
1800
6000
4000
4000
4F00
7080
C080
0100
0600
ENDCHAR
STARTCHAR 308A
ENCODING 10858
SWIDTH 1400 0
DWIDTH 14 0
BBX 6 10 4 0
BITMAP
90
E8
C8
84
84
88
88
08
10
10
ENDCHAR
STARTCHAR 308B
ENCODING 10859
SWIDTH 1400 0
DWIDTH 14 0
BBX 8 10 3 -1
BITMAP
7C
08
10
10
3E
61
C1
39
4A
3C
ENDCHAR
STARTCHAR 308C
ENCODING 10860
SWIDTH 1400 0
DWIDTH 14 0
BBX 11 11 2 -1
BITMAP
2000
1000
2100
2F00
F100
2100
6100
6100
A200
E120
20C0
ENDCHAR
STARTCHAR 308D
ENCODING 10861
SWIDTH 1400 0
DWIDTH 14 0
BBX 10 10 2 -1
BITMAP
3E00
0400
0800
1000
2F00
3080
C040
0080
0180
0600
ENDCHAR
STARTCHAR 308E
ENCODING 10862
SWIDTH 1400 0
DWIDTH 14 0
BBX 9 8 3 -1
BITMAP
1000
2000
2000
6F00
3080
2100
E100
E600
ENDCHAR
STARTCHAR 308F
ENCODING 10863
SWIDTH 1400 0
DWIDTH 14 0
BBX 10 10 2 -1
BITMAP
1000
1000
1000
F780
3840
6040
6040
A080
E100
2200
ENDCHAR
STARTCHAR 3090
ENCODING 10864
SWIDTH 1400 0
DWIDTH 14 0
BBX 10 10 2 -1
BITMAP
3C00
0400
0800
0F00
1080
7040
A040
A740
C880
0700
ENDCHAR
STARTCHAR 3091
ENCODING 10865
SWIDTH 1400 0
DWIDTH 14 0
BBX 10 10 2 -1
BITMAP
2E00
1400
0800
1700
2100
1D00
0E00
3000
67C0
98C0
ENDCHAR
STARTCHAR 3092
ENCODING 10866
SWIDTH 1400 0
DWIDTH 14 0
BBX 9 11 3 -1
BITMAP
1800
1000
FC00
2000
2180
DE00
8800
3800
4800
4000
3E00
ENDCHAR
STARTCHAR 3093
ENCODING 10867
SWIDTH 1400 0
DWIDTH 14 0
BBX 9 10 2 -1
BITMAP
0400
0C00
0800
1000
1000
3C00
4400
4400
8480
0300
ENDCHAR
STARTCHAR 30A1
ENCODING 11041
SWIDTH 1400 0
DWIDTH 14 0
BBX 8 7 3 0
BITMAP
02
FF
04
18
10
10
20
ENDCHAR
STARTCHAR 30A2
ENCODING 11042
SWIDTH 1400 0
DWIDTH 14 0
BBX 10 10 2 -1
BITMAP
0F80
F0C0
0900
0600
0C00
0800
0800
1000
1000
2000
ENDCHAR
STARTCHAR 30A3
ENCODING 11043
SWIDTH 1400 0
DWIDTH 14 0
BBX 6 9 4 -1
BITMAP
08
0C
08
30
50
90
10
10
10
ENDCHAR
STARTCHAR 30A4
ENCODING 11044
SWIDTH 1400 0
DWIDTH 14 0
BBX 7 11 4 -1
BITMAP
02
06
0C
08
18
28
C8
08
08
08
08
ENDCHAR
STARTCHAR 30A5
ENCODING 11045
SWIDTH 1400 0
DWIDTH 14 0
BBX 7 8 4 -1
BITMAP
20
20
FC
86
84
88
08
10
ENDCHAR
STARTCHAR 30A6
ENCODING 11046
SWIDTH 1400 0
DWIDTH 14 0
BBX 9 9 3 1
BITMAP
1800
1000
FF00
8180
8100
8200
0200
0400
0800
ENDCHAR
STARTCHAR 30A7
ENCODING 11047
SWIDTH 1400 0
DWIDTH 14 0
BBX 8 5 3 -1
BITMAP
0E
38
08
10
FF
ENDCHAR
STARTCHAR 30A8
ENCODING 11048
SWIDTH 1400 0
DWIDTH 14 0
BBX 10 7 2 1
BITMAP
6F80
1800
0400
0400
0400
BFC0
4000
ENDCHAR
STARTCHAR 30A9
ENCODING 11049
SWIDTH 1400 0
DWIDTH 14 0
BBX 8 8 3 -1
BITMAP
08
08
FF
18
28
48
08
08
ENDCHAR
STARTCHAR 30AA
ENCODING 11050
SWIDTH 1400 0
DWIDTH 14 0
BBX 11 10 2 -1
BITMAP
0200
0200
9FE0
6600
0A00
1200
2200
4200
0E00
0200
ENDCHAR
STARTCHAR 30AB
ENCODING 11051
SWIDTH 1400 0
DWIDTH 14 0
BBX 10 10 2 -1
BITMAP
0600
0400
4780
38C0
0880
1080
2100
4100
8600
0200
ENDCHAR
STARTCHAR 30AC
ENCODING 11052
SWIDTH 1400 0
DWIDTH 14 0
BBX 12 9 2 0
BITMAP
0620
0450
4FA0
38C0
0880
1080
2100
4100
8600
ENDCHAR
STARTCHAR 30AD
ENCODING 11053
SWIDTH 1400 0
DWIDTH 14 0
BBX 10 10 2 -1
BITMAP
1800
0900
0E00
7800
08C0
0700
FC00
0400
0200
0200
ENDCHAR
STARTCHAR 30AE
ENCODING 11054
SWIDTH 1400 0
DWIDTH 14 0
BBX 10 11 3 -1
BITMAP
2080
1140
1680
3800
D000
0F80
3800
C800
0800
0400
0400
ENDCHAR
STARTCHAR 30AF
ENCODING 11055
SWIDTH 1400 0
DWIDTH 14 0
BBX 7 10 4 0
BITMAP
20
10
2E
44
84
08
10
10
20
C0
ENDCHAR
STARTCHAR 30B0
ENCODING 11056
SWIDTH 1400 0
DWIDTH 14 0
BBX 10 11 4 -1
BITMAP
0080
1140
3E00
2200
4400
8400
0800
1000
2000
4000
8000
ENDCHAR
STARTCHAR 30B1
ENCODING 11057
SWIDTH 1400 0
DWIDTH 14 0
BBX 10 9 2 0
BITMAP
1000
1000
23C0
5E00
8200
0400
0400
0800
1000
ENDCHAR
STARTCHAR 30B2
ENCODING 11058
SWIDTH 1400 0
DWIDTH 14 0
BBX 11 10 3 0
BITMAP
0040
20A0
2000
4F80
B400
0400
0800
0800
1000
2000
ENDCHAR
STARTCHAR 30B3
ENCODING 11059
SWIDTH 1400 0
DWIDTH 14 0
BBX 8 7 3 0
BITMAP
BF
41
02
02
02
BE
40
ENDCHAR
STARTCHAR 30B4
ENCODING 11060
SWIDTH 1400 0
DWIDTH 14 0
BBX 10 8 4 1
BITMAP
0040
0480
FA00
0400
0400
0400
0400
F800
ENDCHAR
STARTCHAR 30B5
ENCODING 11061
SWIDTH 1400 0
DWIDTH 14 0
BBX 9 10 3 0
BITMAP
0400
2400
2400
7F80
A400
2400
2400
0800
0800
1000
ENDCHAR
STARTCHAR 30B6
ENCODING 11062
SWIDTH 1400 0
DWIDTH 14 0
BBX 11 10 3 0
BITMAP
0400
22A0
2200
7FC0
A200
2200
2200
0400
0400
0800
ENDCHAR
STARTCHAR 30B7
ENCODING 11063
SWIDTH 1400 0
DWIDTH 14 0
BBX 9 9 2 0
BITMAP
2000
1000
0000
C080
2100
0200
0400
1800
2000
ENDCHAR
STARTCHAR 30B8
ENCODING 11064
SWIDTH 1400 0
DWIDTH 14 0
BBX 9 9 3 0
BITMAP
4100
2280
0000
8100
4100
0600
0800
3000
C000
ENDCHAR
STARTCHAR 30B9
ENCODING 11065
SWIDTH 1400 0
DWIDTH 14 0
BBX 10 8 2 0
BITMAP
3F00
0200
0200
0400
0C00
1300
2080
C040
ENDCHAR
STARTCHAR 30BA
ENCODING 11066
SWIDTH 1400 0
DWIDTH 14 0
BBX 11 10 2 0
BITMAP
0040
0060
3F40
0200
0200
0400
0C00
1300
2080
C040
ENDCHAR
STARTCHAR 30BB
ENCODING 11067
SWIDTH 1400 0
DWIDTH 14 0
BBX 10 9 2 0
BITMAP
1800
0800
0800
0FC0
F880
0800
0800
0800
07C0
ENDCHAR
STARTCHAR 30BC
ENCODING 11068
SWIDTH 1400 0
DWIDTH 14 0
BBX 12 9 2 0
BITMAP
1820
0850
0820
0FC0
F880
0800
0800
0800
07C0
ENDCHAR
STARTCHAR 30BD
ENCODING 11069
SWIDTH 1400 0
DWIDTH 14 0
BBX 8 9 3 0
BITMAP
02
81
43
42
04
04
08
10
20
ENDCHAR
STARTCHAR 30BE
ENCODING 11070
SWIDTH 1400 0
DWIDTH 14 0
BBX 11 10 3 0
BITMAP
0040
02A0
8140
4300
4200
0400
0C00
0800
1000
2000
ENDCHAR
STARTCHAR 30BF
ENCODING 11071
SWIDTH 1400 0
DWIDTH 14 0
BBX 8 10 3 -1
BITMAP
08
17
22
62
9C
08
08
10
60
80
ENDCHAR
STARTCHAR 30C0
ENCODING 11072
SWIDTH 1400 0
DWIDTH 14 0
BBX 10 11 4 -1
BITMAP
0080
1140
2E80
4600
4400
B800
1800
1000
2000
4000
8000
ENDCHAR
STARTCHAR 30C1
ENCODING 11073
SWIDTH 1400 0
DWIDTH 14 0
BBX 10 10 2 0
BITMAP
0200
0E00
3800
0400
0FC0
F400
0400
0800
0800
1000
ENDCHAR
STARTCHAR 30C2
ENCODING 11074
SWIDTH 1400 0
DWIDTH 14 0
BBX 11 10 2 0
BITMAP
0200
0C20
3860
0400
1FC0
E400
0400
0800
0800
1000
ENDCHAR
STARTCHAR 30C3
ENCODING 11075
SWIDTH 1400 0
DWIDTH 14 0
BBX 8 6 3 -1
BITMAP
93
52
04
04
08
10
ENDCHAR
STARTCHAR 30C4
ENCODING 11076
SWIDTH 1400 0
DWIDTH 14 0
BBX 9 8 2 0
BITMAP
8880
4880
4100
0100
0200
0400
0800
1000
ENDCHAR
STARTCHAR 30C5
ENCODING 11077
SWIDTH 1400 0
DWIDTH 14 0
BBX 12 9 2 0
BITMAP
0050
88A0
4880
4080
0100
0200
0200
0400
0800
ENDCHAR
STARTCHAR 30C6
ENCODING 11078
SWIDTH 1400 0
DWIDTH 14 0
BBX 10 10 2 0
BITMAP
2700
1800
0000
BFC0
4400
0400
0800
0800
1000
1000
ENDCHAR
STARTCHAR 30C7
ENCODING 11079
SWIDTH 1400 0
DWIDTH 14 0
BBX 12 9 2 1
BITMAP
2700
1850
0020
BFC0
4400
0400
0800
0800
1000
ENDCHAR
STARTCHAR 30C8
ENCODING 11080
SWIDTH 1400 0
DWIDTH 14 0
BBX 5 11 6 -1
BITMAP
80
80
80
80
C0
B0
88
80
80
80
80
ENDCHAR
STARTCHAR 30C9
ENCODING 11081
SWIDTH 1400 0
DWIDTH 14 0
BBX 6 11 6 -1
BITMAP
80
88
94
88
C0
B0
88
80
80
80
80
ENDCHAR
STARTCHAR 30CA
ENCODING 11082
SWIDTH 1400 0
DWIDTH 14 0
BBX 10 11 2 -2
BITMAP
0400
0400
0400
3FC0
C400
0400
0400
0800
0800
1000
2000
ENDCHAR
STARTCHAR 30CB
ENCODING 11083
SWIDTH 1400 0
DWIDTH 14 0
BBX 10 6 2 1
BITMAP
3F00
0000
0000
0000
FFC0
4000
ENDCHAR
STARTCHAR 30CC
ENCODING 11084
SWIDTH 1400 0
DWIDTH 14 0
BBX 7 9 4 0
BITMAP
0E
72
04
48
38
18
24
44
80
ENDCHAR
STARTCHAR 30CD
ENCODING 11085
SWIDTH 1400 0
DWIDTH 14 0
BBX 9 11 3 -1
BITMAP
1000
0C00
0200
7E00
0800
1800
2A00
C980
0880
0800
0800
ENDCHAR
STARTCHAR 30CE
ENCODING 11086
SWIDTH 1400 0
DWIDTH 14 0
BBX 7 9 4 0
BITMAP
04
06
04
08
08
10
20
40
80
ENDCHAR
STARTCHAR 30CF
ENCODING 11087
SWIDTH 1400 0
DWIDTH 14 0
BBX 11 5 2 2
BITMAP
0200
1100
20C0
4060
8020
ENDCHAR
STARTCHAR 30D0
ENCODING 11088
SWIDTH 1400 0
DWIDTH 14 0
BBX 12 6 2 2
BITMAP
0050
2220
3100
20C0
4040
8020
ENDCHAR
STARTCHAR 30D1
ENCODING 11089
SWIDTH 1400 0
DWIDTH 14 0
BBX 12 7 2 2
BITMAP
0070
0050
0270
1100
20C0
4040
8020
ENDCHAR
STARTCHAR 30D2
ENCODING 11090
SWIDTH 1400 0
DWIDTH 14 0
BBX 9 10 3 0
BITMAP
8000
4000
4000
4600
7800
4000
4000
4000
4000
3F80
ENDCHAR
STARTCHAR 30D3
ENCODING 11091
SWIDTH 1400 0
DWIDTH 14 0
BBX 10 10 3 0
BITMAP
8000
4080
4140
4680
7800
4000
4000
4000
4000
3F80
ENDCHAR
STARTCHAR 30D4
ENCODING 11092
SWIDTH 1400 0
DWIDTH 14 0
BBX 10 10 3 0
BITMAP
8180
4240
4180
4600
7800
4000
4000
4000
4000
3F80
ENDCHAR
STARTCHAR 30D5
ENCODING 11093
SWIDTH 1400 0
DWIDTH 14 0
BBX 10 9 2 -1
BITMAP
FF80
40C0
0080
0100
0100
0200
0400
0800
1000
ENDCHAR
STARTCHAR 30D6
ENCODING 11094
SWIDTH 1400 0
DWIDTH 14 0
BBX 12 10 2 -1
BITMAP
0030
FF80
4080
0180
0100
0200
0200
0400
0800
1000
ENDCHAR
STARTCHAR 30D7
ENCODING 11095
SWIDTH 1400 0
DWIDTH 14 0
BBX 12 11 2 -1
BITMAP
0070
0050
FFA0
4080
0100
0100
0200
0400
0800
1000
2000
ENDCHAR
STARTCHAR 30D8
ENCODING 11096
SWIDTH 1400 0
DWIDTH 14 0
BBX 12 5 1 2
BITMAP
1C00
2200
C100
00C0
0030
ENDCHAR
STARTCHAR 30D9
ENCODING 11097
SWIDTH 1400 0
DWIDTH 14 0
BBX 12 6 1 2
BITMAP
0060
1C00
2200
C100
00C0
0030
ENDCHAR
STARTCHAR 30DA
ENCODING 11098
SWIDTH 1400 0
DWIDTH 14 0
BBX 12 7 1 2
BITMAP
00E0
00A0
1CE0
2200
C100
00C0
0030
ENDCHAR
STARTCHAR 30DB
ENCODING 11099
SWIDTH 1400 0
DWIDTH 14 0
BBX 10 11 2 -1
BITMAP
0C00
0400
0400
7FC0
0400
0400
4400
4480
8440
0C00
0400
ENDCHAR
STARTCHAR 30DC
ENCODING 11100
SWIDTH 1400 0
DWIDTH 14 0
BBX 11 11 2 -1
BITMAP
0C00
0420
0440
7FC0
0400
0400
4500
4480
8440
8C00
0400
ENDCHAR
STARTCHAR 30DD
ENCODING 11101
SWIDTH 1400 0
DWIDTH 14 0
BBX 11 12 2 -1
BITMAP
00E0
0CA0
04A0
04E0
7FC0
0400
0400
4400
4480
8440
0C00
0400
ENDCHAR
STARTCHAR 30DE
ENCODING 11102
SWIDTH 1400 0
DWIDTH 14 0
BBX 11 7 1 1
BITMAP
01E0
9F20
6040
0880
0700
0200
0200
ENDCHAR
STARTCHAR 30DF
ENCODING 11103
SWIDTH 1400 0
DWIDTH 14 0
BBX 5 9 5 0
BITMAP
C0
30
00
00
70
00
00
C0
38
ENDCHAR
STARTCHAR 30E0
ENCODING 11104
SWIDTH 1400 0
DWIDTH 14 0
BBX 10 8 2 0
BITMAP
0400
0C00
0800
1000
1100
2080
FF40
4040
ENDCHAR
STARTCHAR 30E1
ENCODING 11105
SWIDTH 1400 0
DWIDTH 14 0
BBX 8 8 3 0
BITMAP
01
02
16
0C
0E
12
20
C0
ENDCHAR
STARTCHAR 30E2
ENCODING 11106
SWIDTH 1400 0
DWIDTH 14 0
BBX 10 9 2 0
BITMAP
0100
3E00
0800
0800
BFC0
4800
0800
0800
07C0
ENDCHAR
STARTCHAR 30E3
ENCODING 11107
SWIDTH 1400 0
DWIDTH 14 0
BBX 9 7 2 -1
BITMAP
1800
0B80
BD80
4800
0800
0400
0400
ENDCHAR
STARTCHAR 30E4
ENCODING 11108
SWIDTH 1400 0
DWIDTH 14 0
BBX 12 9 1 0
BITMAP
0800
0860
07B0
FC40
0400
0400
0200
0200
0200
ENDCHAR
STARTCHAR 30E5
ENCODING 11109
SWIDTH 1400 0
DWIDTH 14 0
BBX 8 6 3 -2
BITMAP
44
3C
08
08
FF
80
ENDCHAR
STARTCHAR 30E6
ENCODING 11110
SWIDTH 1400 0
DWIDTH 14 0
BBX 11 7 1 1
BITMAP
0100
1F80
0100
0100
0200
FFE0
4000
ENDCHAR
STARTCHAR 30E7
ENCODING 11111
SWIDTH 1400 0
DWIDTH 14 0
BBX 6 6 4 -1
BITMAP
BC
44
0C
78
08
F8
ENDCHAR
STARTCHAR 30E8
ENCODING 11112
SWIDTH 1400 0
DWIDTH 14 0
BBX 8 7 3 1
BITMAP
7F
01
02
7E
02
02
FE
ENDCHAR
STARTCHAR 30E9
ENCODING 11113
SWIDTH 1400 0
DWIDTH 14 0
BBX 8 10 3 -1
BITMAP
7E
00
0F
F1
02
06
04
08
10
60
ENDCHAR
STARTCHAR 30EA
ENCODING 11114
SWIDTH 1400 0
DWIDTH 14 0
BBX 6 10 4 0
BITMAP
08
84
84
84
84
84
84
04
08
10
ENDCHAR
STARTCHAR 30EB
ENCODING 11115
SWIDTH 1400 0
DWIDTH 14 0
BBX 11 8 1 0
BITMAP
2200
1200
1200
2200
2220
42C0
4300
8000
ENDCHAR
STARTCHAR 30EC
ENCODING 11116
SWIDTH 1400 0
DWIDTH 14 0
BBX 7 8 4 0
BITMAP
80
80
80
86
88
B0
C0
80
ENDCHAR
STARTCHAR 30ED
ENCODING 11117
SWIDTH 1400 0
DWIDTH 14 0
BBX 8 7 3 1
BITMAP
FF
41
41
41
42
7E
40
ENDCHAR
STARTCHAR 30EE
ENCODING 11118
SWIDTH 1400 0
DWIDTH 14 0
BBX 8 7 3 -1
BITMAP
7E
83
42
44
08
08
10
ENDCHAR
STARTCHAR 30EF
ENCODING 11119
SWIDTH 1400 0
DWIDTH 14 0
BBX 9 9 3 0
BITMAP
FF00
8180
8100
8200
8200
0400
0800
1000
2000
ENDCHAR
STARTCHAR 30F0
ENCODING 11120
SWIDTH 1400 0
DWIDTH 14 0
BBX 11 12 1 -1
BITMAP
0200
0100
0100
1FC0
0100
1100
1200
BFE0
4200
0200
0200
0200
ENDCHAR
STARTCHAR 30F1
ENCODING 11121
SWIDTH 1400 0
DWIDTH 14 0
BBX 12 8 1 1
BITMAP
0080
3FC0
0100
0600
0400
0400
9FE0
6030
ENDCHAR
STARTCHAR 30F2
ENCODING 11122
SWIDTH 1400 0
DWIDTH 14 0
BBX 8 10 3 -1
BITMAP
9F
61
02
BE
42
04
08
10
20
40
ENDCHAR
STARTCHAR 30F3
ENCODING 11123
SWIDTH 1400 0
DWIDTH 14 0
BBX 9 8 3 0
BITMAP
6000
2080
0100
0200
0400
1800
E000
4000
ENDCHAR
STARTCHAR 30F4
ENCODING 11124
SWIDTH 1400 0
DWIDTH 14 0
BBX 11 9 3 1
BITMAP
1800
1060
FF00
8180
8100
8200
8200
0400
0800
ENDCHAR
STARTCHAR 30F5
ENCODING 11125
SWIDTH 1400 0
DWIDTH 14 0
BBX 6 7 4 -1
BITMAP
10
1C
64
24
44
88
18
ENDCHAR
STARTCHAR 30F6
ENCODING 11126
SWIDTH 1400 0
DWIDTH 14 0
BBX 7 7 4 -1
BITMAP
40
46
B8
10
10
20
40
ENDCHAR
STARTCHAR 0410
ENCODING 11297
SWIDTH 1400 0
DWIDTH 14 0
BBX 10 9 1 0
BITMAP
0E00
0A00
1200
1100
1100
1F80
2080
4040
E0C0
ENDCHAR
STARTCHAR 0411
ENCODING 11298
SWIDTH 1400 0
DWIDTH 14 0
BBX 8 10 3 0
BITMAP
7F
21
20
20
20
3E
21
21
21
FE
ENDCHAR
STARTCHAR 0412
ENCODING 11299
SWIDTH 1400 0
DWIDTH 14 0
BBX 9 10 2 0
BITMAP
7E00
2300
2180
2100
2200
3F00
2180
2080
2180
FF00
ENDCHAR
STARTCHAR 0413
ENCODING 11300
SWIDTH 1400 0
DWIDTH 14 0
BBX 9 10 2 0
BITMAP
FF80
2080
2080
2000
2000
2000
2000
2000
2000
E000
ENDCHAR
STARTCHAR 0414
ENCODING 11301
SWIDTH 1400 0
DWIDTH 14 0
BBX 10 12 2 -2
BITMAP
7FC0
1100
1100
1100
2100
2100
2100
4100
8100
FF80
8040
0040
ENDCHAR
STARTCHAR 0415
ENCODING 11302
SWIDTH 1400 0
DWIDTH 14 0
BBX 7 9 3 0
BITMAP
FE
40
40
40
7C
40
40
40
42
ENDCHAR
STARTCHAR 0401
ENCODING 11303
SWIDTH 1400 0
DWIDTH 14 0
BBX 9 11 2 0
BITMAP
3300
0000
FF00
2100
2000
2100
3F00
2100
2000
2080
FF80
ENDCHAR
STARTCHAR 0416
ENCODING 11304
SWIDTH 1400 0
DWIDTH 14 0
BBX 13 10 0 0
BITMAP
CF98
A228
2240
1240
1280
0F80
1AC0
3260
2220
4F90
ENDCHAR
STARTCHAR 0417
ENCODING 11305
SWIDTH 1400 0
DWIDTH 14 0
BBX 6 11 4 -1
BITMAP
B0
CC
84
04
08
30
08
04
04
84
78
ENDCHAR
STARTCHAR 0418
ENCODING 11306
SWIDTH 1400 0
DWIDTH 14 0
BBX 11 10 2 0
BITMAP
F3E0
4080
4380
4480
4480
4880
5080
6080
4080
F3E0
ENDCHAR
STARTCHAR 0419
ENCODING 11307
SWIDTH 1400 0
DWIDTH 14 0
BBX 12 11 1 -1
BITMAP
0980
FFF0
2040
20C0
2140
2240
2C40
3040
2040
2040
50A0
ENDCHAR
STARTCHAR 041A
ENCODING 11308
SWIDTH 1400 0
DWIDTH 14 0
BBX 10 11 2 -1
BITMAP
78C0
2340
2200
2200
2400
3C00
2600
2300
2100
F880
0040
ENDCHAR
STARTCHAR 041B
ENCODING 11309
SWIDTH 1400 0
DWIDTH 14 0
BBX 9 9 2 0
BITMAP
3F80
1100
1100
1100
1100
1100
1100
2100
C300
ENDCHAR
STARTCHAR 041C
ENCODING 11310
SWIDTH 1400 0
DWIDTH 14 0
BBX 13 10 1 0
BITMAP
C030
6060
60A0
50A0
5120
4920
4920
4620
4220
E0F8
ENDCHAR
STARTCHAR 041D
ENCODING 11311
SWIDTH 1400 0
DWIDTH 14 0
BBX 12 10 1 0
BITMAP
F9F0
2040
2040
2040
2040
3FC0
2040
2040
2040
F870
ENDCHAR
STARTCHAR 041E
ENCODING 11312
SWIDTH 1400 0
DWIDTH 14 0
BBX 10 10 2 0
BITMAP
1E00
6180
4080
8040
8040
8040
8040
4080
6180
1E00
ENDCHAR
STARTCHAR 041F
ENCODING 11313
SWIDTH 1400 0
DWIDTH 14 0
BBX 11 11 1 -1
BITMAP
FFE0
2040
2040
2040
2040
2040
2040
2040
2040
3060
4080
ENDCHAR
STARTCHAR 0420
ENCODING 11314
SWIDTH 1400 0
DWIDTH 14 0
BBX 8 10 3 0
BITMAP
3E
23
21
21
23
3E
20
20
20
F0
ENDCHAR
STARTCHAR 0421
ENCODING 11315
SWIDTH 1400 0
DWIDTH 14 0
BBX 9 11 3 -1
BITMAP
1C00
2380
4080
8000
8000
8000
8000
8000
4080
3100
0E00
ENDCHAR
STARTCHAR 0422
ENCODING 11316
SWIDTH 1400 0
DWIDTH 14 0
BBX 9 10 2 0
BITMAP
FF80
8880
0800
0800
0800
0800
0800
0800
0800
1800
ENDCHAR
STARTCHAR 0423
ENCODING 11317
SWIDTH 1400 0
DWIDTH 14 0
BBX 8 9 3 0
BITMAP
C1
41
42
22
24
18
18
10
F0
ENDCHAR
STARTCHAR 0424
ENCODING 11318
SWIDTH 1400 0
DWIDTH 14 0
BBX 10 10 2 0
BITMAP
0F00
0400
3F00
4480
8440
8440
8440
4480
3F00
1C00
ENDCHAR
STARTCHAR 0425
ENCODING 11319
SWIDTH 1400 0
DWIDTH 14 0
BBX 10 10 2 0
BITMAP
71C0
2080
2100
1200
0C00
0C00
1400
2200
4100
C180
ENDCHAR
STARTCHAR 0426
ENCODING 11320
SWIDTH 1400 0
DWIDTH 14 0
BBX 12 12 1 -2
BITMAP
38F0
2040
2040
2040
2040
2040
2040
2040
2040
FFC0
0030
0010
ENDCHAR
STARTCHAR 0427
ENCODING 11321
SWIDTH 1400 0
DWIDTH 14 0
BBX 10 10 2 0
BITMAP
FFC0
2100
2100
2100
2100
2100
1F00
0100
0100
01C0
ENDCHAR
STARTCHAR 0428
ENCODING 11322
SWIDTH 1400 0
DWIDTH 14 0
BBX 12 9 1 0
BITMAP
6430
4420
4420
4420
4420
4420
4420
4420
C420
ENDCHAR
STARTCHAR 0429
ENCODING 11323
SWIDTH 1400 0
DWIDTH 14 0
BBX 13 12 1 -2
BITMAP
EE70
4420
4420
4420
4420
4420
4420
4420
4420
FFE0
0018
0008
ENDCHAR
STARTCHAR 042A
ENCODING 11324
SWIDTH 1400 0
DWIDTH 14 0
BBX 10 10 2 0
BITMAP
7C00
8800
8800
0800
0800
0F80
08C0
0840
08C0
3F80
ENDCHAR
STARTCHAR 042B
ENCODING 11325
SWIDTH 1400 0
DWIDTH 14 0
BBX 13 10 0 0
BITMAP
7038
2010
2010
2010
2010
3E10
2110
2110
2110
FE30
ENDCHAR
STARTCHAR 042C
ENCODING 11326
SWIDTH 1400 0
DWIDTH 14 0
BBX 7 10 4 -1
BITMAP
60
40
40
40
7C
42
42
42
CC
30
ENDCHAR
STARTCHAR 042D
ENCODING 11327
SWIDTH 1400 0
DWIDTH 14 0
BBX 9 11 2 -1
BITMAP
1C00
E200
8100
8080
0080
1F80
0080
0080
0100
8300
7C00
ENDCHAR
STARTCHAR 042E
ENCODING 11328
SWIDTH 1400 0
DWIDTH 14 0
BBX 13 11 1 -1
BITMAP
F3C0
4630
4410
4808
4808
7808
4808
4808
4410
F630
03E0
ENDCHAR
STARTCHAR 042F
ENCODING 11329
SWIDTH 1400 0
DWIDTH 14 0
BBX 9 10 3 0
BITMAP
3F80
6200
4200
4200
2200
1E00
3200
2200
4200
8200
ENDCHAR
STARTCHAR 0430
ENCODING 11345
SWIDTH 1400 0
DWIDTH 14 0
BBX 5 6 4 0
BITMAP
F8
88
38
C8
88
F8
ENDCHAR
STARTCHAR 0431
ENCODING 11346
SWIDTH 1400 0
DWIDTH 14 0
BBX 7 10 4 0
BITMAP
02
3C
40
B0
C8
84
84
84
CC
78
ENDCHAR
STARTCHAR 0432
ENCODING 11347
SWIDTH 1400 0
DWIDTH 14 0
BBX 6 6 4 0
BITMAP
F8
44
78
44
44
7C
ENDCHAR
STARTCHAR 0433
ENCODING 11348
SWIDTH 1400 0
DWIDTH 14 0
BBX 5 6 5 0
BITMAP
F0
88
80
80
80
80
ENDCHAR
STARTCHAR 0434
ENCODING 11349
SWIDTH 1400 0
DWIDTH 14 0
BBX 8 8 2 -2
BITMAP
3F
12
12
22
42
3E
C1
81
ENDCHAR
STARTCHAR 0435
ENCODING 11350
SWIDTH 1400 0
DWIDTH 14 0
BBX 6 7 4 0
BITMAP
30
C8
FC
80
80
C0
78
ENDCHAR
STARTCHAR 0451
ENCODING 11351
SWIDTH 1400 0
DWIDTH 14 0
BBX 6 8 4 0
BITMAP
48
30
C8
FC
80
80
44
78
ENDCHAR
STARTCHAR 0436
ENCODING 11352
SWIDTH 1400 0
DWIDTH 14 0
BBX 9 6 2 0
BITMAP
C980
4A00
3C00
2A00
4900
8880
ENDCHAR
STARTCHAR 0437
ENCODING 11353
SWIDTH 1400 0
DWIDTH 14 0
BBX 5 7 5 -1
BITMAP
F0
10
60
10
08
10
E0
ENDCHAR
STARTCHAR 0438
ENCODING 11354
SWIDTH 1400 0
DWIDTH 14 0
BBX 6 6 4 0
BITMAP
EC
44
5C
64
44
44
ENDCHAR
STARTCHAR 0439
ENCODING 11355
SWIDTH 1400 0
DWIDTH 14 0
BBX 7 10 4 -1
BITMAP
48
48
30
EC
44
5C
64
44
44
02
ENDCHAR
STARTCHAR 043A
ENCODING 11356
SWIDTH 1400 0
DWIDTH 14 0
BBX 5 6 5 0
BITMAP
98
A0
E0
A0
90
88
ENDCHAR
STARTCHAR 043B
ENCODING 11357
SWIDTH 1400 0
DWIDTH 14 0
BBX 7 7 3 -1
BITMAP
7C
24
24
24
24
2E
C0
ENDCHAR
STARTCHAR 043C
ENCODING 11358
SWIDTH 1400 0
DWIDTH 14 0
BBX 8 6 3 0
BITMAP
81
C7
A5
A9
99
81
ENDCHAR
STARTCHAR 043D
ENCODING 11359
SWIDTH 1400 0
DWIDTH 14 0
BBX 7 7 4 -1
BITMAP
E4
44
7C
44
44
44
02
ENDCHAR
STARTCHAR 043E
ENCODING 11360
SWIDTH 1400 0
DWIDTH 14 0
BBX 6 7 4 0
BITMAP
78
CC
84
84
84
CC
78
ENDCHAR
STARTCHAR 043F
ENCODING 11361
SWIDTH 1400 0
DWIDTH 14 0
BBX 6 6 3 0
BITMAP
FC
44
44
44
44
44
ENDCHAR
STARTCHAR 0440
ENCODING 11362
SWIDTH 1400 0
DWIDTH 14 0
BBX 7 10 4 -3
BITMAP
48
74
42
42
42
42
64
58
40
E0
ENDCHAR
STARTCHAR 0441
ENCODING 11363
SWIDTH 1400 0
DWIDTH 14 0
BBX 6 8 4 -1
BITMAP
38
48
80
80
80
84
68
10
ENDCHAR
STARTCHAR 0442
ENCODING 11364
SWIDTH 1400 0
DWIDTH 14 0
BBX 7 6 3 0
BITMAP
FE
92
10
10
10
38
ENDCHAR
STARTCHAR 0443
ENCODING 11365
SWIDTH 1400 0
DWIDTH 14 0
BBX 6 9 4 -2
BITMAP
EC
84
48
48
30
30
20
20
C0
ENDCHAR
STARTCHAR 0444
ENCODING 11366
SWIDTH 1400 0
DWIDTH 14 0
BBX 9 12 2 -2
BITMAP
1800
0800
0800
3E00
4900
C880
C880
C880
4900
2A00
1C00
0800
ENDCHAR
STARTCHAR 0445
ENCODING 11367
SWIDTH 1400 0
DWIDTH 14 0
BBX 5 6 4 0
BITMAP
48
50
20
50
48
88
ENDCHAR
STARTCHAR 0446
ENCODING 11368
SWIDTH 1400 0
DWIDTH 14 0
BBX 7 8 4 -2
BITMAP
88
88
88
88
88
88
74
02
ENDCHAR
STARTCHAR 0447
ENCODING 11369
SWIDTH 1400 0
DWIDTH 14 0
BBX 5 7 5 -1
BITMAP
90
90
90
F0
10
10
08
ENDCHAR
STARTCHAR 0448
ENCODING 11370
SWIDTH 1400 0
DWIDTH 14 0
BBX 8 7 3 -1
BITMAP
89
89
89
89
89
89
76
ENDCHAR
STARTCHAR 0449
ENCODING 11371
SWIDTH 1400 0
DWIDTH 14 0
BBX 11 8 1 -2
BITMAP
EEE0
4440
4440
4440
4440
7FC0
0020
0020
ENDCHAR
STARTCHAR 044A
ENCODING 11372
SWIDTH 1400 0
DWIDTH 14 0
BBX 7 6 4 0
BITMAP
F0
20
3C
22
22
3C
ENDCHAR
STARTCHAR 044B
ENCODING 11373
SWIDTH 1400 0
DWIDTH 14 0
BBX 9 7 3 -1
BITMAP
8100
8100
F100
8900
8900
9100
6080
ENDCHAR
STARTCHAR 044C
ENCODING 11374
SWIDTH 1400 0
DWIDTH 14 0
BBX 5 7 5 -1
BITMAP
80
80
F0
88
88
90
60
ENDCHAR
STARTCHAR 044D
ENCODING 11375
SWIDTH 1400 0
DWIDTH 14 0
BBX 6 7 4 0
BITMAP
30
C8
84
3C
04
08
70
ENDCHAR
STARTCHAR 044E
ENCODING 11376
SWIDTH 1400 0
DWIDTH 14 0
BBX 9 7 3 -1
BITMAP
8F00
9080
9080
F080
9080
8900
0600
ENDCHAR
STARTCHAR 044F
ENCODING 11377
SWIDTH 1400 0
DWIDTH 14 0
BBX 5 6 4 0
BITMAP
78
88
68
38
48
88
ENDCHAR
STARTCHAR AC00
ENCODING 12321
SWIDTH 1400 0
DWIDTH 14 0
BBX 13 12 1 -2
BITMAP
0040
0040
7E40
0440
0440
0878
1040
1040
2040
C040
0040
0040
ENDCHAR
STARTCHAR AC01
ENCODING 12322
SWIDTH 1400 0
DWIDTH 14 0
BBX 12 12 2 -2
BITMAP
0080
FC80
0880
1080
20F0
4080
8080
3F80
0080
0080
0080
0080
ENDCHAR
STARTCHAR AC04
ENCODING 12323
SWIDTH 1400 0
DWIDTH 14 0
BBX 11 12 2 -2
BITMAP
0080
0080
7880
1080
1080
20E0
4080
8080
3000
1000
1000
1FC0
ENDCHAR
STARTCHAR AC07
ENCODING 12324
SWIDTH 1400 0
DWIDTH 14 0
BBX 13 12 1 -2
BITMAP
00C0
7E40
0440
0440
0878
1040
2040
C000
0FC0
0800
0800
0860
ENDCHAR
STARTCHAR AC08
ENCODING 12325
SWIDTH 1400 0
DWIDTH 14 0
BBX 12 12 2 -2
BITMAP
0180
FC80
0880
1080
10F0
2080
C080
3F80
0080
1F80
1000
1FC0
ENDCHAR
STARTCHAR AC09
ENCODING 12326
SWIDTH 1400 0
DWIDTH 14 0
BBX 13 13 1 -2
BITMAP
0180
0040
7E40
0440
0878
0840
1040
7FC0
8840
7C40
2040
2C40
1040
ENDCHAR
STARTCHAR AC0A
ENCODING 12327
SWIDTH 1400 0
DWIDTH 14 0
BBX 11 12 2 -2
BITMAP
0180
FC80
0880
1080
10E0
6080
8880
3B40
1280
6280
4B80
7200
ENDCHAR
STARTCHAR AC10
ENCODING 12328
SWIDTH 1400 0
DWIDTH 14 0
BBX 12 14 2 -3
BITMAP
0100
0080
FC80
0880
1080
10F0
2080
C080
3F80
1080
1080
1100
1F80
1000
ENDCHAR
STARTCHAR AC11
ENCODING 12329
SWIDTH 1400 0
DWIDTH 14 0
BBX 12 13 2 -2
BITMAP
0100
0080
FC80
0880
1080
10F0
2080
C180
1080
1F80
1080
1F80
1080
ENDCHAR
STARTCHAR AC12
ENCODING 12330
SWIDTH 1400 0
DWIDTH 14 0
BBX 12 13 2 -2
BITMAP
0100
0080
FC80
0880
1080
10F0
2080
D800
2880
3900
2980
3A40
2C00
ENDCHAR
STARTCHAR AC13
ENCODING 12331
SWIDTH 1400 0
DWIDTH 14 0
BBX 12 12 2 -2
BITMAP
0180
FC80
0880
1080
10F0
2080
C080
0680
0600
0900
1080
2040
ENDCHAR
STARTCHAR AC14
ENCODING 12332
SWIDTH 1400 0
DWIDTH 14 0
BBX 12 13 2 -2
BITMAP
0100
0080
FC80
0880
1080
10B0
20C0
C080
1100
1100
2A80
4240
8040
ENDCHAR
STARTCHAR AC15
ENCODING 12333
SWIDTH 1400 0
DWIDTH 14 0
BBX 12 12 2 -2
BITMAP
0180
FC80
0880
1080
10F0
6080
8080
0F80
1080
1080
1880
0F00
ENDCHAR
STARTCHAR AC16
ENCODING 12334
SWIDTH 1400 0
DWIDTH 14 0
BBX 12 13 2 -2
BITMAP
0100
0080
FC80
0880
1080
10F0
2080
C080
0180
3E00
0A00
1180
2000
ENDCHAR
STARTCHAR AC17
ENCODING 12335
SWIDTH 1400 0
DWIDTH 14 0
BBX 11 12 2 -2
BITMAP
0080
FC80
0880
1080
10E0
6080
8E00
7FC0
0400
0B00
10C0
6000
ENDCHAR
STARTCHAR AC19
ENCODING 12336
SWIDTH 1400 0
DWIDTH 14 0
BBX 12 13 2 -2
BITMAP
0100
0080
FC80
0880
1080
10F0
2080
C080
1F80
1000
1F80
1000
1FC0
ENDCHAR
STARTCHAR AC1A
ENCODING 12337
SWIDTH 1400 0
DWIDTH 14 0
BBX 12 13 2 -3
BITMAP
0080
FC80
0880
1080
10B0
20C0
C080
3F80
0200
1100
0A00
7FC0
2000
ENDCHAR
STARTCHAR AC1B
ENCODING 12338
SWIDTH 1400 0
DWIDTH 14 0
BBX 12 12 2 -2
BITMAP
0180
FC80
0480
0880
10F0
2080
4080
8E00
3D80
0B00
0900
0F00
ENDCHAR
STARTCHAR AC1C
ENCODING 12339
SWIDTH 1400 0
DWIDTH 14 0
BBX 10 13 1 -2
BITMAP
00C0
0140
0140
0140
7940
0940
11C0
1140
2140
4140
8140
0140
0040
ENDCHAR
STARTCHAR AC1D
ENCODING 12340
SWIDTH 1400 0
DWIDTH 14 0
BBX 9 12 2 -2
BITMAP
0780
0280
7A80
1280
2380
2280
4280
FF80
0080
0080
0080
0080
ENDCHAR
STARTCHAR AC20
ENCODING 12341
SWIDTH 1400 0
DWIDTH 14 0
BBX 11 12 1 -2
BITMAP
02C0
0140
7D40
0940
0940
11C0
2140
4140
9940
0840
0800
0FE0
ENDCHAR
STARTCHAR AC24
ENCODING 12342
SWIDTH 1400 0
DWIDTH 14 0
BBX 10 12 2 -2
BITMAP
0280
0280
7A80
1280
2380
2280
4280
BF80
0080
1F80
1000
1FC0
ENDCHAR
STARTCHAR AC2C
ENCODING 12343
SWIDTH 1400 0
DWIDTH 14 0
BBX 10 12 2 -2
BITMAP
0280
0280
7A80
1280
2380
2280
4280
8FC0
0840
0880
0FC0
0800
ENDCHAR
STARTCHAR AC2D
ENCODING 12344
SWIDTH 1400 0
DWIDTH 14 0
BBX 9 12 2 -2
BITMAP
0380
0280
7A80
1280
2380
2280
4380
8880
0F80
0880
0F80
0880
ENDCHAR
STARTCHAR AC2F
ENCODING 12345
SWIDTH 1400 0
DWIDTH 14 0
BBX 9 12 2 -2
BITMAP
0380
0280
7A80
1280
2380
2280
C280
0480
0400
0A00
1180
6000
ENDCHAR
STARTCHAR AC30
ENCODING 12346
SWIDTH 1400 0
DWIDTH 14 0
BBX 10 12 2 -2
BITMAP
0640
FA40
1240
1240
23C0
4240
8340
0880
1100
1D80
6240
8400
ENDCHAR
STARTCHAR AC31
ENCODING 12347
SWIDTH 1400 0
DWIDTH 14 0
BBX 9 12 2 -2
BITMAP
0380
0280
7A80
1280
2380
2280
4280
8780
0880
0880
0880
0700
ENDCHAR
STARTCHAR AC38
ENCODING 12348
SWIDTH 1400 0
DWIDTH 14 0
BBX 13 12 1 -2
BITMAP
00C0
0040
7E40
0440
0478
0840
1040
1040
2070
C040
0040
0040
ENDCHAR
STARTCHAR AC39
ENCODING 12349
SWIDTH 1400 0
DWIDTH 14 0
BBX 13 12 1 -2
BITMAP
00C0
7E40
0440
0878
0840
1040
6070
BFC0
0040
0040
0040
0040
ENDCHAR
STARTCHAR AC3C
ENCODING 12350
SWIDTH 1400 0
DWIDTH 14 0
BBX 12 12 2 -2
BITMAP
0180
FC80
0880
08F0
1080
2080
40A0
80C0
3080
1000
1000
1FC0
ENDCHAR
STARTCHAR AC40
ENCODING 12351
SWIDTH 1400 0
DWIDTH 14 0
BBX 13 13 1 -2
BITMAP
0080
0040
7E40
0440
0870
0840
1058
6060
9FC0
0040
0FC0
0800
0FE0
ENDCHAR
STARTCHAR AC4B
ENCODING 12352
SWIDTH 1400 0
DWIDTH 14 0
BBX 13 12 1 -2
BITMAP
00C0
7C40
0440
0870
0840
1058
6260
8240
0300
04C0
0860
3000
ENDCHAR
STARTCHAR AC4D
ENCODING 12353
SWIDTH 1400 0
DWIDTH 14 0
BBX 13 12 1 -2
BITMAP
00C0
7C40
0440
0878
0840
1040
6078
87C0
0840
0840
0CC0
0780
ENDCHAR
STARTCHAR AC54
ENCODING 12354
SWIDTH 1400 0
DWIDTH 14 0
BBX 10 12 1 -2
BITMAP
0240
0140
7D40
0940
09C0
1140
1140
21C0
4140
8140
0140
0040
ENDCHAR
STARTCHAR AC58
ENCODING 12355
SWIDTH 1400 0
DWIDTH 14 0
BBX 12 12 1 -1
BITMAP
0080
0340
0140
F940
09C0
1140
11C0
2140
D940
0840
0800
0FF0
ENDCHAR
STARTCHAR AC5C
ENCODING 12356
SWIDTH 1400 0
DWIDTH 14 0
BBX 11 11 1 -1
BITMAP
0220
0120
3920
09E0
11E0
2120
5FC0
8040
1FC0
0800
0FE0
ENDCHAR
STARTCHAR AC70
ENCODING 12357
SWIDTH 1400 0
DWIDTH 14 0
BBX 10 13 1 -2
BITMAP
00C0
0040
0040
7E40
0440
0440
0FC0
0840
1040
2040
C040
0040
0040
ENDCHAR
STARTCHAR AC71
ENCODING 12358
SWIDTH 1400 0
DWIDTH 14 0
BBX 9 12 2 -2
BITMAP
0180
FC80
0880
0880
1780
2080
4080
FF80
0080
0080
0080
0080
ENDCHAR
STARTCHAR AC74
ENCODING 12359
SWIDTH 1400 0
DWIDTH 14 0
BBX 10 12 2 -2
BITMAP
0180
0080
7C80
0880
1F80
2080
4080
8080
3080
1000
1000
1FC0
ENDCHAR
STARTCHAR AC77
ENCODING 12360
SWIDTH 1400 0
DWIDTH 14 0
BBX 10 12 2 -2
BITMAP
0180
FC80
0880
0880
1780
2080
4080
8080
1F80
1000
1000
1FC0
ENDCHAR
STARTCHAR AC78
ENCODING 12361
SWIDTH 1400 0
DWIDTH 14 0
BBX 10 12 2 -2
BITMAP
0180
FC80
0880
0F80
1080
2080
4080
BF80
0100
1F80
1000
1FC0
ENDCHAR
STARTCHAR AC7A
ENCODING 12362
SWIDTH 1400 0
DWIDTH 14 0
BBX 11 12 1 -2
BITMAP
00C0
7E40
0440
0440
09C0
1040
2040
DFE0
0540
1940
1DC0
0100
ENDCHAR
STARTCHAR AC80
ENCODING 12363
SWIDTH 1400 0
DWIDTH 14 0
BBX 9 12 2 -2
BITMAP
0180
FC80
0880
0880
1780
2080
4080
9F80
1080
1100
1F80
1000
ENDCHAR
STARTCHAR AC81
ENCODING 12364
SWIDTH 1400 0
DWIDTH 14 0
BBX 9 12 2 -2
BITMAP
0180
FC80
0880
0880
1780
2080
4180
9080
1F80
1080
1F80
1000
ENDCHAR
STARTCHAR AC83
ENCODING 12365
SWIDTH 1400 0
DWIDTH 14 0
BBX 10 12 2 -2
BITMAP
0180
FC80
0880
0880
1780
2080
4080
8280
0600
0900
10C0
2040
ENDCHAR
STARTCHAR AC84
ENCODING 12366
SWIDTH 1400 0
DWIDTH 14 0
BBX 10 11 2 -1
BITMAP
0180
FC80
0880
0F80
1080
2080
4180
8880
1900
26C0
4040
ENDCHAR
STARTCHAR AC85
ENCODING 12367
SWIDTH 1400 0
DWIDTH 14 0
BBX 9 12 2 -2
BITMAP
0180
FC80
0880
0880
1780
2080
4080
8280
0D80
0880
0880
0700
ENDCHAR
STARTCHAR AC86
ENCODING 12368
SWIDTH 1400 0
DWIDTH 14 0
BBX 10 12 2 -2
BITMAP
0180
FC80
0880
1080
1780
2080
4080
BFC0
0200
0600
0980
3040
ENDCHAR
STARTCHAR AC89
ENCODING 12369
SWIDTH 1400 0
DWIDTH 14 0
BBX 10 12 2 -2
BITMAP
0180
FC80
0880
1080
2780
4080
8080
1F80
1000
1F80
1000
0FC0
ENDCHAR
STARTCHAR AC8A
ENCODING 12370
SWIDTH 1400 0
DWIDTH 14 0
BBX 11 12 2 -2
BITMAP
0180
FC80
0880
0880
1780
2080
4080
BF80
1100
0900
0900
7FE0
ENDCHAR
STARTCHAR AC8B
ENCODING 12371
SWIDTH 1400 0
DWIDTH 14 0
BBX 10 12 1 -2
BITMAP
00C0
7E40
0440
0440
09C0
1040
6040
83C0
1F00
0480
0480
0380
ENDCHAR
STARTCHAR AC8C
ENCODING 12372
SWIDTH 1400 0
DWIDTH 14 0
BBX 10 13 1 -2
BITMAP
0080
0040
0140
F940
0940
0940
1F40
1140
2140
4140
0140
0140
0140
ENDCHAR
STARTCHAR AC90
ENCODING 12373
SWIDTH 1400 0
DWIDTH 14 0
BBX 10 12 2 -2
BITMAP
0780
0280
F280
1280
1E80
2280
4280
8280
3280
1000
1000
1FC0
ENDCHAR
STARTCHAR AC94
ENCODING 12374
SWIDTH 1400 0
DWIDTH 14 0
BBX 10 12 2 -2
BITMAP
0580
0280
7280
1280
2E80
4280
4280
BF80
0080
1F80
1000
1FC0
ENDCHAR
STARTCHAR AC9C
ENCODING 12375
SWIDTH 1400 0
DWIDTH 14 0
BBX 10 13 2 -3
BITMAP
0580
0280
7280
1280
2E80
4280
8280
1FC0
0880
0880
0880
0F80
0800
ENDCHAR
STARTCHAR AC9D
ENCODING 12376
SWIDTH 1400 0
DWIDTH 14 0
BBX 10 12 1 -2
BITMAP
00C0
0140
7D40
0940
0940
1740
21C0
4540
87C0
0440
07C0
0440
ENDCHAR
STARTCHAR AC9F
ENCODING 12377
SWIDTH 1400 0
DWIDTH 14 0
BBX 10 12 2 -2
BITMAP
0580
0280
7280
1280
2E80
4280
4280
8280
0200
0500
18C0
2000
ENDCHAR
STARTCHAR ACA0
ENCODING 12378
SWIDTH 1400 0
DWIDTH 14 0
BBX 11 12 2 -2
BITMAP
0580
0280
F280
1280
3E80
2280
4280
9080
0880
1980
2660
4420
ENDCHAR
STARTCHAR ACA1
ENCODING 12379
SWIDTH 1400 0
DWIDTH 14 0
BBX 9 12 2 -2
BITMAP
0380
FA80
1280
1280
2E80
4280
8280
0700
0880
0880
0880
0700
ENDCHAR
STARTCHAR ACA8
ENCODING 12380
SWIDTH 1400 0
DWIDTH 14 0
BBX 9 12 2 -2
BITMAP
0180
0080
7C80
0F80
1080
1080
2F80
4080
8080
0080
0080
0080
ENDCHAR
STARTCHAR ACA9
ENCODING 12381
SWIDTH 1400 0
DWIDTH 14 0
BBX 9 13 2 -2
BITMAP
0100
0080
FC80
0F80
0880
1080
2F80
4080
FF80
0080
0080
0080
0080
ENDCHAR
STARTCHAR ACAA
ENCODING 12382
SWIDTH 1400 0
DWIDTH 14 0
BBX 9 13 2 -2
BITMAP
0100
0080
FC80
0F80
0880
1080
2780
4080
FF80
0880
0880
0880
0880
ENDCHAR
STARTCHAR ACAC
ENCODING 12383
SWIDTH 1400 0
DWIDTH 14 0
BBX 10 12 2 -2
BITMAP
0180
FC80
0880
0F80
1080
2080
4F80
8080
3080
1000
1000
1FC0
ENDCHAR
STARTCHAR ACAF
ENCODING 12384
SWIDTH 1400 0
DWIDTH 14 0
BBX 10 11 2 -1
BITMAP
0080
F880
0F80
1480
2080
4F80
8080
1F80
1000
1000
1FC0
ENDCHAR
STARTCHAR ACB0
ENCODING 12385
SWIDTH 1400 0
DWIDTH 14 0
BBX 10 13 2 -2
BITMAP
0180
0080
FC80
0B80
0880
1080
2F80
4080
BF80
0080
1F80
1000
1FC0
ENDCHAR
STARTCHAR ACB8
ENCODING 12386
SWIDTH 1400 0
DWIDTH 14 0
BBX 10 13 1 -2
BITMAP
00C0
0040
7C40
07C0
0840
0840
13C0
6040
8FC0
0840
0880
0F80
0800
ENDCHAR
STARTCHAR ACB9
ENCODING 12387
SWIDTH 1400 0
DWIDTH 14 0
BBX 9 14 2 -3
BITMAP
0300
0180
FC80
0F80
0880
1080
2780
4180
9080
1F80
1080
1080
1F80
1000
ENDCHAR
STARTCHAR ACBB
ENCODING 12388
SWIDTH 1400 0
DWIDTH 14 0
BBX 11 12 1 -2
BITMAP
0040
FC40
07C0
0840
1040
23C0
4040
0140
0300
0280
0C60
1020
ENDCHAR
STARTCHAR ACBC
ENCODING 12389
SWIDTH 1400 0
DWIDTH 14 0
BBX 10 13 2 -2
BITMAP
0300
0180
FC80
0980
0A80
1080
2780
4080
9100
1100
1A80
6640
8040
ENDCHAR
STARTCHAR ACBD
ENCODING 12390
SWIDTH 1400 0
DWIDTH 14 0
BBX 9 13 2 -2
BITMAP
0300
0180
FC80
0F80
0880
1080
2780
4080
8280
0D80
0880
0880
0700
ENDCHAR
STARTCHAR ACC1
ENCODING 12391
SWIDTH 1400 0
DWIDTH 14 0
BBX 10 13 2 -2
BITMAP
0300
0180
FC80
0F80
0880
1080
2780
4080
9F80
1000
1F80
1000
1FC0
ENDCHAR
STARTCHAR ACC4
ENCODING 12392
SWIDTH 1400 0
DWIDTH 14 0
BBX 10 12 2 -2
BITMAP
00C0
0240
FA40
1640
1A40
2240
4E40
4240
8240
0240
0240
0040
ENDCHAR
STARTCHAR ACC8
ENCODING 12393
SWIDTH 1400 0
DWIDTH 14 0
BBX 10 11 2 -1
BITMAP
04C0
0240
7240
1E40
2240
5E40
4240
B240
1240
1040
1FC0
ENDCHAR
STARTCHAR ACCC
ENCODING 12394
SWIDTH 1400 0
DWIDTH 14 0
BBX 10 11 2 -1
BITMAP
0180
0280
FA80
1280
1E80
3E80
7F80
8080
1F80
1000
1FC0
ENDCHAR
STARTCHAR ACD5
ENCODING 12395
SWIDTH 1400 0
DWIDTH 14 0
BBX 10 12 1 -2
BITMAP
03C0
7D40
0940
0F40
1140
2740
41C0
8440
07C0
0440
07C0
0440
ENDCHAR
STARTCHAR ACD7
ENCODING 12396
SWIDTH 1400 0
DWIDTH 14 0
BBX 10 13 2 -2
BITMAP
0100
0080
0680
FA80
1280
1E80
2280
4E80
8280
0200
0500
18C0
2040
ENDCHAR
STARTCHAR ACE0
ENCODING 12397
SWIDTH 1400 0
DWIDTH 14 0
BBX 12 9 1 0
BITMAP
3FE0
0040
0040
0040
0C80
0480
0400
0400
FFF0
ENDCHAR
STARTCHAR ACE1
ENCODING 12398
SWIDTH 1400 0
DWIDTH 14 0
BBX 12 12 1 -2
BITMAP
0040
1FC0
0040
0480
0400
FFF0
0000
1FC0
0040
0040
0040
0040
ENDCHAR
STARTCHAR ACE4
ENCODING 12399
SWIDTH 1400 0
DWIDTH 14 0
BBX 12 11 1 -2
BITMAP
3FE0
0040
0040
0240
0200
FFF0
0000
3000
1000
1000
1FC0
ENDCHAR
STARTCHAR ACE7
ENCODING 12400
SWIDTH 1400 0
DWIDTH 14 0
BBX 12 12 1 -2
BITMAP
0040
1FC0
0040
0480
0400
FFF0
0000
00C0
1F00
1000
1000
0FC0
ENDCHAR
STARTCHAR ACE8
ENCODING 12401
SWIDTH 1400 0
DWIDTH 14 0
BBX 12 12 1 -2
BITMAP
0040
1FC0
0040
0400
0400
FFF0
0000
3F80
0080
3F80
1000
1FC0
ENDCHAR
STARTCHAR ACEA
ENCODING 12402
SWIDTH 1400 0
DWIDTH 14 0
BBX 12 12 1 -2
BITMAP
3FC0
0040
0040
0400
0400
FFF0
0000
3DE0
0520
3920
39E0
0100
ENDCHAR
STARTCHAR ACEC
ENCODING 12403
SWIDTH 1400 0
DWIDTH 14 0
BBX 12 11 1 -1
BITMAP
0040
1FC0
0040
0400
0400
FFF0
0080
1E40
3E80
1160
1C20
ENDCHAR
STARTCHAR ACEF
ENCODING 12404
SWIDTH 1400 0
DWIDTH 14 0
BBX 12 12 1 -2
BITMAP
3FC0
0440
0440
07F0
FC00
0180
0000
3BC0
3BC0
2240
3A40
0180
ENDCHAR
STARTCHAR ACF0
ENCODING 12405
SWIDTH 1400 0
DWIDTH 14 0
BBX 12 12 1 -2
BITMAP
0040
1FC0
0040
0200
0400
FFF0
0000
3F80
1080
1080
1F80
1000
ENDCHAR
STARTCHAR ACF1
ENCODING 12406
SWIDTH 1400 0
DWIDTH 14 0
BBX 12 13 1 -3
BITMAP
0040
1FC0
0040
0200
0400
FFF0
0100
1080
1F80
1080
1080
1F80
1080
ENDCHAR
STARTCHAR ACF3
ENCODING 12407
SWIDTH 1400 0
DWIDTH 14 0
BBX 12 12 1 -2
BITMAP
0040
1FC0
0040
0400
0400
FFF0
0000
0400
0400
0B00
10C0
2040
ENDCHAR
STARTCHAR ACF5
ENCODING 12408
SWIDTH 1400 0
DWIDTH 14 0
BBX 12 12 1 -2
BITMAP
0040
1FC0
0040
0400
0400
FFF0
0000
0200
1D00
1080
1880
0F00
ENDCHAR
STARTCHAR ACF6
ENCODING 12409
SWIDTH 1400 0
DWIDTH 14 0
BBX 12 12 1 -2
BITMAP
0040
1FC0
0040
0480
0400
FFF0
0000
3FE0
0200
0500
08C0
3040
ENDCHAR
STARTCHAR ACFC
ENCODING 12410
SWIDTH 1400 0
DWIDTH 14 0
BBX 12 12 1 -2
BITMAP
00C0
0040
7F40
0240
0240
3240
1070
11C0
FE40
0040
0040
0040
ENDCHAR
STARTCHAR ACFD
ENCODING 12411
SWIDTH 1400 0
DWIDTH 14 0
BBX 11 12 2 -2
BITMAP
0180
FC80
0480
0880
0880
23E0
FC80
7F00
0100
0100
0100
0100
ENDCHAR
STARTCHAR AD00
ENCODING 12412
SWIDTH 1400 0
DWIDTH 14 0
BBX 12 12 2 -2
BITMAP
0100
FC80
0480
0480
2080
20F0
2F80
D080
3080
1000
1000
1FC0
ENDCHAR
STARTCHAR AD04
ENCODING 12413
SWIDTH 1400 0
DWIDTH 14 0
BBX 12 12 2 -2
BITMAP
0180
FC80
0480
0480
20B0
27C0
D880
3F80
0100
1F80
1000
1FC0
ENDCHAR
STARTCHAR AD06
ENCODING 12414
SWIDTH 1400 0
DWIDTH 14 0
BBX 12 12 2 -2
BITMAP
0180
FC80
0480
2480
20B0
2FC0
D080
7F80
1480
6500
7700
0400
ENDCHAR
STARTCHAR AD0C
ENCODING 12577
SWIDTH 1400 0
DWIDTH 14 0
BBX 12 12 2 -2
BITMAP
0180
FC80
0480
2480
20F0
2F80
D080
1F80
1080
1080
1F80
1000
ENDCHAR
STARTCHAR AD0D
ENCODING 12578
SWIDTH 1400 0
DWIDTH 14 0
BBX 12 12 2 -2
BITMAP
0180
FC80
0480
2480
20B0
2FC0
D380
1100
1F00
1100
1F00
1100
ENDCHAR
STARTCHAR AD0F
ENCODING 12579
SWIDTH 1400 0
DWIDTH 14 0
BBX 12 12 1 -2
BITMAP
00C0
7E40
0240
0240
1040
10F0
FF40
0340
0300
0480
0860
1020
ENDCHAR
STARTCHAR AD11
ENCODING 12580
SWIDTH 1400 0
DWIDTH 14 0
BBX 12 12 2 -2
BITMAP
0180
FC80
0480
0480
10B0
11C0
FE80
0F80
1080
1080
1080
0F00
ENDCHAR
STARTCHAR AD18
ENCODING 12581
SWIDTH 1400 0
DWIDTH 14 0
BBX 10 12 1 -2
BITMAP
0240
0140
0540
3D40
0540
11C0
1140
FF40
0140
0140
0140
0040
ENDCHAR
STARTCHAR AD1C
ENCODING 12582
SWIDTH 1400 0
DWIDTH 14 0
BBX 12 12 1 -2
BITMAP
02C0
0140
7D40
0540
3540
11C0
1740
F940
1940
0800
0800
07F0
ENDCHAR
STARTCHAR AD20
ENCODING 12583
SWIDTH 1400 0
DWIDTH 14 0
BBX 10 12 2 -2
BITMAP
0380
0280
FA80
4A80
4B80
4E80
F280
3F80
0080
3F80
1000
1FC0
ENDCHAR
STARTCHAR AD29
ENCODING 12584
SWIDTH 1400 0
DWIDTH 14 0
BBX 9 14 2 -3
BITMAP
0180
0280
FA80
0A80
6A80
4380
4E80
B280
0180
0880
0F80
0880
0F80
0880
ENDCHAR
STARTCHAR AD2C
ENCODING 12585
SWIDTH 1400 0
DWIDTH 14 0
BBX 10 12 2 -2
BITMAP
0380
0280
FA80
4A80
5380
4E80
B280
0100
1100
1980
2240
4400
ENDCHAR
STARTCHAR AD2D
ENCODING 12586
SWIDTH 1400 0
DWIDTH 14 0
BBX 9 13 2 -2
BITMAP
0180
0280
FA80
0A80
4A80
4380
5E80
E280
0780
0880
0880
0880
0700
ENDCHAR
STARTCHAR AD34
ENCODING 12587
SWIDTH 1400 0
DWIDTH 14 0
BBX 10 12 1 -2
BITMAP
00C0
0040
7F40
0140
0240
1240
1040
17C0
E840
0040
0040
0040
ENDCHAR
STARTCHAR AD35
ENCODING 12588
SWIDTH 1400 0
DWIDTH 14 0
BBX 9 12 2 -2
BITMAP
0180
7E80
0280
0480
2480
2780
F880
7F80
0080
0080
0080
0080
ENDCHAR
STARTCHAR AD38
ENCODING 12589
SWIDTH 1400 0
DWIDTH 14 0
BBX 10 12 2 -2
BITMAP
0180
0080
FE80
0480
6480
2480
3F80
C080
3080
1000
1000
1FC0
ENDCHAR
STARTCHAR AD3C
ENCODING 12590
SWIDTH 1400 0
DWIDTH 14 0
BBX 10 12 2 -2
BITMAP
0180
7E80
0280
2480
2480
2F80
D080
3F80
3F80
1000
1000
1FC0
ENDCHAR
STARTCHAR AD44
ENCODING 12591
SWIDTH 1400 0
DWIDTH 14 0
BBX 10 12 1 -2
BITMAP
00C0
7E40
0240
1240
1040
FFC0
0040
1FC0
0880
0880
0F80
0800
ENDCHAR
STARTCHAR AD45
ENCODING 12592
SWIDTH 1400 0
DWIDTH 14 0
BBX 9 12 2 -2
BITMAP
0180
7E80
0280
0480
1480
1380
ED80
0880
0F80
0880
0F80
0880
ENDCHAR
STARTCHAR AD47
ENCODING 12593
SWIDTH 1400 0
DWIDTH 14 0
BBX 10 12 2 -2
BITMAP
0180
FE80
0480
0480
1480
1180
1E80
6480
0200
0500
08C0
3000
ENDCHAR
STARTCHAR AD49
ENCODING 12594
SWIDTH 1400 0
DWIDTH 14 0
BBX 10 12 1 -2
BITMAP
00C0
3F40
0140
0240
1240
10C0
FF40
0140
0680
0440
0440
0380
ENDCHAR
STARTCHAR AD50
ENCODING 12595
SWIDTH 1400 0
DWIDTH 14 0
BBX 13 9 1 0
BITMAP
3FE0
0040
0040
0040
1940
0900
0900
0900
FFF8
ENDCHAR
STARTCHAR AD54
ENCODING 12596
SWIDTH 1400 0
DWIDTH 14 0
BBX 13 10 0 -1
BITMAP
0FF0
0020
01A0
0880
0880
FFF8
1800
0800
0800
07F0
ENDCHAR
STARTCHAR AD58
ENCODING 12597
SWIDTH 1400 0
DWIDTH 14 0
BBX 12 11 1 -1
BITMAP
3FC0
0040
0940
0900
FFF0
0000
3FC0
0080
1F80
1000
0FE0
ENDCHAR
STARTCHAR AD61
ENCODING 12598
SWIDTH 1400 0
DWIDTH 14 0
BBX 12 12 1 -2
BITMAP
3F80
0040
0940
0900
FFF0
0000
3080
1080
1F80
1080
1F80
1080
ENDCHAR
STARTCHAR AD63
ENCODING 12599
SWIDTH 1400 0
DWIDTH 14 0
BBX 12 11 1 -2
BITMAP
3FE0
0040
0240
1140
1100
FFF0
0200
0600
0980
1040
2000
ENDCHAR
STARTCHAR AD6C
ENCODING 12600
SWIDTH 1400 0
DWIDTH 14 0
BBX 12 11 1 -2
BITMAP
3FC0
0040
0080
0080
FF70
0280
0200
0200
0200
0200
0200
ENDCHAR
STARTCHAR AD6D
ENCODING 12601
SWIDTH 1400 0
DWIDTH 14 0
BBX 13 12 1 -2
BITMAP
3F80
0060
0040
0080
FFF8
0200
0200
3F80
0080
0080
0080
0080
ENDCHAR
STARTCHAR AD70
ENCODING 12602
SWIDTH 1400 0
DWIDTH 14 0
BBX 12 10 1 -1
BITMAP
3FE0
0040
0040
0080
FFB0
0240
3200
1200
1000
0FE0
ENDCHAR
STARTCHAR AD73
ENCODING 12603
SWIDTH 1400 0
DWIDTH 14 0
BBX 12 11 1 -2
BITMAP
3FC0
0040
0080
FFB0
0440
0400
0000
1FC0
1000
1000
0FC0
ENDCHAR
STARTCHAR AD74
ENCODING 12604
SWIDTH 1400 0
DWIDTH 14 0
BBX 13 12 1 -2
BITMAP
1F80
0060
0040
0040
FFB8
0240
0200
3FC0
0040
3FC0
1000
1FC0
ENDCHAR
STARTCHAR AD75
ENCODING 12605
SWIDTH 1400 0
DWIDTH 14 0
BBX 12 10 1 -1
BITMAP
3FC0
0040
0080
0080
FF70
0480
3DC0
0840
3040
3840
ENDCHAR
STARTCHAR AD76
ENCODING 12606
SWIDTH 1400 0
DWIDTH 14 0
BBX 12 11 1 -2
BITMAP
3FC0
0040
0080
0080
FF70
0480
3DE0
3920
2140
39E0
0100
ENDCHAR
STARTCHAR AD7B
ENCODING 12607
SWIDTH 1400 0
DWIDTH 14 0
BBX 12 11 1 -1
BITMAP
3FC0
0040
0080
FFF0
0200
01C0
3800
0BC0
33C0
2E40
11C0
ENDCHAR
STARTCHAR AD7C
ENCODING 12608
SWIDTH 1400 0
DWIDTH 14 0
BBX 13 12 1 -2
BITMAP
3FE0
0040
0040
0040
FFF8
0200
0200
1FC0
1080
1080
1F80
1000
ENDCHAR
STARTCHAR AD7D
ENCODING 12609
SWIDTH 1400 0
DWIDTH 14 0
BBX 12 12 1 -2
BITMAP
3FC0
0040
0080
0080
FFF0
0200
0180
1080
1F80
1080
1F80
1080
ENDCHAR
STARTCHAR AD7F
ENCODING 12610
SWIDTH 1400 0
DWIDTH 14 0
BBX 12 11 1 -2
BITMAP
1FC0
0040
0080
0080
FFF0
0200
0400
0600
0600
0980
3040
ENDCHAR
STARTCHAR AD81
ENCODING 12611
SWIDTH 1400 0
DWIDTH 14 0
BBX 12 11 2 -2
BITMAP
7FC0
0080
0080
0F70
FC80
0400
1E00
2100
2100
3100
1E00
ENDCHAR
STARTCHAR AD82
ENCODING 12612
SWIDTH 1400 0
DWIDTH 14 0
BBX 13 12 1 -2
BITMAP
3FE0
0040
0040
0040
FFF8
0200
0200
03E0
1E00
0500
08C0
3020
ENDCHAR
STARTCHAR AD88
ENCODING 12613
SWIDTH 1400 0
DWIDTH 14 0
BBX 9 12 2 -2
BITMAP
0180
FC80
0480
0480
0480
0680
F880
1180
1280
1080
1080
0080
ENDCHAR
STARTCHAR AD89
ENCODING 12614
SWIDTH 1400 0
DWIDTH 14 0
BBX 10 12 1 -2
BITMAP
00C0
7E40
0240
0440
FA40
08C0
0940
3FC0
0040
0040
0040
0040
ENDCHAR
STARTCHAR AD8C
ENCODING 12615
SWIDTH 1400 0
DWIDTH 14 0
BBX 10 12 2 -2
BITMAP
0180
0480
7C80
0480
0A80
F480
1080
1380
3080
1000
11C0
0E00
ENDCHAR
STARTCHAR AD90
ENCODING 12616
SWIDTH 1400 0
DWIDTH 14 0
BBX 10 12 2 -2
BITMAP
0180
FC80
0480
0880
0680
F880
1380
3F80
0080
3F80
1000
1FC0
ENDCHAR
STARTCHAR AD9C
ENCODING 12617
SWIDTH 1400 0
DWIDTH 14 0
BBX 11 12 2 -2
BITMAP
0180
FC80
0480
0880
F480
1780
1080
1880
0880
1980
2660
C020
ENDCHAR
STARTCHAR AD9D
ENCODING 12618
SWIDTH 1400 0
DWIDTH 14 0
BBX 10 12 1 -2
BITMAP
00C0
7E40
0240
0440
9E40
6BC0
0840
0940
0E80
0840
0CC0
0780
ENDCHAR
STARTCHAR ADA4
ENCODING 12619
SWIDTH 1400 0
DWIDTH 14 0
BBX 11 12 1 -2
BITMAP
0160
00A0
7CA0
04A0
08A0
0AA0
F4A0
13A0
10A0
10A0
00A0
0020
ENDCHAR
STARTCHAR ADB7
ENCODING 12620
SWIDTH 1400 0
DWIDTH 14 0
BBX 11 12 1 -2
BITMAP
01E0
00A0
7CA0
08A0
08A0
FCA0
13A0
1120
0100
0300
04C0
1820
ENDCHAR
STARTCHAR ADC0
ENCODING 12621
SWIDTH 1400 0
DWIDTH 14 0
BBX 10 12 1 -2
BITMAP
00C0
7E40
0240
0240
0440
0340
FC40
0840
0840
0840
0840
0040
ENDCHAR
STARTCHAR ADC1
ENCODING 12622
SWIDTH 1400 0
DWIDTH 14 0
BBX 9 12 2 -2
BITMAP
0080
FC80
0480
0880
0F80
F080
1080
7F80
0080
0080
0080
0080
ENDCHAR
STARTCHAR ADC4
ENCODING 12623
SWIDTH 1400 0
DWIDTH 14 0
BBX 11 12 1 -2
BITMAP
00C0
7E40
0240
0440
03C0
FC40
0840
0840
1840
0800
0800
07E0
ENDCHAR
STARTCHAR ADC8
ENCODING 12624
SWIDTH 1400 0
DWIDTH 14 0
BBX 10 12 2 -2
BITMAP
0040
FE40
0440
04C0
0740
F840
1040
3F80
3F80
1000
1000
1FC0
ENDCHAR
STARTCHAR ADD0
ENCODING 12625
SWIDTH 1400 0
DWIDTH 14 0
BBX 10 12 2 -2
BITMAP
0080
7C80
0480
0880
0780
F880
1080
0FC0
0880
0880
0F80
0800
ENDCHAR
STARTCHAR ADD1
ENCODING 12626
SWIDTH 1400 0
DWIDTH 14 0
BBX 10 12 1 -2
BITMAP
0040
7E40
0240
0440
FFC0
0840
08C0
0440
07C0
0440
07C0
0440
ENDCHAR
STARTCHAR ADD3
ENCODING 12627
SWIDTH 1400 0
DWIDTH 14 0
BBX 10 12 2 -2
BITMAP
0080
FC80
0480
0880
0780
F880
1080
1280
0600
0900
10C0
2000
ENDCHAR
STARTCHAR ADDC
ENCODING 12628
SWIDTH 1400 0
DWIDTH 14 0
BBX 13 11 1 -2
BITMAP
3FC0
0040
0040
0080
FFF8
0880
0880
0880
0880
0880
0880
ENDCHAR
STARTCHAR ADE0
ENCODING 12629
SWIDTH 1400 0
DWIDTH 14 0
BBX 12 10 1 -1
BITMAP
3FC0
0080
0080
0080
FFF0
0900
3900
1900
1100
1FE0
ENDCHAR
STARTCHAR ADE4
ENCODING 12630
SWIDTH 1400 0
DWIDTH 14 0
BBX 12 10 1 -1
BITMAP
3FC0
0080
0080
FF70
0980
0F00
1080
3F80
1000
1FC0
ENDCHAR
STARTCHAR ADF8
ENCODING 12631
SWIDTH 1400 0
DWIDTH 14 0
BBX 12 7 1 1
BITMAP
3FE0
0040
0040
0040
0080
0080
FFF0
ENDCHAR
STARTCHAR ADF9
ENCODING 12632
SWIDTH 1400 0
DWIDTH 14 0
BBX 12 10 1 -1
BITMAP
3FC0
0040
0080
FFF0
0000
1FC0
0040
0040
0040
0040
ENDCHAR
STARTCHAR ADFC
ENCODING 12633
SWIDTH 1400 0
DWIDTH 14 0
BBX 12 10 1 -1
BITMAP
3FE0
0040
0040
0080
FFF0
0000
1000
1000
1000
0FE0
ENDCHAR
STARTCHAR ADFF
ENCODING 12634
SWIDTH 1400 0
DWIDTH 14 0
BBX 12 10 1 -1
BITMAP
3FC0
0040
0080
FFF0
0000
0000
1F80
1000
1000
1FC0
ENDCHAR
STARTCHAR AE00
ENCODING 12635
SWIDTH 1400 0
DWIDTH 14 0
BBX 12 10 1 -1
BITMAP
3FC0
0040
0080
FFF0
0000
3F80
0080
3F80
1000
1FC0
ENDCHAR
STARTCHAR AE01
ENCODING 12636
SWIDTH 1400 0
DWIDTH 14 0
BBX 12 11 1 -2
BITMAP
3FC0
0040
0080
FFF0
0000
7C00
09C0
7C40
2040
3C40
0040
ENDCHAR
STARTCHAR AE08
ENCODING 12637
SWIDTH 1400 0
DWIDTH 14 0
BBX 12 11 1 -2
BITMAP
3FC0
0040
0080
FFF0
0000
0000
0FC0
0840
0840
0FC0
0800
ENDCHAR
STARTCHAR AE09
ENCODING 12638
SWIDTH 1400 0
DWIDTH 14 0
BBX 12 11 1 -2
BITMAP
3FC0
0040
0080
FFF0
0100
0880
0F80
0880
0880
0F80
0880
ENDCHAR
STARTCHAR AE0B
ENCODING 12639
SWIDTH 1400 0
DWIDTH 14 0
BBX 12 11 1 -2
BITMAP
3FC0
0040
0040
0080
FFF0
0400
0200
0600
0980
1040
2000
ENDCHAR
STARTCHAR AE0D
ENCODING 12640
SWIDTH 1400 0
DWIDTH 14 0
BBX 12 11 1 -2
BITMAP
3FE0
0040
0040
FFB0
0040
0000
0F00
1080
1080
1980
0F00
ENDCHAR
STARTCHAR AE14
ENCODING 12641
SWIDTH 1400 0
DWIDTH 14 0
BBX 9 12 2 -2
BITMAP
0180
0080
FE80
0280
0480
0480
0480
0F80
F080
0080
0080
0080
ENDCHAR
STARTCHAR AE30
ENCODING 12642
SWIDTH 1400 0
DWIDTH 14 0
BBX 9 12 2 -2
BITMAP
0180
0080
7C80
0880
0880
1080
2080
4080
8080
0080
0080
0080
ENDCHAR
STARTCHAR AE31
ENCODING 12643
SWIDTH 1400 0
DWIDTH 14 0
BBX 10 12 1 -2
BITMAP
00C0
7E40
0440
0440
0840
1040
2040
DFC0
0040
0040
0040
0040
ENDCHAR
STARTCHAR AE34
ENCODING 12644
SWIDTH 1400 0
DWIDTH 14 0
BBX 10 13 2 -2
BITMAP
0180
0080
FC80
0880
0880
1080
2080
4080
8080
3080
1000
1000
1FC0
ENDCHAR
STARTCHAR AE37
ENCODING 12645
SWIDTH 1400 0
DWIDTH 14 0
BBX 11 11 1 -1
BITMAP
00C0
7E40
0440
0440
0840
1040
2040
CF80
0800
0800
0FE0
ENDCHAR
STARTCHAR AE38
ENCODING 12646
SWIDTH 1400 0
DWIDTH 14 0
BBX 10 12 2 -2
BITMAP
0180
FC80
0880
0880
1080
2080
4080
BF80
0080
1F80
1000
1FC0
ENDCHAR
STARTCHAR AE3A
ENCODING 12647
SWIDTH 1400 0
DWIDTH 14 0
BBX 9 12 2 -2
BITMAP
0180
FC80
0880
0880
1080
2080
5080
9380
F280
4280
4B80
7200
ENDCHAR
STARTCHAR AE40
ENCODING 12648
SWIDTH 1400 0
DWIDTH 14 0
BBX 9 12 2 -2
BITMAP
0180
FC80
0880
0880
1080
2080
4080
9F80
1080
1100
1F80
1000
ENDCHAR
STARTCHAR AE41
ENCODING 12649
SWIDTH 1400 0
DWIDTH 14 0
BBX 9 12 2 -2
BITMAP
0180
FC80
0880
0880
1080
2080
6180
9080
1F80
1080
1F80
1080
ENDCHAR
STARTCHAR AE43
ENCODING 12650
SWIDTH 1400 0
DWIDTH 14 0
BBX 10 12 2 -2
BITMAP
0180
FC80
0880
0880
1080
2080
4480
8280
0600
0980
1040
6000
ENDCHAR
STARTCHAR AE45
ENCODING 12651
SWIDTH 1400 0
DWIDTH 14 0
BBX 9 13 2 -2
BITMAP
0100
0080
FC80
0880
0880
1080
2080
4080
0200
0D80
0880
0880
0700
ENDCHAR
STARTCHAR AE46
ENCODING 12652
SWIDTH 1400 0
DWIDTH 14 0
BBX 10 12 2 -2
BITMAP
0180
FC80
0880
0880
1080
2080
4080
BF00
0400
0B00
1080
6040
ENDCHAR
STARTCHAR AE4A
ENCODING 12653
SWIDTH 1400 0
DWIDTH 14 0
BBX 11 12 2 -2
BITMAP
0180
FC80
0880
0880
1080
2080
4080
BF80
0100
0900
0FE0
7800
ENDCHAR
STARTCHAR AE4C
ENCODING 12654
SWIDTH 1400 0
DWIDTH 14 0
BBX 12 12 1 -2
BITMAP
00C0
0040
7F40
1240
2240
2440
4470
8840
1040
0040
0040
0040
ENDCHAR
STARTCHAR AE4D
ENCODING 12655
SWIDTH 1400 0
DWIDTH 14 0
BBX 11 12 2 -2
BITMAP
0080
FE80
2480
2480
48E0
9080
2080
3F80
0080
0080
0080
0080
ENDCHAR
STARTCHAR AE4E
ENCODING 12656
SWIDTH 1400 0
DWIDTH 14 0
BBX 11 12 2 -2
BITMAP
0080
FE80
2480
2480
48E0
9080
2080
7F80
0880
0880
0880
0880
ENDCHAR
STARTCHAR AE50
ENCODING 12657
SWIDTH 1400 0
DWIDTH 14 0
BBX 12 12 2 -2
BITMAP
0080
0080
FC80
2480
48B0
90C0
1080
2080
3080
1000
1000
1FC0
ENDCHAR
STARTCHAR AE54
ENCODING 12658
SWIDTH 1400 0
DWIDTH 14 0
BBX 11 12 2 -2
BITMAP
0080
FE80
2480
2480
48E0
9080
0080
3F80
0100
3F80
1000
1FC0
ENDCHAR
STARTCHAR AE56
ENCODING 12659
SWIDTH 1400 0
DWIDTH 14 0
BBX 11 12 2 -2
BITMAP
0080
FE80
2480
4480
48E0
9080
F800
1780
FC80
4480
5F80
2400
ENDCHAR
STARTCHAR AE5C
ENCODING 12660
SWIDTH 1400 0
DWIDTH 14 0
BBX 12 12 1 -2
BITMAP
0040
7F40
1240
1240
2470
4440
9840
0F80
0880
0880
0F80
0800
ENDCHAR
STARTCHAR AE5D
ENCODING 12661
SWIDTH 1400 0
DWIDTH 14 0
BBX 12 12 1 -2
BITMAP
0040
7F40
1240
1240
2470
4440
98C0
0440
07C0
0440
07C0
0440
ENDCHAR
STARTCHAR AE5F
ENCODING 12662
SWIDTH 1400 0
DWIDTH 14 0
BBX 13 12 1 -2
BITMAP
0040
0040
3F40
1240
2278
4440
8A40
1240
0300
04C0
0860
3000
ENDCHAR
STARTCHAR AE60
ENCODING 12663
SWIDTH 1400 0
DWIDTH 14 0
BBX 11 11 2 -1
BITMAP
0080
FE80
2480
2480
48E0
9080
0100
0080
1180
2A40
4200
ENDCHAR
STARTCHAR AE61
ENCODING 12664
SWIDTH 1400 0
DWIDTH 14 0
BBX 12 12 1 -2
BITMAP
0040
7F40
1240
1240
2470
4440
9840
0780
0840
0840
0C40
0780
ENDCHAR
STARTCHAR AE65
ENCODING 12665
SWIDTH 1400 0
DWIDTH 14 0
BBX 12 12 1 -2
BITMAP
0040
7F40
1240
1240
2470
4440
9840
0F80
0800
0FC0
0800
07E0
ENDCHAR
STARTCHAR AE68
ENCODING 12666
SWIDTH 1400 0
DWIDTH 14 0
BBX 11 12 1 -2
BITMAP
0360
0120
7F20
2520
2520
49E0
4920
9120
0120
0120
0120
0020
ENDCHAR
STARTCHAR AE69
ENCODING 12667
SWIDTH 1400 0
DWIDTH 14 0
BBX 11 12 1 -2
BITMAP
0060
0120
3F20
2520
2520
C9E0
1120
3FE0
0040
0040
0040
0040
ENDCHAR
STARTCHAR AE6C
ENCODING 12668
SWIDTH 1400 0
DWIDTH 14 0
BBX 11 12 1 -2
BITMAP
0360
0120
7F20
2520
2520
49E0
9120
0120
1920
0800
0800
0FE0
ENDCHAR
STARTCHAR AE70
ENCODING 12669
SWIDTH 1400 0
DWIDTH 14 0
BBX 12 13 1 -2
BITMAP
0060
0320
1320
3D20
2520
49E0
8920
1120
0FE0
0020
0FE0
0400
07F0
ENDCHAR
STARTCHAR AE78
ENCODING 12670
SWIDTH 1400 0
DWIDTH 14 0
BBX 11 13 1 -2
BITMAP
0060
0120
0120
7D20
2520
49E0
8920
1120
07E0
0420
0440
07E0
0400
ENDCHAR
STARTCHAR AE79
ENCODING 12833
SWIDTH 1400 0
DWIDTH 14 0
BBX 11 13 1 -2
BITMAP
0060
0320
1320
3D20
2520
49E0
8920
19E0
0440
07C0
0440
07C0
0440
ENDCHAR
STARTCHAR AE7B
ENCODING 12834
SWIDTH 1400 0
DWIDTH 14 0
BBX 11 12 1 -2
BITMAP
01C0
0140
3F40
1540
25C0
4940
9140
0140
0100
0280
0C60
0020
ENDCHAR
STARTCHAR AE7C
ENCODING 12835
SWIDTH 1400 0
DWIDTH 14 0
BBX 10 12 2 -2
BITMAP
02C0
0240
7E40
4A40
4BC0
9240
2240
1880
0880
1580
2240
C000
ENDCHAR
STARTCHAR AE7D
ENCODING 12836
SWIDTH 1400 0
DWIDTH 14 0
BBX 11 12 1 -2
BITMAP
0160
0120
3F20
2520
25E0
4920
9120
2080
0740
0440
0440
03C0
ENDCHAR
STARTCHAR AE84
ENCODING 12837
SWIDTH 1400 0
DWIDTH 14 0
BBX 12 12 2 -1
BITMAP
0180
0080
0080
FE80
24F0
2480
4880
88A0
10C0
2080
0080
0080
ENDCHAR
STARTCHAR AE85
ENCODING 12838
SWIDTH 1400 0
DWIDTH 14 0
BBX 11 12 2 -2
BITMAP
0180
0080
FC80
44E0
4880
9080
00E0
7F80
0080
0080
0080
0080
ENDCHAR
STARTCHAR AE8C
ENCODING 12839
SWIDTH 1400 0
DWIDTH 14 0
BBX 12 12 2 -2
BITMAP
0180
2280
7C80
44E0
4880
90B0
20C0
3F80
3F80
1000
1000
1FC0
ENDCHAR
STARTCHAR AEBC
ENCODING 12840
SWIDTH 1400 0
DWIDTH 14 0
BBX 9 12 2 -1
BITMAP
0180
0080
FE80
2480
2480
4B80
8880
1080
2080
4080
0080
0080
ENDCHAR
STARTCHAR AEBD
ENCODING 12841
SWIDTH 1400 0
DWIDTH 14 0
BBX 9 12 2 -2
BITMAP
0180
0080
7C80
4480
8B80
1080
2080
7F80
0080
0080
0080
0080
ENDCHAR
STARTCHAR AEBE
ENCODING 12842
SWIDTH 1400 0
DWIDTH 14 0
BBX 9 12 2 -2
BITMAP
0180
0080
7C80
4480
8B80
1080
2080
7F80
0880
0880
0880
0880
ENDCHAR
STARTCHAR AEC0
ENCODING 12843
SWIDTH 1400 0
DWIDTH 14 0
BBX 11 13 1 -2
BITMAP
00C0
0040
7F40
2240
2440
47C0
8840
1040
0040
1800
0800
0800
0FE0
ENDCHAR
STARTCHAR AEC4
ENCODING 12844
SWIDTH 1400 0
DWIDTH 14 0
BBX 10 12 2 -2
BITMAP
0180
0080
7C80
4480
4B80
9080
2080
3F80
0100
1F80
1000
1FC0
ENDCHAR
STARTCHAR AECC
ENCODING 12845
SWIDTH 1400 0
DWIDTH 14 0
BBX 9 12 2 -2
BITMAP
0180
0080
7C80
4480
4B80
9080
2080
1F80
1080
1100
1F80
1000
ENDCHAR
STARTCHAR AECD
ENCODING 12846
SWIDTH 1400 0
DWIDTH 14 0
BBX 9 12 2 -2
BITMAP
0180
0080
7C80
4480
4B80
9080
2180
0880
0F80
0880
0F80
0880
ENDCHAR
STARTCHAR AECF
ENCODING 12847
SWIDTH 1400 0
DWIDTH 14 0
BBX 11 12 1 -2
BITMAP
00C0
7F40
1240
23C0
2440
4840
9040
0140
0300
0280
0C60
1000
ENDCHAR
STARTCHAR AED0
ENCODING 12848
SWIDTH 1400 0
DWIDTH 14 0
BBX 11 12 1 -2
BITMAP
00C0
0040
7E40
2240
25C0
C840
1040
0440
0840
0EC0
1320
2200
ENDCHAR
STARTCHAR AED1
ENCODING 12849
SWIDTH 1400 0
DWIDTH 14 0
BBX 9 11 2 -1
BITMAP
0180
0080
7C80
4480
4B80
9080
2280
0D80
0880
0880
0700
ENDCHAR
STARTCHAR AED8
ENCODING 12850
SWIDTH 1400 0
DWIDTH 14 0
BBX 10 13 1 -2
BITMAP
0080
0240
0140
FD40
2540
4940
4F40
9140
2140
2140
0140
0140
0040
ENDCHAR
STARTCHAR AED9
ENCODING 12851
SWIDTH 1400 0
DWIDTH 14 0
BBX 9 12 2 -2
BITMAP
0380
0180
7D80
2980
4F80
9180
0180
7F80
0080
0080
0080
0080
ENDCHAR
STARTCHAR AEDC
ENCODING 12852
SWIDTH 1400 0
DWIDTH 14 0
BBX 11 11 1 -1
BITMAP
01C0
00C0
3EC0
14C0
27C0
48C0
90C0
18C0
0840
0800
0FE0
ENDCHAR
STARTCHAR AEE8
ENCODING 12853
SWIDTH 1400 0
DWIDTH 14 0
BBX 11 12 1 -2
BITMAP
0160
00A0
7CA0
24A0
4BA0
90A0
00A0
0FC0
0840
0880
0FC0
0800
ENDCHAR
STARTCHAR AEEB
ENCODING 12854
SWIDTH 1400 0
DWIDTH 14 0
BBX 10 12 2 -2
BITMAP
02C0
0140
7D40
2940
4F40
9140
2140
0240
0400
0B00
10C0
6000
ENDCHAR
STARTCHAR AEED
ENCODING 12855
SWIDTH 1400 0
DWIDTH 14 0
BBX 10 12 2 -2
BITMAP
02C0
0140
7D40
2940
4F40
9140
0340
0740
0880
0880
0880
0700
ENDCHAR
STARTCHAR AEF4
ENCODING 12856
SWIDTH 1400 0
DWIDTH 14 0
BBX 10 12 1 -2
BITMAP
00C0
0040
FE40
1240
23C0
2440
4840
89C0
1040
2040
0040
0040
ENDCHAR
STARTCHAR AEF8
ENCODING 12857
SWIDTH 1400 0
DWIDTH 14 0
BBX 11 11 1 -1
BITMAP
00C0
0040
7E40
27C0
4440
8840
13C0
3840
0840
0800
0FE0
ENDCHAR
STARTCHAR AEFC
ENCODING 12858
SWIDTH 1400 0
DWIDTH 14 0
BBX 10 12 2 -2
BITMAP
0180
0080
7C80
4780
4880
9380
2080
3F80
0080
3F80
1000
1FC0
ENDCHAR
STARTCHAR AF07
ENCODING 12859
SWIDTH 1400 0
DWIDTH 14 0
BBX 11 12 1 -2
BITMAP
00C0
0040
3F40
13C0
2440
47C0
8840
1140
0300
0280
0440
1820
ENDCHAR
STARTCHAR AF08
ENCODING 12860
SWIDTH 1400 0
DWIDTH 14 0
BBX 10 12 2 -2
BITMAP
0180
2080
7C80
4780
8880
1780
2080
1880
1100
1D80
2640
0040
ENDCHAR
STARTCHAR AF0D
ENCODING 12861
SWIDTH 1400 0
DWIDTH 14 0
BBX 11 11 1 -1
BITMAP
00C0
9240
7E40
25C0
4440
89C0
1000
0FC0
0800
0FC0
0FE0
ENDCHAR
STARTCHAR AF10
ENCODING 12862
SWIDTH 1400 0
DWIDTH 14 0
BBX 10 13 1 -2
BITMAP
0080
0240
0140
FD40
2540
4B40
4940
9340
2140
2140
0140
0140
0040
ENDCHAR
STARTCHAR AF2C
ENCODING 12863
SWIDTH 1400 0
DWIDTH 14 0
BBX 13 8 0 1
BITMAP
7DE0
0820
0820
0840
1240
1200
0200
FFF8
ENDCHAR
STARTCHAR AF2D
ENCODING 12864
SWIDTH 1400 0
DWIDTH 14 0
BBX 13 12 0 -2
BITMAP
05E0
1C20
0820
0A00
0200
FFF8
0000
3FC0
0040
0040
0040
0040
ENDCHAR
STARTCHAR AF30
ENCODING 12865
SWIDTH 1400 0
DWIDTH 14 0
BBX 12 10 1 -1
BITMAP
7BC0
0840
1040
1200
0200
FFF0
3000
1000
1000
0FE0
ENDCHAR
STARTCHAR AF32
ENCODING 12866
SWIDTH 1400 0
DWIDTH 14 0
BBX 12 12 1 -2
BITMAP
0BE0
3840
0840
1200
1200
FFF0
0380
2060
2380
2340
3A40
0180
ENDCHAR
STARTCHAR AF34
ENCODING 12867
SWIDTH 1400 0
DWIDTH 14 0
BBX 12 12 1 -2
BITMAP
0BC0
3840
1040
1280
0200
FFF0
0000
3F80
0080
1F80
1000
1F80
ENDCHAR
STARTCHAR AF3C
ENCODING 12868
SWIDTH 1400 0
DWIDTH 14 0
BBX 12 12 1 -2
BITMAP
03C0
3840
0840
1200
1200
FFF0
0000
3F80
1080
1080
1F80
1000
ENDCHAR
STARTCHAR AF3D
ENCODING 12869
SWIDTH 1400 0
DWIDTH 14 0
BBX 12 12 1 -2
BITMAP
0BC0
3840
1040
1200
0200
FFF0
0180
1080
1F80
1080
1F80
1080
ENDCHAR
STARTCHAR AF3F
ENCODING 12870
SWIDTH 1400 0
DWIDTH 14 0
BBX 12 11 1 -1
BITMAP
01E0
3840
0E40
1200
0200
FFF0
0000
0200
0600
0980
1040
ENDCHAR
STARTCHAR AF41
ENCODING 12871
SWIDTH 1400 0
DWIDTH 14 0
BBX 12 11 1 -1
BITMAP
03C0
3840
0880
0A80
0200
FFF0
0200
0D00
0880
0880
0700
ENDCHAR
STARTCHAR AF42
ENCODING 12872
SWIDTH 1400 0
DWIDTH 14 0
BBX 12 12 1 -2
BITMAP
7BE0
0840
0840
1280
1200
FFF0
0000
3FC0
0200
0600
09C0
3040
ENDCHAR
STARTCHAR AF43
ENCODING 12873
SWIDTH 1400 0
DWIDTH 14 0
BBX 12 12 1 -2
BITMAP
7AE0
0940
0E40
0240
FFF0
0000
0700
3FE0
0600
0D00
10C0
6000
ENDCHAR
STARTCHAR AF48
ENCODING 12874
SWIDTH 1400 0
DWIDTH 14 0
BBX 11 12 2 -1
BITMAP
0100
0080
0080
EC80
2480
4480
54E0
1080
3E80
C080
0080
0080
ENDCHAR
STARTCHAR AF49
ENCODING 12875
SWIDTH 1400 0
DWIDTH 14 0
BBX 12 12 1 -2
BITMAP
00C0
7740
1140
1240
0240
0870
09C0
F7C0
1E40
0040
0040
0040
ENDCHAR
STARTCHAR AF50
ENCODING 12876
SWIDTH 1400 0
DWIDTH 14 0
BBX 12 12 2 -2
BITMAP
0080
EE80
2280
3C80
08F0
0F80
7080
3F80
0100
3F80
1000
1FC0
ENDCHAR
STARTCHAR AF5C
ENCODING 12877
SWIDTH 1400 0
DWIDTH 14 0
BBX 13 12 1 -2
BITMAP
0040
7740
1140
1A40
0A58
0BE0
F440
08C0
0440
0CC0
1320
2200
ENDCHAR
STARTCHAR AF5D
ENCODING 12878
SWIDTH 1400 0
DWIDTH 14 0
BBX 12 12 2 -2
BITMAP
0080
EE80
2280
3C80
0CB0
0BC0
F480
0280
0D00
0880
0880
0700
ENDCHAR
STARTCHAR AF64
ENCODING 12879
SWIDTH 1400 0
DWIDTH 14 0
BBX 10 12 2 -2
BITMAP
0240
0140
6D40
4940
4940
59C0
1140
FF40
0140
0140
0140
0040
ENDCHAR
STARTCHAR AF65
ENCODING 12880
SWIDTH 1400 0
DWIDTH 14 0
BBX 9 13 2 -2
BITMAP
0080
0280
0280
CA80
5A80
5B80
1680
EA80
7F80
0080
0080
0080
0080
ENDCHAR
STARTCHAR AF79
ENCODING 12881
SWIDTH 1400 0
DWIDTH 14 0
BBX 11 13 1 -2
BITMAP
0060
0120
0120
7720
2520
2DE0
0920
FF20
0100
0380
0440
0440
0380
ENDCHAR
STARTCHAR AF80
ENCODING 12882
SWIDTH 1400 0
DWIDTH 14 0
BBX 10 12 1 -1
BITMAP
00C0
0040
0040
7340
1140
2240
2A40
08C0
FF40
0040
0040
0040
ENDCHAR
STARTCHAR AF84
ENCODING 12883
SWIDTH 1400 0
DWIDTH 14 0
BBX 11 12 2 -2
BITMAP
0180
0080
7680
2280
2480
0880
0B80
F480
3080
1000
1000
0FE0
ENDCHAR
STARTCHAR AF88
ENCODING 12884
SWIDTH 1400 0
DWIDTH 14 0
BBX 10 12 2 -2
BITMAP
0080
FE80
2280
3480
3080
0F80
F080
3F80
0080
3F80
1000
1FC0
ENDCHAR
STARTCHAR AF90
ENCODING 12885
SWIDTH 1400 0
DWIDTH 14 0
BBX 9 12 2 -2
BITMAP
0080
3E80
6280
2280
2080
1380
EC80
1F80
1100
1100
1F80
1000
ENDCHAR
STARTCHAR AF91
ENCODING 12886
SWIDTH 1400 0
DWIDTH 14 0
BBX 9 12 2 -2
BITMAP
0180
FE80
2280
3280
3080
1F80
E180
1080
1F80
1080
1F80
1080
ENDCHAR
STARTCHAR AF95
ENCODING 12887
SWIDTH 1400 0
DWIDTH 14 0
BBX 9 12 2 -2
BITMAP
0180
FE80
2280
2280
3080
1380
EC80
0200
0D00
0880
0880
0700
ENDCHAR
STARTCHAR AF9C
ENCODING 12888
SWIDTH 1400 0
DWIDTH 14 0
BBX 12 9 1 0
BITMAP
79E0
0820
0820
1020
1340
2940
0900
0900
FFF0
ENDCHAR
STARTCHAR AFB8
ENCODING 12889
SWIDTH 1400 0
DWIDTH 14 0
BBX 13 12 1 -2
BITMAP
01E0
3840
0840
0840
0000
FFF8
0200
0200
0200
0200
0200
0200
ENDCHAR
STARTCHAR AFB9
ENCODING 12890
SWIDTH 1400 0
DWIDTH 14 0
BBX 13 12 1 -2
BITMAP
01C0
3C40
0840
0800
FFF8
0200
0200
0280
1D80
0080
0080
0080
ENDCHAR
STARTCHAR AFBC
ENCODING 12891
SWIDTH 1400 0
DWIDTH 14 0
BBX 13 11 1 -1
BITMAP
7BC0
0840
0840
0800
0000
FFF8
0200
3200
1200
1200
1FE0
ENDCHAR
STARTCHAR AFC0
ENCODING 12892
SWIDTH 1400 0
DWIDTH 14 0
BBX 13 11 0 -1
BITMAP
3DE0
0420
0420
0000
FFF8
0200
1FC0
0040
1FC0
0800
0FE0
ENDCHAR
STARTCHAR AFC7
ENCODING 12893
SWIDTH 1400 0
DWIDTH 14 0
BBX 11 12 2 -2
BITMAP
0780
3080
1100
2100
FFE0
0800
7100
97C0
6300
4C80
7480
0300
ENDCHAR
STARTCHAR AFC8
ENCODING 12894
SWIDTH 1400 0
DWIDTH 14 0
BBX 13 12 1 -2
BITMAP
01E0
3840
0840
0800
FFF8
0200
0200
1FC0
10C0
1080
1F80
1000
ENDCHAR
STARTCHAR AFC9
ENCODING 12895
SWIDTH 1400 0
DWIDTH 14 0
BBX 12 12 1 -2
BITMAP
3DE0
0840
0840
1080
FFB0
0240
0580
1080
1F80
1080
1F80
1080
ENDCHAR
STARTCHAR AFCB
ENCODING 12896
SWIDTH 1400 0
DWIDTH 14 0
BBX 12 12 1 -2
BITMAP
79C0
0840
0880
1080
FFF0
0200
0400
0600
0600
0900
10C0
6000
ENDCHAR
STARTCHAR AFCD
ENCODING 12897
SWIDTH 1400 0
DWIDTH 14 0
BBX 12 12 1 -2
BITMAP
3C00
04E0
0840
0840
FFB0
0240
0200
0F00
1080
1080
1980
0F00
ENDCHAR
STARTCHAR AFCE
ENCODING 12898
SWIDTH 1400 0
DWIDTH 14 0
BBX 12 12 1 -2
BITMAP
3BC0
0840
0840
1080
FFB0
0240
0200
3FC0
0200
0600
09C0
3020
ENDCHAR
STARTCHAR AFD4
ENCODING 12899
SWIDTH 1400 0
DWIDTH 14 0
BBX 9 12 2 -1
BITMAP
0180
0080
FE80
2480
4480
0480
3E80
D780
1080
1080
1080
0080
ENDCHAR
STARTCHAR AFDC
ENCODING 12900
SWIDTH 1400 0
DWIDTH 14 0
BBX 11 12 1 -2
BITMAP
00C0
7F40
1140
1240
9F40
6840
09C0
1FC0
0080
1FC0
0800
0FE0
ENDCHAR
STARTCHAR AFE8
ENCODING 12901
SWIDTH 1400 0
DWIDTH 14 0
BBX 11 12 1 -2
BITMAP
00C0
7740
2240
2240
FC40
0840
09C0
0840
0880
14C0
2120
0200
ENDCHAR
STARTCHAR AFE9
ENCODING 12902
SWIDTH 1400 0
DWIDTH 14 0
BBX 9 12 2 -2
BITMAP
0180
6E80
2480
2480
3E80
D380
1080
1200
0D00
0880
0880
0700
ENDCHAR
STARTCHAR AFF0
ENCODING 12903
SWIDTH 1400 0
DWIDTH 14 0
BBX 10 12 2 -2
BITMAP
00C0
0240
DA40
4A40
4A40
5A40
A240
2E40
2240
2240
0240
0040
ENDCHAR
STARTCHAR AFF1
ENCODING 12904
SWIDTH 1400 0
DWIDTH 14 0
BBX 11 12 1 -2
BITMAP
0260
0120
6520
2520
2520
F920
1720
3FE0
0040
0040
0040
0040
ENDCHAR
STARTCHAR AFF4
ENCODING 12905
SWIDTH 1400 0
DWIDTH 14 0
BBX 11 13 2 -2
BITMAP
0080
0040
0140
FD40
4940
4940
4D40
F140
0340
0140
0800
0800
0FE0
ENDCHAR
STARTCHAR AFF8
ENCODING 12906
SWIDTH 1400 0
DWIDTH 14 0
BBX 10 12 2 -2
BITMAP
02C0
0640
4A40
4940
4D40
F140
2740
1FC0
0080
1FC0
0800
0FC0
ENDCHAR
STARTCHAR B000
ENCODING 12907
SWIDTH 1400 0
DWIDTH 14 0
BBX 10 13 1 -2
BITMAP
0080
0240
0140
6540
2540
2540
F940
1740
0FC0
0840
0880
0F80
0800
ENDCHAR
STARTCHAR B001
ENCODING 12908
SWIDTH 1400 0
DWIDTH 14 0
BBX 10 13 2 -2
BITMAP
00C0
0640
0240
EE40
4A40
4A40
F240
0780
0880
0F80
0880
0F80
0880
ENDCHAR
STARTCHAR B004
ENCODING 12909
SWIDTH 1400 0
DWIDTH 14 0
BBX 10 12 2 -2
BITMAP
03C0
0140
4940
4940
4940
F140
2740
11C0
1080
1980
2240
4400
ENDCHAR
STARTCHAR B00C
ENCODING 12910
SWIDTH 1400 0
DWIDTH 14 0
BBX 9 12 2 -1
BITMAP
0180
0080
EE80
2280
2480
4480
0E80
F080
1080
1080
1080
1080
ENDCHAR
STARTCHAR B010
ENCODING 12911
SWIDTH 1400 0
DWIDTH 14 0
BBX 11 11 1 -1
BITMAP
00C0
0040
F640
2240
2240
BFC0
4840
1840
0840
0800
0FE0
ENDCHAR
STARTCHAR B014
ENCODING 12912
SWIDTH 1400 0
DWIDTH 14 0
BBX 9 12 2 -2
BITMAP
0180
FE80
2480
2480
4780
F880
1080
3F80
0080
1F80
1000
0F80
ENDCHAR
STARTCHAR B01C
ENCODING 12913
SWIDTH 1400 0
DWIDTH 14 0
BBX 11 12 1 -2
BITMAP
00C0
0140
3240
1240
22C0
FD40
0840
07E0
0440
0440
07C0
0400
ENDCHAR
STARTCHAR B01D
ENCODING 12914
SWIDTH 1400 0
DWIDTH 14 0
BBX 10 12 1 -2
BITMAP
00C0
0140
3340
1240
13C0
FC40
08C0
0440
07C0
0440
07C0
0440
ENDCHAR
STARTCHAR B028
ENCODING 12915
SWIDTH 1400 0
DWIDTH 14 0
BBX 12 13 1 -3
BITMAP
3DE0
0420
0840
0840
1040
8FF0
7880
0880
0880
0880
0880
0880
0080
ENDCHAR
STARTCHAR B044
ENCODING 12916
SWIDTH 1400 0
DWIDTH 14 0
BBX 12 7 1 1
BITMAP
39E0
0840
0840
0840
1080
1000
FFF0
ENDCHAR
STARTCHAR B045
ENCODING 12917
SWIDTH 1400 0
DWIDTH 14 0
BBX 11 12 2 -2
BITMAP
F7C0
1080
2080
2100
3FE0
C000
0000
7F80
0080
0080
0080
0080
ENDCHAR
STARTCHAR B048
ENCODING 12918
SWIDTH 1400 0
DWIDTH 14 0
BBX 12 10 1 -1
BITMAP
3BE0
0840
0840
0040
FFF0
0000
1000
1000
1000
1FE0
ENDCHAR
STARTCHAR B04A
ENCODING 12919
SWIDTH 1400 0
DWIDTH 14 0
BBX 11 11 2 -2
BITMAP
77C0
1080
1080
03E0
FC00
C300
47C0
4380
4C40
7480
0300
ENDCHAR
STARTCHAR B04C
ENCODING 12920
SWIDTH 1400 0
DWIDTH 14 0
BBX 12 11 1 -1
BITMAP
7FE0
0820
0840
0840
FFF0
0000
3F80
0080
3F80
1000
1FC0
ENDCHAR
STARTCHAR B04E
ENCODING 12921
SWIDTH 1400 0
DWIDTH 14 0
BBX 13 12 1 -2
BITMAP
3C20
04E0
0820
0840
8FF8
7000
7C00
09E0
7D40
2140
3DC0
0100
ENDCHAR
STARTCHAR B053
ENCODING 12922
SWIDTH 1400 0
DWIDTH 14 0
BBX 12 12 1 -2
BITMAP
0BE0
3840
0840
1040
FFF0
01C0
3800
0BE0
32C0
2220
3A20
01C0
ENDCHAR
STARTCHAR B054
ENCODING 12923
SWIDTH 1400 0
DWIDTH 14 0
BBX 12 12 1 -2
BITMAP
79E0
0840
0840
1000
FFF0
0000
0000
1F80
1080
1080
1F80
1000
ENDCHAR
STARTCHAR B055
ENCODING 12924
SWIDTH 1400 0
DWIDTH 14 0
BBX 11 12 2 -2
BITMAP
F780
1080
1080
2080
2100
3FE0
C300
2100
3F00
2100
3F00
2100
ENDCHAR
STARTCHAR B057
ENCODING 12925
SWIDTH 1400 0
DWIDTH 14 0
BBX 11 12 2 -2
BITMAP
F800
1380
1080
1080
0000
FFE0
0800
0400
0C00
1300
2080
4000
ENDCHAR
STARTCHAR B059
ENCODING 12926
SWIDTH 1400 0
DWIDTH 14 0
BBX 11 12 2 -2
BITMAP
FFC0
1040
1080
2080
1F60
E080
0000
1E00
2100
2100
3300
0E00
ENDCHAR
STARTCHAR B05D
ENCODING 13089
SWIDTH 1400 0
DWIDTH 14 0
BBX 12 11 1 -1
BITMAP
0BE0
3840
0840
0000
FFF0
0000
3FC0
1000
1F80
1000
1FC0
ENDCHAR
STARTCHAR B07C
ENCODING 13090
SWIDTH 1400 0
DWIDTH 14 0
BBX 9 12 2 -2
BITMAP
0180
0080
FE80
2280
2480
4480
4880
8880
1080
2080
0080
0080
ENDCHAR
STARTCHAR B07D
ENCODING 13091
SWIDTH 1400 0
DWIDTH 14 0
BBX 9 12 2 -2
BITMAP
0180
1280
EE80
2480
4880
8880
1080
7F80
0080
0080
0080
0080
ENDCHAR
STARTCHAR B080
ENCODING 13092
SWIDTH 1400 0
DWIDTH 14 0
BBX 10 12 2 -1
BITMAP
0180
0080
2080
7E80
4480
4880
8880
1080
3080
1000
1000
1FC0
ENDCHAR
STARTCHAR B084
ENCODING 13093
SWIDTH 1400 0
DWIDTH 14 0
BBX 11 11 1 -1
BITMAP
00C0
7E40
2240
4440
8840
1040
3FC0
0080
1FC0
0800
0FE0
ENDCHAR
STARTCHAR B08C
ENCODING 13094
SWIDTH 1400 0
DWIDTH 14 0
BBX 11 12 0 -2
BITMAP
0060
7F20
0920
1220
2220
4420
8820
17E0
0420
0440
07E0
0400
ENDCHAR
STARTCHAR B08D
ENCODING 13095
SWIDTH 1400 0
DWIDTH 14 0
BBX 9 12 2 -2
BITMAP
0180
FE80
2280
4480
4880
8880
3180
0880
0F80
0880
0F80
0880
ENDCHAR
STARTCHAR B08F
ENCODING 13096
SWIDTH 1400 0
DWIDTH 14 0
BBX 10 13 2 -2
BITMAP
0180
0080
3E80
E480
2480
4880
8880
1080
0200
0600
0900
10C0
0040
ENDCHAR
STARTCHAR B091
ENCODING 13097
SWIDTH 1400 0
DWIDTH 14 0
BBX 9 13 2 -2
BITMAP
0180
0080
1080
7E80
2480
4480
8880
1080
0200
0D80
0880
0880
0700
ENDCHAR
STARTCHAR B098
ENCODING 13098
SWIDTH 1400 0
DWIDTH 14 0
BBX 11 12 2 -2
BITMAP
0180
0080
C080
4080
4080
4080
41E0
7E80
0080
0080
0080
0080
ENDCHAR
STARTCHAR B099
ENCODING 13099
SWIDTH 1400 0
DWIDTH 14 0
BBX 12 12 2 -2
BITMAP
0180
8080
4080
4080
43F0
7C80
0080
3F80
0080
0080
0080
0080
ENDCHAR
STARTCHAR B09A
ENCODING 13100
SWIDTH 1400 0
DWIDTH 14 0
BBX 11 12 2 -2
BITMAP
0180
0080
8080
8080
86E0
F880
0080
F780
1080
1080
1080
0080
ENDCHAR
STARTCHAR B09C
ENCODING 13101
SWIDTH 1400 0
DWIDTH 14 0
BBX 11 11 2 -1
BITMAP
0180
0080
C080
4080
4080
42E0
7C80
1080
1080
1000
1FC0
ENDCHAR
STARTCHAR B09F
ENCODING 13102
SWIDTH 1400 0
DWIDTH 14 0
BBX 11 12 2 -2
BITMAP
0180
0080
C080
4080
40A0
5FC0
2080
0080
1F00
1000
1000
0FC0
ENDCHAR
STARTCHAR B0A0
ENCODING 13103
SWIDTH 1400 0
DWIDTH 14 0
BBX 12 11 1 -1
BITMAP
00C0
8040
4040
4040
4270
7C40
1FC0
0040
0FC0
0800
0FE0
ENDCHAR
STARTCHAR B0A1
ENCODING 13104
SWIDTH 1400 0
DWIDTH 14 0
BBX 11 11 2 -1
BITMAP
0180
C080
4080
4180
7EE0
0080
7780
1080
7080
4080
7080
ENDCHAR
STARTCHAR B0A2
ENCODING 13105
SWIDTH 1400 0
DWIDTH 14 0
BBX 11 12 2 -2
BITMAP
0180
0080
8080
8080
83E0
FC80
1800
7780
1500
6500
4F00
7400
ENDCHAR
STARTCHAR B0A8
ENCODING 13106
SWIDTH 1400 0
DWIDTH 14 0
BBX 12 12 1 -2
BITMAP
00C0
C040
4040
4040
4270
7C40
0040
0FC0
0840
0840
0FC0
0800
ENDCHAR
STARTCHAR B0A9
ENCODING 13107
SWIDTH 1400 0
DWIDTH 14 0
BBX 11 12 2 -2
BITMAP
0180
C080
4080
4080
46E0
7880
0180
1080
1F80
1080
1F80
1080
ENDCHAR
STARTCHAR B0AB
ENCODING 13108
SWIDTH 1400 0
DWIDTH 14 0
BBX 12 12 2 -2
BITMAP
0180
C080
4080
4080
42F0
7C80
0080
0280
0600
0900
10C0
6040
ENDCHAR
STARTCHAR B0AC
ENCODING 13109
SWIDTH 1400 0
DWIDTH 14 0
BBX 12 12 2 -2
BITMAP
0180
C080
4080
4080
42B0
7CC0
0080
1880
1100
2980
4240
8400
ENDCHAR
STARTCHAR B0AD
ENCODING 13110
SWIDTH 1400 0
DWIDTH 14 0
BBX 13 12 1 -2
BITMAP
00C0
8040
4040
4040
4158
7E60
0040
0100
0EC0
0840
0CC0
0780
ENDCHAR
STARTCHAR B0AE
ENCODING 13111
SWIDTH 1400 0
DWIDTH 14 0
BBX 12 12 2 -2
BITMAP
0180
C080
4080
4080
46F0
7880
0080
7FC0
0400
0600
0980
3040
ENDCHAR
STARTCHAR B0AF
ENCODING 13112
SWIDTH 1400 0
DWIDTH 14 0
BBX 11 13 2 -2
BITMAP
0180
0080
C080
4080
40E0
4680
7800
0E00
3FC0
0400
0600
1980
2040
ENDCHAR
STARTCHAR B0B1
ENCODING 13113
SWIDTH 1400 0
DWIDTH 14 0
BBX 11 11 2 -1
BITMAP
0180
C080
4080
4080
43E0
7C80
1F80
1000
1F80
1000
1FC0
ENDCHAR
STARTCHAR B0B3
ENCODING 13114
SWIDTH 1400 0
DWIDTH 14 0
BBX 11 12 2 -2
BITMAP
0180
C080
4080
4080
7EE0
0880
0600
3FE0
0700
0880
0880
0700
ENDCHAR
STARTCHAR B0B4
ENCODING 13115
SWIDTH 1400 0
DWIDTH 14 0
BBX 10 13 1 -2
BITMAP
00C0
0240
0240
C240
4240
4240
43C0
4240
7E40
0240
0240
0240
0040
ENDCHAR
STARTCHAR B0B5
ENCODING 13116
SWIDTH 1400 0
DWIDTH 14 0
BBX 11 12 1 -2
BITMAP
0360
8120
4120
4120
41E0
4F20
7120
1FC0
0040
0040
0040
0040
ENDCHAR
STARTCHAR B0B8
ENCODING 13117
SWIDTH 1400 0
DWIDTH 14 0
BBX 11 11 1 -1
BITMAP
0240
0140
C140
4140
4140
47C0
7940
1940
0940
0840
0FE0
ENDCHAR
STARTCHAR B0BC
ENCODING 13118
SWIDTH 1400 0
DWIDTH 14 0
BBX 11 11 2 -1
BITMAP
0440
0240
8240
8240
83C0
BE40
7FC0
0080
3F80
1000
1FE0
ENDCHAR
STARTCHAR B0C4
ENCODING 13119
SWIDTH 1400 0
DWIDTH 14 0
BBX 10 13 1 -2
BITMAP
0080
0640
8240
4240
4240
43C0
4E40
7240
0FC0
0840
0880
0840
0780
ENDCHAR
STARTCHAR B0C5
ENCODING 13120
SWIDTH 1400 0
DWIDTH 14 0
BBX 9 12 2 -2
BITMAP
0680
0280
8280
8280
8380
8E80
F380
1080
1F80
1080
1F80
1080
ENDCHAR
STARTCHAR B0C7
ENCODING 13121
SWIDTH 1400 0
DWIDTH 14 0
BBX 11 12 2 -2
BITMAP
00C0
0240
C240
4240
4240
47C0
5A40
2240
0240
0580
0840
3020
ENDCHAR
STARTCHAR B0C8
ENCODING 13122
SWIDTH 1400 0
DWIDTH 14 0
BBX 10 12 2 -1
BITMAP
0100
0680
8280
4280
4280
4380
5E80
6380
1880
1080
2D80
4240
ENDCHAR
STARTCHAR B0C9
ENCODING 13123
SWIDTH 1400 0
DWIDTH 14 0
BBX 10 13 2 -2
BITMAP
0080
0640
0240
8240
8240
83C0
8640
FA40
0240
0D80
0880
0880
0700
ENDCHAR
STARTCHAR B0D0
ENCODING 13124
SWIDTH 1400 0
DWIDTH 14 0
BBX 13 12 1 -2
BITMAP
00C0
0040
C040
4040
4078
4040
4340
7C40
0060
0040
0040
0040
ENDCHAR
STARTCHAR B0D1
ENCODING 13125
SWIDTH 1400 0
DWIDTH 14 0
BBX 11 13 2 -2
BITMAP
0180
0080
C080
40E0
4080
4F80
30E0
0000
3F80
0080
0080
0080
0080
ENDCHAR
STARTCHAR B0D4
ENCODING 13126
SWIDTH 1400 0
DWIDTH 14 0
BBX 12 13 2 -2
BITMAP
0180
0080
C080
40B0
40C0
4180
7E80
00E0
0080
3080
1000
1000
1FC0
ENDCHAR
STARTCHAR B0D8
ENCODING 13127
SWIDTH 1400 0
DWIDTH 14 0
BBX 11 12 3 -2
BITMAP
0300
0100
8100
81C0
8300
FD60
0180
7F00
0200
3F00
2000
1F00
ENDCHAR
STARTCHAR B0E0
ENCODING 13128
SWIDTH 1400 0
DWIDTH 14 0
BBX 12 12 2 -2
BITMAP
0180
C080
40A0
40C0
4380
7CF0
0080
1F80
1080
1080
1F80
1000
ENDCHAR
STARTCHAR B0E5
ENCODING 13129
SWIDTH 1400 0
DWIDTH 14 0
BBX 11 12 3 -2
BITMAP
0300
0100
8100
81E0
8300
FD00
01E0
0500
3A00
2100
3300
1E00
ENDCHAR
STARTCHAR B108
ENCODING 13130
SWIDTH 1400 0
DWIDTH 14 0
BBX 9 12 2 -2
BITMAP
0180
0080
8080
8080
8F80
8080
8080
BC80
4080
0080
0080
0080
ENDCHAR
STARTCHAR B109
ENCODING 13131
SWIDTH 1400 0
DWIDTH 14 0
BBX 9 12 2 -2
BITMAP
0180
C080
4080
4780
4080
7C80
0080
7F80
0080
0080
0080
0080
ENDCHAR
STARTCHAR B10B
ENCODING 13132
SWIDTH 1400 0
DWIDTH 14 0
BBX 10 13 2 -2
BITMAP
0180
0080
C080
4780
4080
4680
7880
0100
7880
0980
0940
0A40
0800
ENDCHAR
STARTCHAR B10C
ENCODING 13133
SWIDTH 1400 0
DWIDTH 14 0
BBX 11 11 2 -1
BITMAP
0180
0080
8080
8F80
8080
8480
F880
3080
1080
1000
1FE0
ENDCHAR
STARTCHAR B110
ENCODING 13134
SWIDTH 1400 0
DWIDTH 14 0
BBX 10 11 2 -1
BITMAP
0180
C080
4F80
4080
4680
7880
3F80
0080
3F80
1000
1FC0
ENDCHAR
STARTCHAR B112
ENCODING 13135
SWIDTH 1400 0
DWIDTH 14 0
BBX 10 13 2 -2
BITMAP
0100
0080
C080
4F80
4080
4280
7C80
0C80
3B40
0A80
3280
2780
3A00
ENDCHAR
STARTCHAR B113
ENCODING 13136
SWIDTH 1400 0
DWIDTH 14 0
BBX 9 12 2 -2
BITMAP
0180
C080
4080
4380
4C80
3080
0580
7280
1380
6280
4B80
3080
ENDCHAR
STARTCHAR B118
ENCODING 13137
SWIDTH 1400 0
DWIDTH 14 0
BBX 9 12 2 -2
BITMAP
0080
C080
4F80
4080
4080
7880
0080
1F80
1080
1080
1F80
1000
ENDCHAR
STARTCHAR B119
ENCODING 13138
SWIDTH 1400 0
DWIDTH 14 0
BBX 9 12 2 -2
BITMAP
0180
C080
4F80
4080
4080
4E80
3180
1080
1F80
1080
1F80
1080
ENDCHAR
STARTCHAR B11B
ENCODING 13139
SWIDTH 1400 0
DWIDTH 14 0
BBX 10 12 2 -2
BITMAP
0180
C080
4780
4080
4080
4E80
3080
0280
0600
0900
10C0
6000
ENDCHAR
STARTCHAR B11C
ENCODING 13140
SWIDTH 1400 0
DWIDTH 14 0
BBX 10 12 2 -2
BITMAP
0180
C080
4080
4780
4280
7C80
0080
1880
1080
2D40
4640
8000
ENDCHAR
STARTCHAR B11D
ENCODING 13141
SWIDTH 1400 0
DWIDTH 14 0
BBX 9 12 2 -2
BITMAP
0180
C080
4F80
4080
4080
7C80
0080
0200
0D80
0880
0880
0700
ENDCHAR
STARTCHAR B123
ENCODING 13142
SWIDTH 1400 0
DWIDTH 14 0
BBX 9 12 2 -2
BITMAP
0180
C080
4F80
4080
4C80
3E80
0000
7F80
0700
0900
0900
0F00
ENDCHAR
STARTCHAR B124
ENCODING 13143
SWIDTH 1400 0
DWIDTH 14 0
BBX 11 12 1 -2
BITMAP
0260
0120
C120
4120
4720
4120
4120
5920
2120
0120
0120
0020
ENDCHAR
STARTCHAR B125
ENCODING 13144
SWIDTH 1400 0
DWIDTH 14 0
BBX 10 13 1 -2
BITMAP
00C0
0340
8140
4140
4740
4140
7940
0100
1FC0
0040
0040
0040
0040
ENDCHAR
STARTCHAR B128
ENCODING 13145
SWIDTH 1400 0
DWIDTH 14 0
BBX 11 12 2 -1
BITMAP
00C0
0440
0240
C240
4640
4A40
4640
7A40
1A40
0800
0800
0FE0
ENDCHAR
STARTCHAR B12C
ENCODING 13146
SWIDTH 1400 0
DWIDTH 14 0
BBX 9 13 3 -2
BITMAP
0300
0900
0500
8500
9D00
8500
E500
0400
7F00
0100
7F00
2000
3F80
ENDCHAR
STARTCHAR B134
ENCODING 13147
SWIDTH 1400 0
DWIDTH 14 0
BBX 8 13 3 -3
BITMAP
0B
05
85
BD
85
B5
45
7F
22
22
22
3E
20
ENDCHAR
STARTCHAR B135
ENCODING 13148
SWIDTH 1400 0
DWIDTH 14 0
BBX 8 12 3 -2
BITMAP
03
05
85
9D
85
95
67
11
1F
11
1F
11
ENDCHAR
STARTCHAR B137
ENCODING 13149
SWIDTH 1400 0
DWIDTH 14 0
BBX 11 12 1 -2
BITMAP
02C0
0140
C140
4F40
4140
4540
7940
0340
0340
0280
0C60
1020
ENDCHAR
STARTCHAR B138
ENCODING 13150
SWIDTH 1400 0
DWIDTH 14 0
BBX 10 12 2 -2
BITMAP
0580
0280
4280
4E80
4280
5A80
2280
1080
1100
1980
2240
C400
ENDCHAR
STARTCHAR B139
ENCODING 13151
SWIDTH 1400 0
DWIDTH 14 0
BBX 8 12 3 -2
BITMAP
0B
05
85
9D
85
B5
45
01
1E
21
31
1E
ENDCHAR
STARTCHAR B140
ENCODING 13152
SWIDTH 1400 0
DWIDTH 14 0
BBX 9 12 2 -2
BITMAP
0180
0080
C080
4780
4080
4080
4780
5C80
2080
0080
0080
0080
ENDCHAR
STARTCHAR B141
ENCODING 13153
SWIDTH 1400 0
DWIDTH 14 0
BBX 10 12 1 -2
BITMAP
00C0
C040
43C0
4040
4440
7BC0
0040
3FC0
0040
0040
0040
0040
ENDCHAR
STARTCHAR B144
ENCODING 13154
SWIDTH 1400 0
DWIDTH 14 0
BBX 12 11 1 -1
BITMAP
00C0
8040
4040
41C0
4240
4C40
71C0
1840
0840
0800
0FF0
ENDCHAR
STARTCHAR B148
ENCODING 13155
SWIDTH 1400 0
DWIDTH 14 0
BBX 10 12 2 -2
BITMAP
0180
8080
4080
4380
4080
4F80
3080
3F80
0080
3F80
1000
1FC0
ENDCHAR
STARTCHAR B150
ENCODING 13156
SWIDTH 1400 0
DWIDTH 14 0
BBX 10 12 1 -2
BITMAP
00C0
8040
4040
41C0
4440
7BC0
0040
0FC0
0840
0840
0FC0
0800
ENDCHAR
STARTCHAR B151
ENCODING 13157
SWIDTH 1400 0
DWIDTH 14 0
BBX 9 12 2 -2
BITMAP
0180
8080
4080
4380
4080
4F80
3180
0880
0F80
0880
0F80
0880
ENDCHAR
STARTCHAR B154
ENCODING 13158
SWIDTH 1400 0
DWIDTH 14 0
BBX 11 12 1 -2
BITMAP
00C0
8040
43C0
4040
4440
7BC0
0040
0840
0840
0CC0
3320
4200
ENDCHAR
STARTCHAR B155
ENCODING 13159
SWIDTH 1400 0
DWIDTH 14 0
BBX 9 12 2 -2
BITMAP
0180
C080
4780
4080
4480
7F80
0080
0200
0D00
0880
0880
0700
ENDCHAR
STARTCHAR B158
ENCODING 13160
SWIDTH 1400 0
DWIDTH 14 0
BBX 9 13 2 -2
BITMAP
0180
0080
C080
4380
4080
4780
5880
2080
3F80
0080
7F80
0100
0100
ENDCHAR
STARTCHAR B15C
ENCODING 13161
SWIDTH 1400 0
DWIDTH 14 0
BBX 11 12 1 -1
BITMAP
0060
0320
0120
C120
4F20
4120
4F20
4120
7920
0120
0120
0120
ENDCHAR
STARTCHAR B160
ENCODING 13162
SWIDTH 1400 0
DWIDTH 14 0
BBX 11 12 1 -2
BITMAP
00C0
0140
C140
4740
4140
4740
7940
0140
1940
0800
0800
0FE0
ENDCHAR
STARTCHAR B178
ENCODING 13163
SWIDTH 1400 0
DWIDTH 14 0
BBX 13 9 1 0
BITMAP
6000
2000
2000
2000
3FE0
0600
0200
0200
FFF8
ENDCHAR
STARTCHAR B179
ENCODING 13164
SWIDTH 1400 0
DWIDTH 14 0
BBX 12 12 1 -2
BITMAP
6000
2000
2000
1FC0
0400
FFF0
0000
3FC0
0040
0040
0040
0040
ENDCHAR
STARTCHAR B17C
ENCODING 13165
SWIDTH 1400 0
DWIDTH 14 0
BBX 12 11 1 -1
BITMAP
6000
2000
2000
1FC0
0400
0400
FFF0
3000
1000
1000
1FE0
ENDCHAR
STARTCHAR B180
ENCODING 13166
SWIDTH 1400 0
DWIDTH 14 0
BBX 12 11 1 -1
BITMAP
4000
2000
2000
1FC0
0400
FFF0
0000
3FC0
3F80
1000
1FE0
ENDCHAR
STARTCHAR B182
ENCODING 13167
SWIDTH 1400 0
DWIDTH 14 0
BBX 12 11 1 -1
BITMAP
4000
2000
2000
1FC0
0400
FFF0
0000
3BC0
6A40
3240
39C0
ENDCHAR
STARTCHAR B188
ENCODING 13168
SWIDTH 1400 0
DWIDTH 14 0
BBX 12 12 2 -2
BITMAP
6000
2000
2000
1FC0
0400
FFF0
0000
1F80
1080
1080
1F80
1000
ENDCHAR
STARTCHAR B189
ENCODING 13169
SWIDTH 1400 0
DWIDTH 14 0
BBX 12 13 2 -2
BITMAP
6000
2000
2000
1FC0
0400
0400
FFF0
0300
2100
3F00
2100
3F00
2100
ENDCHAR
STARTCHAR B18B
ENCODING 13170
SWIDTH 1400 0
DWIDTH 14 0
BBX 13 11 1 -1
BITMAP
3000
1000
1000
0FE0
0200
FFF8
0000
0600
0600
0500
18C0
ENDCHAR
STARTCHAR B18D
ENCODING 13171
SWIDTH 1400 0
DWIDTH 14 0
BBX 12 12 1 -2
BITMAP
6000
2000
2000
1FC0
0400
FFF0
0000
0E00
1180
1080
1980
0700
ENDCHAR
STARTCHAR B192
ENCODING 13172
SWIDTH 1400 0
DWIDTH 14 0
BBX 12 12 1 -1
BITMAP
6000
2000
2000
1FC0
0400
0400
FFF0
0000
3FC0
0100
0900
3FE0
ENDCHAR
STARTCHAR B193
ENCODING 13173
SWIDTH 1400 0
DWIDTH 14 0
BBX 12 12 2 -2
BITMAP
6000
2000
3FC0
0400
FFF0
0E00
0000
7FC0
0C00
1200
1200
0E00
ENDCHAR
STARTCHAR B194
ENCODING 13174
SWIDTH 1400 0
DWIDTH 14 0
BBX 11 12 2 -2
BITMAP
0180
0080
4080
4080
4680
3880
10E0
1780
E880
0080
0080
0080
ENDCHAR
STARTCHAR B198
ENCODING 13175
SWIDTH 1400 0
DWIDTH 14 0
BBX 12 12 2 -2
BITMAP
0180
0080
4080
4080
7C80
10F0
1F80
E080
3080
1080
1000
1FC0
ENDCHAR
STARTCHAR B19C
ENCODING 13176
SWIDTH 1400 0
DWIDTH 14 0
BBX 11 12 2 -2
BITMAP
0180
C080
4080
4680
38A0
13C0
EC80
3F80
0080
3F80
1000
1FC0
ENDCHAR
STARTCHAR B1A8
ENCODING 13177
SWIDTH 1400 0
DWIDTH 14 0
BBX 11 12 2 -2
BITMAP
0180
4080
4280
7C80
1080
13E0
EC80
1180
1100
1980
2240
C400
ENDCHAR
STARTCHAR B1CC
ENCODING 13178
SWIDTH 1400 0
DWIDTH 14 0
BBX 9 12 2 -2
BITMAP
0180
C080
4080
4080
7E80
0880
0880
1680
E880
0080
0080
0080
ENDCHAR
STARTCHAR B1D0
ENCODING 13179
SWIDTH 1400 0
DWIDTH 14 0
BBX 10 11 2 -1
BITMAP
0180
0080
4080
4080
4680
3880
1380
FC80
1080
1000
1FC0
ENDCHAR
STARTCHAR B1D4
ENCODING 13180
SWIDTH 1400 0
DWIDTH 14 0
BBX 10 11 2 -1
BITMAP
0180
8080
4080
4080
3C80
1380
EC80
3F80
1F80
1000
1FC0
ENDCHAR
STARTCHAR B1DC
ENCODING 13181
SWIDTH 1400 0
DWIDTH 14 0
BBX 10 13 1 -3
BITMAP
00C0
6040
2040
3E40
0840
FFC0
0040
1FC0
0840
0840
0880
0FC0
0800
ENDCHAR
STARTCHAR B1DD
ENCODING 13182
SWIDTH 1400 0
DWIDTH 14 0
BBX 10 12 1 -2
BITMAP
00C0
6040
2040
2040
1E40
0840
FFC0
0840
0FC0
0840
0FC0
0840
ENDCHAR
STARTCHAR B1DF
ENCODING 13345
SWIDTH 1400 0
DWIDTH 14 0
BBX 11 12 1 -2
BITMAP
00C0
0040
2040
2040
3E40
0840
9FC0
6340
0140
0280
0460
1800
ENDCHAR
STARTCHAR B1E8
ENCODING 13346
SWIDTH 1400 0
DWIDTH 14 0
BBX 12 9 1 0
BITMAP
2000
2000
2000
20E0
1F00
1880
0880
0880
FFF0
ENDCHAR
STARTCHAR B1E9
ENCODING 13347
SWIDTH 1400 0
DWIDTH 14 0
BBX 12 13 1 -2
BITMAP
3000
1000
1000
1FE0
0100
0900
FFF0
0000
3FC0
0040
0040
0040
0040
ENDCHAR
STARTCHAR B1EC
ENCODING 13348
SWIDTH 1400 0
DWIDTH 14 0
BBX 12 11 1 -1
BITMAP
6000
2000
2000
3F80
0900
0900
FFF0
3000
1000
1000
1FE0
ENDCHAR
STARTCHAR B1F0
ENCODING 13349
SWIDTH 1400 0
DWIDTH 14 0
BBX 12 11 1 -1
BITMAP
6000
2000
23C0
1F00
0A00
FFF0
0000
3FC0
3F80
1000
1FE0
ENDCHAR
STARTCHAR B1F9
ENCODING 13350
SWIDTH 1400 0
DWIDTH 14 0
BBX 12 12 1 -2
BITMAP
3000
1000
1000
1FE0
0900
FFF0
0000
1080
1F80
1080
1F80
1080
ENDCHAR
STARTCHAR B1FB
ENCODING 13351
SWIDTH 1400 0
DWIDTH 14 0
BBX 11 12 2 -2
BITMAP
2000
2000
2000
1FC0
1300
FE60
0180
0C00
0800
1600
2180
C000
ENDCHAR
STARTCHAR B1FD
ENCODING 13352
SWIDTH 1400 0
DWIDTH 14 0
BBX 12 12 1 -2
BITMAP
6000
2000
2000
1FC0
0900
0900
FFF0
0F00
1080
1080
1880
0700
ENDCHAR
STARTCHAR B204
ENCODING 13353
SWIDTH 1400 0
DWIDTH 14 0
BBX 12 12 2 -2
BITMAP
C000
4000
4000
7F80
0000
FFF0
0400
0400
0400
0400
0400
0400
ENDCHAR
STARTCHAR B205
ENCODING 13354
SWIDTH 1400 0
DWIDTH 14 0
BBX 12 12 2 -2
BITMAP
6000
2000
3FC0
0000
0000
FFF0
0400
0400
3F00
0100
0100
0100
ENDCHAR
STARTCHAR B208
ENCODING 13355
SWIDTH 1400 0
DWIDTH 14 0
BBX 12 11 1 -1
BITMAP
6000
2000
3FC0
0000
0000
FFF0
0200
3200
1200
1200
1FE0
ENDCHAR
STARTCHAR B20B
ENCODING 13356
SWIDTH 1400 0
DWIDTH 14 0
BBX 12 11 1 -1
BITMAP
3000
1000
1000
1FE0
0000
FFF0
0200
1F80
1000
1000
1FC0
ENDCHAR
STARTCHAR B20C
ENCODING 13357
SWIDTH 1400 0
DWIDTH 14 0
BBX 11 11 2 -1
BITMAP
6000
2000
3FC0
0000
FFE0
0400
3F80
0100
3F00
2000
3F80
ENDCHAR
STARTCHAR B214
ENCODING 13358
SWIDTH 1400 0
DWIDTH 14 0
BBX 12 11 2 -1
BITMAP
6000
2000
3FC0
0000
0000
FFF0
0400
3F80
2100
2100
3F00
ENDCHAR
STARTCHAR B215
ENCODING 13359
SWIDTH 1400 0
DWIDTH 14 0
BBX 12 12 1 -2
BITMAP
6000
2000
3FC0
0000
0000
FFF0
0400
1080
1F80
1080
1F80
1080
ENDCHAR
STARTCHAR B217
ENCODING 13360
SWIDTH 1400 0
DWIDTH 14 0
BBX 12 12 1 -2
BITMAP
3000
1000
1000
1FE0
0000
FFF0
0200
0400
0200
0500
18C0
2000
ENDCHAR
STARTCHAR B219
ENCODING 13361
SWIDTH 1400 0
DWIDTH 14 0
BBX 12 12 1 -2
BITMAP
3000
1000
1000
1FE0
0000
FFF0
0200
0600
1900
1080
1980
0F00
ENDCHAR
STARTCHAR B220
ENCODING 13362
SWIDTH 1400 0
DWIDTH 14 0
BBX 10 12 1 -2
BITMAP
40C0
2040
2040
3F40
0040
0140
FE40
0840
09C0
0840
0840
0040
ENDCHAR
STARTCHAR B234
ENCODING 13363
SWIDTH 1400 0
DWIDTH 14 0
BBX 11 13 1 -2
BITMAP
00C0
0040
2040
2040
3E40
0040
FFC0
0840
08C0
0840
0CC0
3320
4000
ENDCHAR
STARTCHAR B23C
ENCODING 13364
SWIDTH 1400 0
DWIDTH 14 0
BBX 11 12 1 -2
BITMAP
0260
C120
4120
4120
4D20
3120
F920
1720
1120
1120
0120
0020
ENDCHAR
STARTCHAR B258
ENCODING 13365
SWIDTH 1400 0
DWIDTH 14 0
BBX 10 12 1 -2
BITMAP
00C0
6040
2040
2340
1C40
01C0
FE40
0840
0840
0840
0840
0040
ENDCHAR
STARTCHAR B25C
ENCODING 13366
SWIDTH 1400 0
DWIDTH 14 0
BBX 11 12 1 -2
BITMAP
00C0
2040
2040
3E40
0040
00C0
FF40
0840
1840
0800
0800
0FE0
ENDCHAR
STARTCHAR B260
ENCODING 13367
SWIDTH 1400 0
DWIDTH 14 0
BBX 10 12 2 -2
BITMAP
0180
4080
4080
7C80
0380
FC80
1080
3F80
0080
3F80
1000
1FC0
ENDCHAR
STARTCHAR B268
ENCODING 13368
SWIDTH 1400 0
DWIDTH 14 0
BBX 9 13 2 -3
BITMAP
0180
4080
4080
7C80
0080
0F80
F080
3F80
1080
1100
1100
1F80
1000
ENDCHAR
STARTCHAR B269
ENCODING 13369
SWIDTH 1400 0
DWIDTH 14 0
BBX 9 12 2 -2
BITMAP
0180
4080
4080
7C80
0080
0780
F980
1080
1F80
1080
1F80
1080
ENDCHAR
STARTCHAR B274
ENCODING 13370
SWIDTH 1400 0
DWIDTH 14 0
BBX 13 12 1 -2
BITMAP
6000
2000
2000
3FC0
0000
FFF8
0880
0880
0880
0880
0880
0880
ENDCHAR
STARTCHAR B275
ENCODING 13371
SWIDTH 1400 0
DWIDTH 14 0
BBX 10 12 2 -2
BITMAP
6000
2000
2000
3FC0
0000
FFC0
1100
7F00
0100
0100
0100
0100
ENDCHAR
STARTCHAR B27C
ENCODING 13372
SWIDTH 1400 0
DWIDTH 14 0
BBX 12 11 1 -1
BITMAP
3000
1000
1000
1FE0
0000
FFF0
0900
3F80
1F80
1000
1FC0
ENDCHAR
STARTCHAR B284
ENCODING 13373
SWIDTH 1400 0
DWIDTH 14 0
BBX 13 12 1 -2
BITMAP
3000
1000
1FC0
0000
FFF8
0880
0880
1F80
1080
1100
1F00
1000
ENDCHAR
STARTCHAR B285
ENCODING 13374
SWIDTH 1400 0
DWIDTH 14 0
BBX 11 12 2 -2
BITMAP
6000
2000
3FC0
0000
FFE0
1200
1200
2100
3F00
2100
3F00
2100
ENDCHAR
STARTCHAR B289
ENCODING 13375
SWIDTH 1400 0
DWIDTH 14 0
BBX 12 12 1 -2
BITMAP
6000
2000
2000
3FC0
0000
FFF0
1080
0280
1D00
1080
1880
0F00
ENDCHAR
STARTCHAR B290
ENCODING 13376
SWIDTH 1400 0
DWIDTH 14 0
BBX 12 9 1 0
BITMAP
E000
2000
2000
2000
3FC0
0000
0000
0000
FFF0
ENDCHAR
STARTCHAR B291
ENCODING 13377
SWIDTH 1400 0
DWIDTH 14 0
BBX 12 12 1 -2
BITMAP
6000
2000
2000
3FC0
0000
FFF0
0000
3FC0
0040
0040
0040
0040
ENDCHAR
STARTCHAR B294
ENCODING 13378
SWIDTH 1400 0
DWIDTH 14 0
BBX 12 11 1 -1
BITMAP
6000
2000
2000
3FC0
0000
0000
FFF0
3000
1000
1000
1FE0
ENDCHAR
STARTCHAR B298
ENCODING 13379
SWIDTH 1400 0
DWIDTH 14 0
BBX 12 11 1 -1
BITMAP
6000
2000
2000
3FC0
0000
FFF0
0000
3FC0
0080
1FC0
1FE0
ENDCHAR
STARTCHAR B299
ENCODING 13380
SWIDTH 1400 0
DWIDTH 14 0
BBX 12 12 1 -2
BITMAP
6000
2000
2000
3FC0
FFF0
0000
0000
3DC0
0840
3040
2C40
1040
ENDCHAR
STARTCHAR B29A
ENCODING 13381
SWIDTH 1400 0
DWIDTH 14 0
BBX 12 12 1 -2
BITMAP
3000
1000
1000
1FE0
0000
FFF0
0000
3DE0
4520
3920
39E0
0100
ENDCHAR
STARTCHAR B2A0
ENCODING 13382
SWIDTH 1400 0
DWIDTH 14 0
BBX 12 12 1 -2
BITMAP
6000
2000
2000
3FC0
0000
FFF0
0000
3F80
1080
1080
1F80
1000
ENDCHAR
STARTCHAR B2A1
ENCODING 13383
SWIDTH 1400 0
DWIDTH 14 0
BBX 12 12 1 -2
BITMAP
3000
1000
1000
1FE0
0000
FFF0
2180
1080
1F80
1080
1F80
1080
ENDCHAR
STARTCHAR B2A3
ENCODING 13384
SWIDTH 1400 0
DWIDTH 14 0
BBX 11 12 2 -2
BITMAP
2000
2000
2000
3F80
0000
FFE0
0000
0400
0C00
1300
2080
4000
ENDCHAR
STARTCHAR B2A5
ENCODING 13385
SWIDTH 1400 0
DWIDTH 14 0
BBX 12 12 1 -2
BITMAP
6000
2000
2000
3FC0
0000
FFF0
0000
0F00
1080
1080
1880
0F00
ENDCHAR
STARTCHAR B2A6
ENCODING 13386
SWIDTH 1400 0
DWIDTH 14 0
BBX 12 12 1 -2
BITMAP
2000
2000
20C0
1F00
0000
FFF0
0000
00C0
3F00
0600
0980
3040
ENDCHAR
STARTCHAR B2AA
ENCODING 13387
SWIDTH 1400 0
DWIDTH 14 0
BBX 12 11 1 -1
BITMAP
6000
2000
3FC0
0000
0000
FFF0
0000
3FC0
0100
0900
3FE0
ENDCHAR
STARTCHAR B2AC
ENCODING 13388
SWIDTH 1400 0
DWIDTH 14 0
BBX 9 12 2 -2
BITMAP
0180
C080
4080
4280
7E80
0080
0080
0380
FC80
0080
0080
0080
ENDCHAR
STARTCHAR B2B0
ENCODING 13389
SWIDTH 1400 0
DWIDTH 14 0
BBX 10 11 2 -1
BITMAP
0180
C080
4080
4080
7E80
0080
0380
FC80
1080
1000
1FC0
ENDCHAR
STARTCHAR B2B4
ENCODING 13390
SWIDTH 1400 0
DWIDTH 14 0
BBX 10 13 2 -2
BITMAP
0100
8080
4080
4080
7E80
0080
1F80
E000
3F80
3F80
1000
1000
1FC0
ENDCHAR
STARTCHAR B2C8
ENCODING 13391
SWIDTH 1400 0
DWIDTH 14 0
BBX 9 12 2 -2
BITMAP
0180
0080
C080
4080
4080
4080
4380
7C80
0080
0080
0080
0080
ENDCHAR
STARTCHAR B2C9
ENCODING 13392
SWIDTH 1400 0
DWIDTH 14 0
BBX 9 12 2 -2
BITMAP
0180
C080
4080
4080
4380
7C80
0080
7F80
0080
0080
0080
0080
ENDCHAR
STARTCHAR B2CC
ENCODING 13393
SWIDTH 1400 0
DWIDTH 14 0
BBX 11 12 2 -1
BITMAP
0180
0080
C080
4080
4080
4180
5E80
2080
3080
1000
1000
1FE0
ENDCHAR
STARTCHAR B2D0
ENCODING 13394
SWIDTH 1400 0
DWIDTH 14 0
BBX 10 12 2 -1
BITMAP
0180
0080
C080
4080
4080
4F80
3080
3F80
0080
1F80
1000
1FC0
ENDCHAR
STARTCHAR B2D2
ENCODING 13395
SWIDTH 1400 0
DWIDTH 14 0
BBX 10 12 2 -2
BITMAP
0180
8080
4080
4080
4380
7C80
7000
13C0
FA80
4280
7380
0200
ENDCHAR
STARTCHAR B2D8
ENCODING 13396
SWIDTH 1400 0
DWIDTH 14 0
BBX 9 12 2 -2
BITMAP
0180
C080
4080
4080
4380
7C80
0080
1F80
1080
1080
1F80
1000
ENDCHAR
STARTCHAR B2D9
ENCODING 13397
SWIDTH 1400 0
DWIDTH 14 0
BBX 9 12 2 -2
BITMAP
0180
8080
4080
4080
4280
7C80
0180
1080
1F80
1080
1F80
1080
ENDCHAR
STARTCHAR B2DB
ENCODING 13398
SWIDTH 1400 0
DWIDTH 14 0
BBX 10 12 2 -2
BITMAP
0180
C080
4080
4080
4380
7C80
0080
0200
0600
0500
18C0
6000
ENDCHAR
STARTCHAR B2DD
ENCODING 13399
SWIDTH 1400 0
DWIDTH 14 0
BBX 9 12 2 -2
BITMAP
0180
C080
4080
4080
4180
7E80
0080
0280
0D80
0880
0880
0700
ENDCHAR
STARTCHAR B2E2
ENCODING 13400
SWIDTH 1400 0
DWIDTH 14 0
BBX 11 11 2 -1
BITMAP
0180
C080
4080
4080
4380
7C80
0080
3FC0
0100
0900
7FE0
ENDCHAR
STARTCHAR B2E4
ENCODING 13401
SWIDTH 1400 0
DWIDTH 14 0
BBX 12 12 2 -2
BITMAP
0180
0080
FE80
4080
4080
4080
40F0
4680
7880
0080
0080
0080
ENDCHAR
STARTCHAR B2E5
ENCODING 13402
SWIDTH 1400 0
DWIDTH 14 0
BBX 11 12 3 -2
BITMAP
0300
0900
F100
8100
8160
FD80
0100
7F00
0100
0100
0100
0100
ENDCHAR
STARTCHAR B2E6
ENCODING 13403
SWIDTH 1400 0
DWIDTH 14 0
BBX 11 12 2 -2
BITMAP
0180
F880
8080
8080
83E0
FC80
0080
7B80
0880
0880
0880
0080
ENDCHAR
STARTCHAR B2E8
ENCODING 13404
SWIDTH 1400 0
DWIDTH 14 0
BBX 12 11 1 -1
BITMAP
00C0
FC40
4040
4040
40D0
4760
7840
1840
0840
0800
0FE0
ENDCHAR
STARTCHAR B2EB
ENCODING 13405
SWIDTH 1400 0
DWIDTH 14 0
BBX 13 13 1 -2
BITMAP
0080
0040
FC40
4040
4040
4178
7E40
0040
0040
0F80
0800
0800
07E0
ENDCHAR
STARTCHAR B2EC
ENCODING 13406
SWIDTH 1400 0
DWIDTH 14 0
BBX 12 12 1 -1
BITMAP
0080
0040
FC40
4040
4040
4170
7E40
0000
1FC0
0040
0FC0
0FE0
ENDCHAR
STARTCHAR B2ED
ENCODING 13407
SWIDTH 1400 0
DWIDTH 14 0
BBX 11 12 2 -2
BITMAP
0180
F880
4080
4080
42E0
7C80
0000
7380
1080
6080
5880
2080
ENDCHAR
STARTCHAR B2EE
ENCODING 13408
SWIDTH 1400 0
DWIDTH 14 0
BBX 12 13 1 -2
BITMAP
00C0
0040
F840
4040
40F0
4F40
3040
0000
3FC0
0E40
3280
2FC0
1200
ENDCHAR
STARTCHAR B2EF
ENCODING 13409
SWIDTH 1400 0
DWIDTH 14 0
BBX 10 12 3 -2
BITMAP
0300
F100
8100
8100
87C0
F900
1900
E900
2F00
C900
BF00
4900
ENDCHAR
STARTCHAR B2F3
ENCODING 13410
SWIDTH 1400 0
DWIDTH 14 0
BBX 11 12 2 -2
BITMAP
0180
FC80
4080
4080
4EE0
3080
7100
1060
7780
44C0
74C0
0380
ENDCHAR
STARTCHAR B2F4
ENCODING 13411
SWIDTH 1400 0
DWIDTH 14 0
BBX 13 12 1 -2
BITMAP
00C0
FC40
4040
4040
4178
7E40
0040
0FC0
0840
0840
0FC0
0800
ENDCHAR
STARTCHAR B2F5
ENCODING 13412
SWIDTH 1400 0
DWIDTH 14 0
BBX 13 12 1 -2
BITMAP
00C0
DC40
6040
4040
4158
7E60
00C0
0840
0FC0
0840
0FC0
0840
ENDCHAR
STARTCHAR B2F7
ENCODING 13413
SWIDTH 1400 0
DWIDTH 14 0
BBX 11 12 3 -2
BITMAP
0100
0900
F100
8100
8160
8D80
F100
0500
0400
0A00
1180
6000
ENDCHAR
STARTCHAR B2F8
ENCODING 13414
SWIDTH 1400 0
DWIDTH 14 0
BBX 12 12 2 -2
BITMAP
0180
7C80
4080
40F0
4380
3C80
0000
1080
1100
2980
4240
8400
ENDCHAR
STARTCHAR B2F9
ENCODING 13415
SWIDTH 1400 0
DWIDTH 14 0
BBX 13 12 1 -2
BITMAP
00C0
CC40
7040
4040
4178
7E40
0040
0100
0EC0
0840
0CC0
0780
ENDCHAR
STARTCHAR B2FA
ENCODING 13416
SWIDTH 1400 0
DWIDTH 14 0
BBX 11 12 3 -2
BITMAP
0300
0100
F900
8100
81E0
BF00
4100
7F80
0800
0C00
1300
6080
ENDCHAR
STARTCHAR B2FB
ENCODING 13417
SWIDTH 1400 0
DWIDTH 14 0
BBX 11 12 3 -2
BITMAP
0300
F900
8100
8100
87E0
F900
1D00
0080
3F00
0A00
1180
6000
ENDCHAR
STARTCHAR B2FF
ENCODING 13418
SWIDTH 1400 0
DWIDTH 14 0
BBX 11 12 2 -2
BITMAP
0180
8C80
7080
4080
4180
7EE0
0080
0E80
3FC0
0A00
0900
0E00
ENDCHAR
STARTCHAR B300
ENCODING 13419
SWIDTH 1400 0
DWIDTH 14 0
BBX 11 12 1 -2
BITMAP
0260
0120
D920
6120
4120
4120
41E0
4F20
7120
0120
0120
0020
ENDCHAR
STARTCHAR B301
ENCODING 13420
SWIDTH 1400 0
DWIDTH 14 0
BBX 9 12 2 -2
BITMAP
0780
1280
E280
8280
8380
8E80
F280
7F80
0080
0080
0080
0080
ENDCHAR
STARTCHAR B304
ENCODING 13421
SWIDTH 1400 0
DWIDTH 14 0
BBX 10 11 2 -1
BITMAP
0440
0240
FA40
4240
4240
5FC0
7240
1240
1240
1000
0FC0
ENDCHAR
STARTCHAR B308
ENCODING 13422
SWIDTH 1400 0
DWIDTH 14 0
BBX 11 12 2 -2
BITMAP
0440
0240
E240
8240
83C0
8E40
FFC0
0040
1FC0
0800
0800
0FE0
ENDCHAR
STARTCHAR B310
ENCODING 13423
SWIDTH 1400 0
DWIDTH 14 0
BBX 10 13 1 -2
BITMAP
0080
0640
FA40
4240
4240
47C0
7A40
6240
1FC0
0840
0840
0FC0
0800
ENDCHAR
STARTCHAR B311
ENCODING 13424
SWIDTH 1400 0
DWIDTH 14 0
BBX 9 12 3 -2
BITMAP
0880
1480
E480
8480
8780
8F80
F500
1F00
1100
1100
1F00
1100
ENDCHAR
STARTCHAR B313
ENCODING 13425
SWIDTH 1400 0
DWIDTH 14 0
BBX 10 13 2 -2
BITMAP
0180
0280
3280
C280
8280
8380
8E80
F280
0680
0600
0900
10C0
6000
ENDCHAR
STARTCHAR B314
ENCODING 13426
SWIDTH 1400 0
DWIDTH 14 0
BBX 10 12 2 -2
BITMAP
0440
0240
7240
4240
43C0
7E40
0240
1880
1080
2D80
4240
8000
ENDCHAR
STARTCHAR B315
ENCODING 13427
SWIDTH 1400 0
DWIDTH 14 0
BBX 8 13 3 -2
BITMAP
02
0D
05
E5
85
87
8D
F5
05
1A
11
11
0E
ENDCHAR
STARTCHAR B31C
ENCODING 13428
SWIDTH 1400 0
DWIDTH 14 0
BBX 11 12 2 -2
BITMAP
0180
0080
FC80
80A0
80C0
8080
8180
9EE0
6080
0080
0080
0080
ENDCHAR
STARTCHAR B354
ENCODING 13429
SWIDTH 1400 0
DWIDTH 14 0
BBX 10 12 1 -2
BITMAP
00C0
0040
FC40
4040
4040
43C0
4040
4040
7E40
0040
0040
0040
ENDCHAR
STARTCHAR B355
ENCODING 13430
SWIDTH 1400 0
DWIDTH 14 0
BBX 10 12 1 -2
BITMAP
00C0
FC40
4040
47C0
4040
4640
7840
3FC0
0040
0040
0040
0040
ENDCHAR
STARTCHAR B356
ENCODING 13431
SWIDTH 1400 0
DWIDTH 14 0
BBX 9 12 2 -2
BITMAP
0180
FC80
4080
4780
4080
7C80
0080
0880
3B80
0880
0880
0880
ENDCHAR
STARTCHAR B358
ENCODING 13432
SWIDTH 1400 0
DWIDTH 14 0
BBX 10 11 2 -1
BITMAP
0180
0880
F080
8080
8780
8080
F880
3080
1080
1000
1FC0
ENDCHAR
STARTCHAR B35B
ENCODING 13433
SWIDTH 1400 0
DWIDTH 14 0
BBX 10 11 2 -1
BITMAP
0180
8C80
7080
4780
4080
7C80
0080
0000
1F80
1000
10C0
ENDCHAR
STARTCHAR B35C
ENCODING 13434
SWIDTH 1400 0
DWIDTH 14 0
BBX 10 11 2 -1
BITMAP
0180
FC80
4080
4780
4080
7C80
3F80
0080
3F80
1000
1FC0
ENDCHAR
STARTCHAR B35E
ENCODING 13435
SWIDTH 1400 0
DWIDTH 14 0
BBX 11 12 1 -2
BITMAP
00C0
FC40
4040
47C0
4040
7C40
1DE0
0520
3520
1940
13E0
0D00
ENDCHAR
STARTCHAR B35F
ENCODING 13436
SWIDTH 1400 0
DWIDTH 14 0
BBX 9 12 2 -2
BITMAP
0180
FC80
4080
4F80
4080
7C80
0680
7280
1380
6280
5B80
2080
ENDCHAR
STARTCHAR B364
ENCODING 13437
SWIDTH 1400 0
DWIDTH 14 0
BBX 9 12 2 -2
BITMAP
0180
FC80
4080
4F80
4080
4480
3880
1F80
1080
1080
1F80
1000
ENDCHAR
STARTCHAR B365
ENCODING 13438
SWIDTH 1400 0
DWIDTH 14 0
BBX 9 12 2 -2
BITMAP
0180
FC80
4080
4F80
4080
6D80
7080
1F80
1080
1080
1F80
1080
ENDCHAR
STARTCHAR B367
ENCODING 13601
SWIDTH 1400 0
DWIDTH 14 0
BBX 10 12 2 -2
BITMAP
0180
DC80
6080
4080
4780
4280
7C80
0280
0680
0500
18C0
6000
ENDCHAR
STARTCHAR B369
ENCODING 13602
SWIDTH 1400 0
DWIDTH 14 0
BBX 9 12 2 -2
BITMAP
0180
FC80
4080
4080
4780
4480
7880
0780
0880
0880
0880
0700
ENDCHAR
STARTCHAR B36B
ENCODING 13603
SWIDTH 1400 0
DWIDTH 14 0
BBX 10 12 2 -2
BITMAP
0180
FC80
4080
4780
4080
5C80
2080
0E80
3FC0
0400
0B00
3080
ENDCHAR
STARTCHAR B36E
ENCODING 13604
SWIDTH 1400 0
DWIDTH 14 0
BBX 11 11 1 -1
BITMAP
00C0
FC40
4040
47C0
4040
7C40
00C0
3FC0
0900
0900
7FE0
ENDCHAR
STARTCHAR B370
ENCODING 13605
SWIDTH 1400 0
DWIDTH 14 0
BBX 10 12 2 -2
BITMAP
04C0
0240
FA40
4240
4240
4E40
4240
5A40
2240
0240
0240
0040
ENDCHAR
STARTCHAR B371
ENCODING 13606
SWIDTH 1400 0
DWIDTH 14 0
BBX 9 13 2 -2
BITMAP
0180
0680
1280
E280
9E80
8280
B280
4280
7F80
0080
0080
0080
0080
ENDCHAR
STARTCHAR B374
ENCODING 13607
SWIDTH 1400 0
DWIDTH 14 0
BBX 10 12 2 -2
BITMAP
0580
0280
E280
8280
8E80
8280
F280
0280
3080
1000
1000
1FC0
ENDCHAR
STARTCHAR B378
ENCODING 13608
SWIDTH 1400 0
DWIDTH 14 0
BBX 9 12 3 -2
BITMAP
0980
0480
E480
BC80
8480
9500
6500
7F80
0080
3F00
2000
3F80
ENDCHAR
STARTCHAR B380
ENCODING 13609
SWIDTH 1400 0
DWIDTH 14 0
BBX 8 12 3 -2
BITMAP
03
05
E5
85
9D
85
F5
3F
21
22
3F
20
ENDCHAR
STARTCHAR B381
ENCODING 13610
SWIDTH 1400 0
DWIDTH 14 0
BBX 8 12 3 -2
BITMAP
0B
05
E5
BD
85
95
67
11
1F
11
1F
01
ENDCHAR
STARTCHAR B383
ENCODING 13611
SWIDTH 1400 0
DWIDTH 14 0
BBX 9 12 3 -2
BITMAP
0980
0480
E480
8C80
9480
8480
F480
0480
0480
0A00
1180
6000
ENDCHAR
STARTCHAR B384
ENCODING 13612
SWIDTH 1400 0
DWIDTH 14 0
BBX 10 13 2 -2
BITMAP
0180
0480
0280
7280
5E80
4280
4A80
3280
1080
1100
1980
2240
C400
ENDCHAR
STARTCHAR B385
ENCODING 13613
SWIDTH 1400 0
DWIDTH 14 0
BBX 9 12 3 -2
BITMAP
0980
0480
E480
BC80
8480
B480
4480
0480
1A00
1100
1100
0E00
ENDCHAR
STARTCHAR B38C
ENCODING 13614
SWIDTH 1400 0
DWIDTH 14 0
BBX 9 12 2 -2
BITMAP
0180
0080
FE80
4780
4080
4080
4780
4180
7E80
0080
0080
0080
ENDCHAR
STARTCHAR B390
ENCODING 13615
SWIDTH 1400 0
DWIDTH 14 0
BBX 11 11 1 -1
BITMAP
00C0
8C40
7040
41C0
4040
43C0
7840
1840
0840
0800
0FE0
ENDCHAR
STARTCHAR B394
ENCODING 13616
SWIDTH 1400 0
DWIDTH 14 0
BBX 11 11 1 -1
BITMAP
00C0
FC40
43C0
43C0
4040
7FC0
0040
1FC0
0800
0800
0FE0
ENDCHAR
STARTCHAR B3A0
ENCODING 13617
SWIDTH 1400 0
DWIDTH 14 0
BBX 11 12 1 -2
BITMAP
00C0
CC40
73C0
4040
4040
7BC0
0040
0C40
0840
14C0
2320
0200
ENDCHAR
STARTCHAR B3A1
ENCODING 13618
SWIDTH 1400 0
DWIDTH 14 0
BBX 9 12 2 -2
BITMAP
0180
8480
7B80
4080
4780
4080
7800
0200
0D80
1080
0980
0700
ENDCHAR
STARTCHAR B3A8
ENCODING 13619
SWIDTH 1400 0
DWIDTH 14 0
BBX 10 12 2 -2
BITMAP
04C0
0240
FA40
5640
4A40
5E40
4240
5A40
2240
0240
0240
0040
ENDCHAR
STARTCHAR B3AC
ENCODING 13620
SWIDTH 1400 0
DWIDTH 14 0
BBX 9 12 3 -2
BITMAP
0B00
0500
E500
9D00
8500
9D00
F500
0500
6100
2000
2000
3F80
ENDCHAR
STARTCHAR B3C4
ENCODING 13621
SWIDTH 1400 0
DWIDTH 14 0
BBX 13 9 1 0
BITMAP
3FC0
2000
2000
2000
3FC0
0600
0200
0200
FFF8
ENDCHAR
STARTCHAR B3C5
ENCODING 13622
SWIDTH 1400 0
DWIDTH 14 0
BBX 12 13 2 -3
BITMAP
3F80
2000
2000
3F80
0400
07F0
FC00
0000
7F80
0080
0080
0080
0080
ENDCHAR
STARTCHAR B3C8
ENCODING 13623
SWIDTH 1400 0
DWIDTH 14 0
BBX 12 11 2 -1
BITMAP
3F80
2000
2000
3F80
0400
0400
FFF0
6000
2000
2000
3FC0
ENDCHAR
STARTCHAR B3CB
ENCODING 13624
SWIDTH 1400 0
DWIDTH 14 0
BBX 13 11 1 -1
BITMAP
3F80
2000
2000
3FC0
0200
03F8
FE08
3F80
1000
1000
1FE0
ENDCHAR
STARTCHAR B3CC
ENCODING 13625
SWIDTH 1400 0
DWIDTH 14 0
BBX 12 11 1 -1
BITMAP
7F80
2000
2000
3F80
0400
FFF0
0000
3FC0
1F80
1000
1FE0
ENDCHAR
STARTCHAR B3CE
ENCODING 13626
SWIDTH 1400 0
DWIDTH 14 0
BBX 12 12 1 -2
BITMAP
7F80
2000
2000
3F80
0400
FFF0
0000
3BC0
4A40
3240
3BC0
0200
ENDCHAR
STARTCHAR B3D0
ENCODING 13627
SWIDTH 1400 0
DWIDTH 14 0
BBX 11 12 2 -2
BITMAP
7F80
2000
2000
3F80
0400
FFE0
0000
3900
1100
6280
7440
0800
ENDCHAR
STARTCHAR B3D4
ENCODING 13628
SWIDTH 1400 0
DWIDTH 14 0
BBX 13 12 1 -2
BITMAP
1FC0
1000
1000
1FC0
0200
FFF8
0000
1F80
1080
1080
1F80
1000
ENDCHAR
STARTCHAR B3D5
ENCODING 13629
SWIDTH 1400 0
DWIDTH 14 0
BBX 12 12 2 -2
BITMAP
3F80
2000
2000
1FC0
0400
FFF0
0300
2100
3F00
2100
3F00
2100
ENDCHAR
STARTCHAR B3D7
ENCODING 13630
SWIDTH 1400 0
DWIDTH 14 0
BBX 13 12 1 -2
BITMAP
1FC0
1000
1000
1FC0
0200
0200
FFF8
0600
0200
0500
08C0
3000
ENDCHAR
STARTCHAR B3D9
ENCODING 13631
SWIDTH 1400 0
DWIDTH 14 0
BBX 13 12 1 -2
BITMAP
0FC0
1000
1000
1FE0
0200
03F8
FC00
0200
1D00
1080
1880
0F00
ENDCHAR
STARTCHAR B3DB
ENCODING 13632
SWIDTH 1400 0
DWIDTH 14 0
BBX 13 12 1 -2
BITMAP
1FC0
1000
1000
0C00
03C0
FFF8
0700
3FC0
0200
0500
08C0
7000
ENDCHAR
STARTCHAR B3DD
ENCODING 13633
SWIDTH 1400 0
DWIDTH 14 0
BBX 11 12 2 -2
BITMAP
3F80
2000
2000
3F80
0400
FFE0
0000
3F80
2000
3F00
2000
1F80
ENDCHAR
STARTCHAR B3E0
ENCODING 13634
SWIDTH 1400 0
DWIDTH 14 0
BBX 13 13 1 -2
BITMAP
00C0
0040
FC40
4040
4040
4040
3C58
0860
0BC0
F440
0040
0040
0040
ENDCHAR
STARTCHAR B3E4
ENCODING 13635
SWIDTH 1400 0
DWIDTH 14 0
BBX 13 12 1 -2
BITMAP
00C0
0040
7E40
2040
2340
1C58
08E0
FF40
1040
0840
0800
0FE0
ENDCHAR
STARTCHAR B3E8
ENCODING 13636
SWIDTH 1400 0
DWIDTH 14 0
BBX 12 12 1 -2
BITMAP
00C0
3E40
2040
2040
1C70
FBC0
0400
1FC0
0080
0FC0
0800
07E0
ENDCHAR
STARTCHAR B3FC
ENCODING 13637
SWIDTH 1400 0
DWIDTH 14 0
BBX 10 12 2 -2
BITMAP
0440
DE40
6240
4240
4240
7A40
13C0
1640
EA40
0240
0240
0040
ENDCHAR
STARTCHAR B410
ENCODING 13638
SWIDTH 1400 0
DWIDTH 14 0
BBX 10 13 2 -2
BITMAP
00C0
0240
7E40
4240
7E40
13C0
1640
EA40
1180
1100
1980
2640
C000
ENDCHAR
STARTCHAR B418
ENCODING 13639
SWIDTH 1400 0
DWIDTH 14 0
BBX 10 12 1 -2
BITMAP
00C0
3F40
2040
2040
2040
3E40
0840
0840
FF40
0040
0040
0040
ENDCHAR
STARTCHAR B41C
ENCODING 13640
SWIDTH 1400 0
DWIDTH 14 0
BBX 10 11 2 -1
BITMAP
0180
7C80
4080
4080
7E80
1080
1380
EC80
1080
1000
1FC0
ENDCHAR
STARTCHAR B420
ENCODING 13641
SWIDTH 1400 0
DWIDTH 14 0
BBX 10 11 2 -1
BITMAP
0080
FC80
4080
4080
3C80
1180
EE00
3F80
3F80
1000
1FC0
ENDCHAR
STARTCHAR B428
ENCODING 13642
SWIDTH 1400 0
DWIDTH 14 0
BBX 10 12 1 -2
BITMAP
00C0
7E40
2040
2040
3E40
0840
FF40
11C0
0E40
0840
0FC0
0800
ENDCHAR
STARTCHAR B429
ENCODING 13643
SWIDTH 1400 0
DWIDTH 14 0
BBX 10 12 1 -2
BITMAP
00C0
7F40
2040
2040
3E40
0840
FFC0
0840
0FC0
0840
0FC0
0840
ENDCHAR
STARTCHAR B42B
ENCODING 13644
SWIDTH 1400 0
DWIDTH 14 0
BBX 10 12 2 -2
BITMAP
0180
7C80
4080
4080
3C80
1380
EC80
0680
0400
0B00
10C0
6000
ENDCHAR
STARTCHAR B434
ENCODING 13645
SWIDTH 1400 0
DWIDTH 14 0
BBX 12 9 1 0
BITMAP
3FC0
2000
2000
2000
3FC0
0100
0880
0900
FFF0
ENDCHAR
STARTCHAR B450
ENCODING 13646
SWIDTH 1400 0
DWIDTH 14 0
BBX 11 12 2 -2
BITMAP
7F00
4000
4000
7F80
0000
0000
FFE0
0400
0400
0400
0400
0400
ENDCHAR
STARTCHAR B451
ENCODING 13647
SWIDTH 1400 0
DWIDTH 14 0
BBX 12 12 2 -2
BITMAP
3F80
2000
2000
3F80
0000
FFF0
0400
7F80
0080
0080
0080
0080
ENDCHAR
STARTCHAR B454
ENCODING 13648
SWIDTH 1400 0
DWIDTH 14 0
BBX 12 11 1 -1
BITMAP
1FC0
1000
1000
1FE0
0000
FFF0
0200
3200
1200
1000
1FE0
ENDCHAR
STARTCHAR B458
ENCODING 13649
SWIDTH 1400 0
DWIDTH 14 0
BBX 11 12 2 -2
BITMAP
3F80
2000
2000
3F80
0000
FFE0
0400
3A00
0100
7F00
2000
3F80
ENDCHAR
STARTCHAR B460
ENCODING 13650
SWIDTH 1400 0
DWIDTH 14 0
BBX 12 12 1 -2
BITMAP
1EC0
1100
1000
1FC0
0000
FFF0
0200
1E00
1180
1080
1F80
1000
ENDCHAR
STARTCHAR B461
ENCODING 13651
SWIDTH 1400 0
DWIDTH 14 0
BBX 12 12 1 -2
BITMAP
1FC0
1000
1000
1FC0
0000
FFF0
0380
1280
1F80
1080
1F80
1080
ENDCHAR
STARTCHAR B463
ENCODING 13652
SWIDTH 1400 0
DWIDTH 14 0
BBX 12 12 1 -2
BITMAP
0FC0
1000
1000
1FC0
0000
FFF0
0200
0600
0200
0500
08C0
1000
ENDCHAR
STARTCHAR B465
ENCODING 13653
SWIDTH 1400 0
DWIDTH 14 0
BBX 13 12 1 -2
BITMAP
1FC0
1000
1000
1FC0
0000
FFF8
0600
0F00
1080
1080
1880
0F00
ENDCHAR
STARTCHAR B46C
ENCODING 13654
SWIDTH 1400 0
DWIDTH 14 0
BBX 9 12 2 -2
BITMAP
0180
8E80
7080
4080
7C80
0080
0280
FC80
1380
1080
1080
0080
ENDCHAR
ENDFONT
